<svg width="272" height="69" viewBox="0 0 272 69" fill="none" xmlns="http://www.w3.org/2000/svg">
<path d="M56.1874 14.2301H54.5984V18.3397C54.5984 19.3594 53.7483 20.1922 52.7074 20.1922C51.6666 20.1922 50.8165 19.3594 50.8165 18.3397V14.2301H46.9154V18.3397C46.9154 19.3594 46.0732 20.1922 45.0244 20.1922C43.9757 20.1922 43.1335 19.3594 43.1335 18.3397V14.2301H39.2324V18.3397C39.2324 19.3594 38.3903 20.1922 37.3415 20.1922C36.2927 20.1922 35.4505 19.3594 35.4505 18.3397V14.2301H31.5495V18.3397C31.5495 19.3594 30.7073 20.1922 29.6585 20.1922C28.6097 20.1922 27.7676 19.3594 27.7676 18.3397V14.2301H23.8665V18.3397C23.8665 19.3594 23.0163 20.1922 21.9756 20.1922C20.9347 20.1922 20.0846 19.3594 20.0846 18.3397V14.2301H16.1835V18.3397C16.1835 19.3594 15.3413 20.1922 14.2926 20.1922C13.2438 20.1922 12.4016 19.3594 12.4016 18.3397V14.2301H10.8126C9.26328 14.2301 8 15.4677 8 16.9854V21.6321H58.9762V16.9854C58.9762 15.4677 57.7129 14.2301 56.1636 14.2301H56.1874ZM14.3164 19.2115C14.809 19.2115 15.2062 18.8223 15.2062 18.3397V11.8718C15.2062 11.3892 14.809 11 14.3164 11C13.8238 11 13.4265 11.3892 13.4265 11.8718V18.3397C13.4265 18.8223 13.8238 19.2115 14.3164 19.2115ZM21.9994 19.2115C22.492 19.2115 22.8892 18.8223 22.8892 18.3397V11.8718C22.8892 11.3892 22.492 11 21.9994 11C21.5068 11 21.1096 11.3892 21.1096 11.8718V18.3397C21.1096 18.8223 21.5068 19.2115 21.9994 19.2115ZM29.6744 19.2115C30.167 19.2115 30.5642 18.8223 30.5642 18.3397V11.8718C30.5642 11.3892 30.167 11 29.6744 11C29.1818 11 28.7845 11.3892 28.7845 11.8718V18.3397C28.7845 18.8223 29.1818 19.2115 29.6744 19.2115ZM37.3494 19.2115C37.8421 19.2115 38.2393 18.8223 38.2393 18.3397V11.8718C38.2393 11.3892 37.8421 11 37.3494 11C36.8568 11 36.4595 11.3892 36.4595 11.8718V18.3397C36.4595 18.8223 36.8568 19.2115 37.3494 19.2115ZM45.0324 19.2115C45.525 19.2115 45.9222 18.8223 45.9222 18.3397V11.8718C45.9222 11.3892 45.525 11 45.0324 11C44.5398 11 44.1426 11.3892 44.1426 11.8718V18.3397C44.1426 18.8223 44.5398 19.2115 45.0324 19.2115ZM52.7074 19.2115C53.2001 19.2115 53.5973 18.8223 53.5973 18.3397V11.8718C53.5973 11.3892 53.2001 11 52.7074 11C52.2148 11 51.8175 11.3892 51.8175 11.8718V18.3397C51.8175 18.8223 52.2148 19.2115 52.7074 19.2115ZM8.02383 54.2447C8.02383 55.7624 9.28711 57 10.8364 57H56.1874C57.7367 57 59 55.7624 59 54.2447V23.3834H8.02383V54.2447ZM47.0664 28.9952C47.0664 28.5828 47.2412 28.2014 47.5192 27.9289C47.7973 27.6566 48.1867 27.4853 48.6078 27.4853H51.4521C51.8732 27.4853 52.2625 27.6566 52.5406 27.9289C52.8187 28.2014 52.9935 28.5828 52.9935 28.9952V31.7817C52.9935 32.6146 52.2943 33.2917 51.4521 33.2917H48.6078C47.7576 33.2917 47.0664 32.6067 47.0664 31.7817V28.9952ZM47.0664 37.9229C47.0664 37.09 47.7655 36.4129 48.6078 36.4129H51.4521C52.3023 36.4129 52.9935 37.09 52.9935 37.9229V40.7093C52.9935 41.1219 52.8187 41.5033 52.5406 41.7756C52.2625 42.0481 51.8732 42.2193 51.4521 42.2193H48.6078C48.1867 42.2193 47.7973 42.0481 47.5192 41.7756C47.4954 41.7523 47.4716 41.729 47.4477 41.6978C47.2094 41.4332 47.0664 41.083 47.0664 40.7015V37.915V37.9229ZM36.0544 28.9952C36.0544 28.5828 36.2292 28.2014 36.5073 27.9289C36.7853 27.6566 37.1746 27.4853 37.5958 27.4853H40.4401C40.8612 27.4853 41.2505 27.6566 41.5286 27.9289C41.8066 28.2014 41.9814 28.5828 41.9814 28.9952V31.7817C41.9814 32.6146 41.2823 33.2917 40.4401 33.2917H37.5958C36.7456 33.2917 36.0544 32.6067 36.0544 31.7817V28.9952ZM36.0544 37.9229C36.0544 37.09 36.7536 36.4129 37.5958 36.4129H40.4401C41.2902 36.4129 41.9814 37.09 41.9814 37.9229V40.7093C41.9814 41.1219 41.8066 41.5033 41.5286 41.7756C41.2505 42.0481 40.8612 42.2193 40.4401 42.2193H37.5958C37.1746 42.2193 36.7853 42.0481 36.5073 41.7756C36.4834 41.7523 36.4595 41.729 36.4358 41.6978C36.1974 41.4332 36.0544 41.083 36.0544 40.7015V37.915V37.9229ZM36.0544 46.8582C36.0544 46.0254 36.7536 45.3482 37.5958 45.3482H40.4401C41.2902 45.3482 41.9814 46.0254 41.9814 46.8582V49.6447C41.9814 50.0572 41.8066 50.4386 41.5286 50.7111C41.2505 50.9834 40.8612 51.1547 40.4401 51.1547H37.5958C37.1746 51.1547 36.7853 50.9834 36.5073 50.7111C36.4834 50.6877 36.4595 50.6643 36.4358 50.6332C36.1974 50.3686 36.0544 50.0183 36.0544 49.6369V46.8505V46.8582ZM25.0423 28.9952C25.0423 28.5828 25.2171 28.2014 25.4953 27.9289C25.7734 27.6566 26.1626 27.4853 26.5837 27.4853H29.4281C29.8492 27.4853 30.2385 27.6566 30.5166 27.9289C30.7947 28.2014 30.9695 28.5828 30.9695 28.9952V31.7817C30.9695 32.6146 30.2703 33.2917 29.4281 33.2917H26.5837C25.7336 33.2917 25.0423 32.6067 25.0423 31.7817V28.9952ZM25.0423 37.9229C25.0423 37.5104 25.2171 37.1289 25.4953 36.8565C25.7734 36.5841 25.5429 36.8098 25.5747 36.7865C25.8449 36.553 26.2024 36.4129 26.5917 36.4129H29.436C29.8572 36.4129 30.2464 36.5841 30.5245 36.8565C30.5484 36.8799 30.5723 36.9033 30.596 36.9265C30.8344 37.1912 30.9774 37.5415 30.9774 37.9229V40.7093C30.9774 41.1219 30.8026 41.5033 30.5245 41.7756L30.5166 41.7912C30.2385 42.0558 29.8572 42.2271 29.436 42.2271H26.5917C26.1626 42.2271 25.7813 42.0558 25.5032 41.7835C25.2252 41.511 25.0504 41.1296 25.0504 40.7172V37.9307L25.0423 37.9229ZM25.0423 46.8582C25.0423 46.4457 25.2171 46.0644 25.4953 45.7919C25.5191 45.7685 25.5429 45.7452 25.5747 45.7219C25.8449 45.4883 26.2024 45.3482 26.5917 45.3482H29.436C30.2862 45.3482 30.9774 46.0332 30.9774 46.8582V49.6447C30.9774 50.4775 30.2862 51.1547 29.436 51.1547H26.5917C26.1626 51.1547 25.7813 50.9834 25.5032 50.7111C25.2252 50.4386 25.0504 50.0572 25.0504 49.6447V46.8582H25.0423ZM14.0225 37.9229C14.0225 37.5104 14.1972 37.1289 14.4753 36.8565L14.477 36.8549C14.5003 36.8321 14.5237 36.8093 14.5547 36.7865C14.8249 36.553 15.1825 36.4129 15.5717 36.4129H18.4161C18.8372 36.4129 19.2266 36.5841 19.5046 36.8565C19.5284 36.8799 19.5523 36.9033 19.5761 36.9265C19.8145 37.1912 19.9575 37.5415 19.9575 37.9229V40.7093C19.9575 41.1219 19.7827 41.5033 19.5046 41.7756L19.4966 41.7912C19.2185 42.0558 18.8372 42.2271 18.4161 42.2271H15.5717C15.1427 42.2271 14.7613 42.0558 14.4832 41.7835C14.2052 41.511 14.0304 41.1296 14.0304 40.7172V37.9307L14.0225 37.9229ZM14.0225 46.8582C14.0225 46.4457 14.1972 46.0644 14.4753 45.7919C14.4992 45.7685 14.5229 45.7452 14.5547 45.7219C14.8249 45.4883 15.1825 45.3482 15.5717 45.3482H18.4161C18.8372 45.3482 19.2266 45.5195 19.5046 45.7919C19.5284 45.8153 19.5523 45.8386 19.5761 45.862C19.8145 46.1266 19.9575 46.4768 19.9575 46.8582V49.6447C19.9575 50.0572 19.7827 50.4386 19.5046 50.7111L19.4966 50.7266C19.2185 50.999 18.8372 51.1625 18.4161 51.1625H15.5717C15.1427 51.1625 14.7613 50.9913 14.4832 50.7188C14.2052 50.4464 14.0304 50.065 14.0304 49.6525V46.866L14.0225 46.8582Z" fill="url(#paint0_linear_588_265)"/>
<path d="M14.0225 37.9229C14.0225 37.5104 14.1972 37.1289 14.4753 36.8565L14.477 36.8549C14.5003 36.8321 14.5237 36.8093 14.5547 36.7865C14.8249 36.553 15.1825 36.4129 15.5717 36.4129H18.4161C18.8372 36.4129 19.2266 36.5841 19.5046 36.8565L19.5761 36.9265C19.8145 37.1912 19.9575 37.5415 19.9575 37.9229V40.7093C19.9575 41.1219 19.7827 41.5033 19.5046 41.7756L19.4966 41.7912C19.2185 42.0558 18.8372 42.2271 18.4161 42.2271H15.5717C15.1427 42.2271 14.7613 42.0558 14.4832 41.7835C14.2052 41.511 14.0304 41.1296 14.0304 40.7172V37.9307L14.0225 37.9229Z" fill="url(#paint1_linear_588_265)"/>
<path d="M25.0423 28.9952C25.0423 28.5828 25.2171 28.2014 25.4953 27.9289C25.7734 27.6566 26.1626 27.4853 26.5837 27.4853H29.4281C29.8492 27.4853 30.2385 27.6566 30.5166 27.9289C30.7947 28.2014 30.9695 28.5828 30.9695 28.9952V31.7817C30.9695 32.6146 30.2703 33.2917 29.4281 33.2917H26.5837C25.7336 33.2917 25.0423 32.6067 25.0423 31.7817V28.9952Z" fill="url(#paint2_linear_588_265)"/>
<mask id="path-2-outside-1_588_265" maskUnits="userSpaceOnUse" x="-0.174805" y="0.959961" width="79" height="68" fill="black">
<rect fill="white" x="-0.174805" y="0.959961" width="79" height="68"/>
<path fill-rule="evenodd" clip-rule="evenodd" d="M77.4258 29.5861C77.1258 27.1861 76.3258 24.7861 75.1258 22.6861C75.1258 22.6861 75.1258 22.6861 75.1258 22.5861C74.2258 21.0861 72.9258 19.7861 71.3258 18.8861C69.7258 17.9861 67.8258 17.4861 65.9258 17.3861C63.0258 17.1861 60.0258 17.7861 57.3258 18.7861C54.3258 19.8861 51.5258 21.5861 48.9258 23.5861C45.9258 25.8861 43.2258 28.7861 41.0258 31.8861C39.7258 33.6861 38.5258 35.4861 37.5258 37.3861C36.8258 38.6861 36.2258 39.9861 35.5258 41.2861C35.1258 42.1861 34.6258 43.0861 34.2258 43.9861C32.2258 47.8861 30.1258 51.6861 27.6258 55.2861C26.6258 56.6861 25.6258 57.9861 24.5258 59.2861C23.0258 60.8861 21.4258 62.4861 19.5258 63.4861C18.0258 64.2861 16.4258 64.6861 14.7258 64.2861C12.8258 63.7861 11.5258 62.5861 10.9258 60.6861C10.4258 59.1861 10.3258 57.5861 10.3258 55.9861C10.3258 54.1861 10.6258 52.3861 11.0258 50.6861C11.5258 48.5861 12.1258 46.4861 12.8258 44.3861C13.3258 44.1861 13.7258 43.7861 13.9258 43.2861C14.2258 42.3861 14.5258 41.5861 14.9258 40.6861C16.1258 40.6861 17.2258 40.6861 18.4258 40.3861C19.6258 40.0861 20.9258 39.5861 22.1258 39.0861C22.4258 38.8861 22.7258 38.5861 22.8258 38.2861C22.8258 38.2861 23.0258 38.2861 23.0258 38.1861C25.8258 36.4861 28.3258 34.3861 30.6258 32.0861C32.5258 30.0861 34.3258 27.9861 35.9258 25.6861C37.0258 24.1861 38.0258 22.5861 38.9258 20.8861C39.8258 19.2861 40.6258 17.2861 40.5258 15.3861C40.3258 12.0861 37.7258 9.88606 34.9258 8.28606V8.08606C34.9258 7.48606 34.9258 6.88606 34.5258 6.48606C34.0258 5.98606 33.3258 5.98606 32.7258 6.18606C30.9258 6.68606 28.9258 9.48606 30.8258 11.0861C31.6258 11.7861 32.5258 11.6861 33.2258 11.0861C35.2258 12.1861 37.4258 13.7861 37.1258 16.2861C36.9258 17.5861 36.2258 18.8861 35.5258 20.0861C34.7258 21.3861 33.9258 22.6861 33.0258 23.9861C31.5258 25.9861 29.9258 27.8861 28.2258 29.6861C26.3258 31.6861 24.1258 33.4861 21.8258 34.9861C21.8258 34.9861 21.8258 34.9861 21.7258 34.9861C21.5258 34.8861 21.3258 34.6861 21.0258 34.6861C20.5258 34.5861 20.1258 34.7861 19.7258 34.9861C19.2258 35.1861 18.6258 35.3861 18.1258 35.5861C17.1258 35.8861 16.0258 36.0861 14.9258 35.9861C12.9258 35.8861 11.3258 34.6861 10.2258 33.1861C9.92584 32.7861 9.72584 32.4861 9.22584 32.3861C9.02584 32.3861 8.92584 32.3861 8.72584 32.3861C7.92584 30.6861 7.32584 28.8861 6.82584 27.1861C6.02584 23.9861 5.52584 20.7861 5.32584 17.4861C5.22584 15.7861 5.12584 14.1861 5.12584 12.4861C5.12584 10.9861 5.12584 9.38606 5.62584 7.88606C5.92584 6.88606 6.52584 6.08606 7.42584 5.68606C8.72584 5.18606 10.2258 5.38606 11.6258 5.58606C11.9258 5.58606 12.2258 5.58606 12.6258 5.68606C12.6258 6.18606 12.6258 6.78606 13.0258 7.18606C13.5258 7.68606 14.2258 7.68606 14.8258 7.48606C16.6258 6.98606 18.7258 4.08606 16.8258 2.58606C15.9258 1.78606 15.0258 1.98606 14.2258 2.58606C10.8258 1.88606 6.52584 1.18606 4.02584 3.98606C1.72584 6.58606 1.82584 10.4861 1.82584 13.6861C1.82584 16.6861 2.12584 19.5861 2.62584 22.5861C3.12584 25.8861 3.82584 29.1861 5.12584 32.1861C5.52584 32.9861 5.92584 33.8861 6.32584 34.6861C6.32584 34.6861 6.32584 34.7861 6.32584 34.8861C6.32584 35.4861 6.52584 35.8861 6.92584 36.2861C7.32584 36.6861 7.62584 37.0861 8.02584 37.4861C8.72584 38.1861 9.52584 38.7861 10.4258 39.2861C10.1258 39.9861 9.82584 40.6861 9.62584 41.4861C9.52584 41.8861 9.32584 42.1861 9.42584 42.6861C9.42584 42.8861 9.52584 43.0861 9.62584 43.2861C8.82584 45.4861 8.22584 47.7861 7.72584 50.0861C7.22584 52.2861 6.92584 54.6861 6.92584 56.9861C6.92584 59.0861 7.22584 61.1861 8.12584 63.0861C9.22584 65.2861 11.1258 66.8861 13.5258 67.5861C15.2258 68.0861 16.9258 67.9861 18.5258 67.5861C21.4258 66.6861 23.9258 64.6861 26.0258 62.4861C29.1258 59.1861 31.7258 55.3861 33.9258 51.4861C35.4258 48.9861 36.7258 46.3861 38.0258 43.6861C38.1258 43.4861 38.2258 43.1861 38.3258 42.9861C39.5258 40.5861 40.6258 38.1861 42.1258 35.9861C45.1258 31.3861 48.9258 27.2861 53.6258 24.3861C56.0258 22.8861 58.5258 21.7861 61.3258 21.1861C63.7258 20.6861 66.3258 20.5861 68.6258 21.4861C69.6258 21.8861 70.5258 22.4861 71.2258 23.2861C72.0258 24.1861 72.5258 25.1861 73.0258 26.2861C74.0258 28.7861 74.3258 31.4861 74.1258 34.0861C73.9258 37.0861 73.1258 39.9861 71.9258 42.7861C71.1258 44.5861 70.1258 46.3861 69.0258 48.0861C68.0258 47.5861 67.0258 47.2861 65.9258 47.1861C63.1258 46.8861 60.1258 47.9861 58.5258 50.4861C58.3258 50.7861 58.1258 51.0861 58.0258 51.4861C57.3258 53.0861 56.9258 54.8861 57.1258 56.6861C57.3258 58.1861 58.0258 59.6861 59.2258 60.6861C61.7258 62.8861 65.6258 62.1861 68.3258 60.7861C69.8258 60.0861 71.1258 58.9861 71.9258 57.4861C72.7258 56.0861 73.1258 54.4861 72.7258 52.8861C72.5258 51.8861 72.1258 50.9861 71.5258 50.1861C72.9258 48.2861 74.0258 46.1861 74.9258 44.0861C76.8258 39.5861 78.1258 34.4861 77.4258 29.5861ZM63.2258 56.9861C61.9258 56.2861 61.9258 54.4861 62.4258 53.2861C62.9258 52.2861 63.8258 51.6861 64.9258 51.6861C65.2258 51.6861 65.5258 51.6861 65.8258 51.6861C65.9258 51.6861 66.0258 51.6861 66.1258 51.6861C66.2258 51.6861 66.3258 51.6861 66.4258 51.7861C67.0258 52.0861 67.5258 52.5861 67.8258 53.1861C67.8258 53.1861 67.8258 53.1861 67.8258 53.2861C67.8258 53.3861 67.8258 53.4861 67.8258 53.5861C67.8258 53.6861 67.8258 53.8861 67.8258 53.9861C67.8258 54.8861 67.2258 55.6861 66.5258 56.1861C65.5258 56.7861 64.3258 57.4861 63.2258 56.9861Z"/>
</mask>
<path fill-rule="evenodd" clip-rule="evenodd" d="M77.4258 29.5861C77.1258 27.1861 76.3258 24.7861 75.1258 22.6861C75.1258 22.6861 75.1258 22.6861 75.1258 22.5861C74.2258 21.0861 72.9258 19.7861 71.3258 18.8861C69.7258 17.9861 67.8258 17.4861 65.9258 17.3861C63.0258 17.1861 60.0258 17.7861 57.3258 18.7861C54.3258 19.8861 51.5258 21.5861 48.9258 23.5861C45.9258 25.8861 43.2258 28.7861 41.0258 31.8861C39.7258 33.6861 38.5258 35.4861 37.5258 37.3861C36.8258 38.6861 36.2258 39.9861 35.5258 41.2861C35.1258 42.1861 34.6258 43.0861 34.2258 43.9861C32.2258 47.8861 30.1258 51.6861 27.6258 55.2861C26.6258 56.6861 25.6258 57.9861 24.5258 59.2861C23.0258 60.8861 21.4258 62.4861 19.5258 63.4861C18.0258 64.2861 16.4258 64.6861 14.7258 64.2861C12.8258 63.7861 11.5258 62.5861 10.9258 60.6861C10.4258 59.1861 10.3258 57.5861 10.3258 55.9861C10.3258 54.1861 10.6258 52.3861 11.0258 50.6861C11.5258 48.5861 12.1258 46.4861 12.8258 44.3861C13.3258 44.1861 13.7258 43.7861 13.9258 43.2861C14.2258 42.3861 14.5258 41.5861 14.9258 40.6861C16.1258 40.6861 17.2258 40.6861 18.4258 40.3861C19.6258 40.0861 20.9258 39.5861 22.1258 39.0861C22.4258 38.8861 22.7258 38.5861 22.8258 38.2861C22.8258 38.2861 23.0258 38.2861 23.0258 38.1861C25.8258 36.4861 28.3258 34.3861 30.6258 32.0861C32.5258 30.0861 34.3258 27.9861 35.9258 25.6861C37.0258 24.1861 38.0258 22.5861 38.9258 20.8861C39.8258 19.2861 40.6258 17.2861 40.5258 15.3861C40.3258 12.0861 37.7258 9.88606 34.9258 8.28606V8.08606C34.9258 7.48606 34.9258 6.88606 34.5258 6.48606C34.0258 5.98606 33.3258 5.98606 32.7258 6.18606C30.9258 6.68606 28.9258 9.48606 30.8258 11.0861C31.6258 11.7861 32.5258 11.6861 33.2258 11.0861C35.2258 12.1861 37.4258 13.7861 37.1258 16.2861C36.9258 17.5861 36.2258 18.8861 35.5258 20.0861C34.7258 21.3861 33.9258 22.6861 33.0258 23.9861C31.5258 25.9861 29.9258 27.8861 28.2258 29.6861C26.3258 31.6861 24.1258 33.4861 21.8258 34.9861C21.8258 34.9861 21.8258 34.9861 21.7258 34.9861C21.5258 34.8861 21.3258 34.6861 21.0258 34.6861C20.5258 34.5861 20.1258 34.7861 19.7258 34.9861C19.2258 35.1861 18.6258 35.3861 18.1258 35.5861C17.1258 35.8861 16.0258 36.0861 14.9258 35.9861C12.9258 35.8861 11.3258 34.6861 10.2258 33.1861C9.92584 32.7861 9.72584 32.4861 9.22584 32.3861C9.02584 32.3861 8.92584 32.3861 8.72584 32.3861C7.92584 30.6861 7.32584 28.8861 6.82584 27.1861C6.02584 23.9861 5.52584 20.7861 5.32584 17.4861C5.22584 15.7861 5.12584 14.1861 5.12584 12.4861C5.12584 10.9861 5.12584 9.38606 5.62584 7.88606C5.92584 6.88606 6.52584 6.08606 7.42584 5.68606C8.72584 5.18606 10.2258 5.38606 11.6258 5.58606C11.9258 5.58606 12.2258 5.58606 12.6258 5.68606C12.6258 6.18606 12.6258 6.78606 13.0258 7.18606C13.5258 7.68606 14.2258 7.68606 14.8258 7.48606C16.6258 6.98606 18.7258 4.08606 16.8258 2.58606C15.9258 1.78606 15.0258 1.98606 14.2258 2.58606C10.8258 1.88606 6.52584 1.18606 4.02584 3.98606C1.72584 6.58606 1.82584 10.4861 1.82584 13.6861C1.82584 16.6861 2.12584 19.5861 2.62584 22.5861C3.12584 25.8861 3.82584 29.1861 5.12584 32.1861C5.52584 32.9861 5.92584 33.8861 6.32584 34.6861C6.32584 34.6861 6.32584 34.7861 6.32584 34.8861C6.32584 35.4861 6.52584 35.8861 6.92584 36.2861C7.32584 36.6861 7.62584 37.0861 8.02584 37.4861C8.72584 38.1861 9.52584 38.7861 10.4258 39.2861C10.1258 39.9861 9.82584 40.6861 9.62584 41.4861C9.52584 41.8861 9.32584 42.1861 9.42584 42.6861C9.42584 42.8861 9.52584 43.0861 9.62584 43.2861C8.82584 45.4861 8.22584 47.7861 7.72584 50.0861C7.22584 52.2861 6.92584 54.6861 6.92584 56.9861C6.92584 59.0861 7.22584 61.1861 8.12584 63.0861C9.22584 65.2861 11.1258 66.8861 13.5258 67.5861C15.2258 68.0861 16.9258 67.9861 18.5258 67.5861C21.4258 66.6861 23.9258 64.6861 26.0258 62.4861C29.1258 59.1861 31.7258 55.3861 33.9258 51.4861C35.4258 48.9861 36.7258 46.3861 38.0258 43.6861C38.1258 43.4861 38.2258 43.1861 38.3258 42.9861C39.5258 40.5861 40.6258 38.1861 42.1258 35.9861C45.1258 31.3861 48.9258 27.2861 53.6258 24.3861C56.0258 22.8861 58.5258 21.7861 61.3258 21.1861C63.7258 20.6861 66.3258 20.5861 68.6258 21.4861C69.6258 21.8861 70.5258 22.4861 71.2258 23.2861C72.0258 24.1861 72.5258 25.1861 73.0258 26.2861C74.0258 28.7861 74.3258 31.4861 74.1258 34.0861C73.9258 37.0861 73.1258 39.9861 71.9258 42.7861C71.1258 44.5861 70.1258 46.3861 69.0258 48.0861C68.0258 47.5861 67.0258 47.2861 65.9258 47.1861C63.1258 46.8861 60.1258 47.9861 58.5258 50.4861C58.3258 50.7861 58.1258 51.0861 58.0258 51.4861C57.3258 53.0861 56.9258 54.8861 57.1258 56.6861C57.3258 58.1861 58.0258 59.6861 59.2258 60.6861C61.7258 62.8861 65.6258 62.1861 68.3258 60.7861C69.8258 60.0861 71.1258 58.9861 71.9258 57.4861C72.7258 56.0861 73.1258 54.4861 72.7258 52.8861C72.5258 51.8861 72.1258 50.9861 71.5258 50.1861C72.9258 48.2861 74.0258 46.1861 74.9258 44.0861C76.8258 39.5861 78.1258 34.4861 77.4258 29.5861ZM63.2258 56.9861C61.9258 56.2861 61.9258 54.4861 62.4258 53.2861C62.9258 52.2861 63.8258 51.6861 64.9258 51.6861C65.2258 51.6861 65.5258 51.6861 65.8258 51.6861C65.9258 51.6861 66.0258 51.6861 66.1258 51.6861C66.2258 51.6861 66.3258 51.6861 66.4258 51.7861C67.0258 52.0861 67.5258 52.5861 67.8258 53.1861C67.8258 53.1861 67.8258 53.1861 67.8258 53.2861C67.8258 53.3861 67.8258 53.4861 67.8258 53.5861C67.8258 53.6861 67.8258 53.8861 67.8258 53.9861C67.8258 54.8861 67.2258 55.6861 66.5258 56.1861C65.5258 56.7861 64.3258 57.4861 63.2258 56.9861Z" fill="white"/>
<path fill-rule="evenodd" clip-rule="evenodd" d="M77.4258 29.5861C77.1258 27.1861 76.3258 24.7861 75.1258 22.6861C75.1258 22.6861 75.1258 22.6861 75.1258 22.5861C74.2258 21.0861 72.9258 19.7861 71.3258 18.8861C69.7258 17.9861 67.8258 17.4861 65.9258 17.3861C63.0258 17.1861 60.0258 17.7861 57.3258 18.7861C54.3258 19.8861 51.5258 21.5861 48.9258 23.5861C45.9258 25.8861 43.2258 28.7861 41.0258 31.8861C39.7258 33.6861 38.5258 35.4861 37.5258 37.3861C36.8258 38.6861 36.2258 39.9861 35.5258 41.2861C35.1258 42.1861 34.6258 43.0861 34.2258 43.9861C32.2258 47.8861 30.1258 51.6861 27.6258 55.2861C26.6258 56.6861 25.6258 57.9861 24.5258 59.2861C23.0258 60.8861 21.4258 62.4861 19.5258 63.4861C18.0258 64.2861 16.4258 64.6861 14.7258 64.2861C12.8258 63.7861 11.5258 62.5861 10.9258 60.6861C10.4258 59.1861 10.3258 57.5861 10.3258 55.9861C10.3258 54.1861 10.6258 52.3861 11.0258 50.6861C11.5258 48.5861 12.1258 46.4861 12.8258 44.3861C13.3258 44.1861 13.7258 43.7861 13.9258 43.2861C14.2258 42.3861 14.5258 41.5861 14.9258 40.6861C16.1258 40.6861 17.2258 40.6861 18.4258 40.3861C19.6258 40.0861 20.9258 39.5861 22.1258 39.0861C22.4258 38.8861 22.7258 38.5861 22.8258 38.2861C22.8258 38.2861 23.0258 38.2861 23.0258 38.1861C25.8258 36.4861 28.3258 34.3861 30.6258 32.0861C32.5258 30.0861 34.3258 27.9861 35.9258 25.6861C37.0258 24.1861 38.0258 22.5861 38.9258 20.8861C39.8258 19.2861 40.6258 17.2861 40.5258 15.3861C40.3258 12.0861 37.7258 9.88606 34.9258 8.28606V8.08606C34.9258 7.48606 34.9258 6.88606 34.5258 6.48606C34.0258 5.98606 33.3258 5.98606 32.7258 6.18606C30.9258 6.68606 28.9258 9.48606 30.8258 11.0861C31.6258 11.7861 32.5258 11.6861 33.2258 11.0861C35.2258 12.1861 37.4258 13.7861 37.1258 16.2861C36.9258 17.5861 36.2258 18.8861 35.5258 20.0861C34.7258 21.3861 33.9258 22.6861 33.0258 23.9861C31.5258 25.9861 29.9258 27.8861 28.2258 29.6861C26.3258 31.6861 24.1258 33.4861 21.8258 34.9861C21.8258 34.9861 21.8258 34.9861 21.7258 34.9861C21.5258 34.8861 21.3258 34.6861 21.0258 34.6861C20.5258 34.5861 20.1258 34.7861 19.7258 34.9861C19.2258 35.1861 18.6258 35.3861 18.1258 35.5861C17.1258 35.8861 16.0258 36.0861 14.9258 35.9861C12.9258 35.8861 11.3258 34.6861 10.2258 33.1861C9.92584 32.7861 9.72584 32.4861 9.22584 32.3861C9.02584 32.3861 8.92584 32.3861 8.72584 32.3861C7.92584 30.6861 7.32584 28.8861 6.82584 27.1861C6.02584 23.9861 5.52584 20.7861 5.32584 17.4861C5.22584 15.7861 5.12584 14.1861 5.12584 12.4861C5.12584 10.9861 5.12584 9.38606 5.62584 7.88606C5.92584 6.88606 6.52584 6.08606 7.42584 5.68606C8.72584 5.18606 10.2258 5.38606 11.6258 5.58606C11.9258 5.58606 12.2258 5.58606 12.6258 5.68606C12.6258 6.18606 12.6258 6.78606 13.0258 7.18606C13.5258 7.68606 14.2258 7.68606 14.8258 7.48606C16.6258 6.98606 18.7258 4.08606 16.8258 2.58606C15.9258 1.78606 15.0258 1.98606 14.2258 2.58606C10.8258 1.88606 6.52584 1.18606 4.02584 3.98606C1.72584 6.58606 1.82584 10.4861 1.82584 13.6861C1.82584 16.6861 2.12584 19.5861 2.62584 22.5861C3.12584 25.8861 3.82584 29.1861 5.12584 32.1861C5.52584 32.9861 5.92584 33.8861 6.32584 34.6861C6.32584 34.6861 6.32584 34.7861 6.32584 34.8861C6.32584 35.4861 6.52584 35.8861 6.92584 36.2861C7.32584 36.6861 7.62584 37.0861 8.02584 37.4861C8.72584 38.1861 9.52584 38.7861 10.4258 39.2861C10.1258 39.9861 9.82584 40.6861 9.62584 41.4861C9.52584 41.8861 9.32584 42.1861 9.42584 42.6861C9.42584 42.8861 9.52584 43.0861 9.62584 43.2861C8.82584 45.4861 8.22584 47.7861 7.72584 50.0861C7.22584 52.2861 6.92584 54.6861 6.92584 56.9861C6.92584 59.0861 7.22584 61.1861 8.12584 63.0861C9.22584 65.2861 11.1258 66.8861 13.5258 67.5861C15.2258 68.0861 16.9258 67.9861 18.5258 67.5861C21.4258 66.6861 23.9258 64.6861 26.0258 62.4861C29.1258 59.1861 31.7258 55.3861 33.9258 51.4861C35.4258 48.9861 36.7258 46.3861 38.0258 43.6861C38.1258 43.4861 38.2258 43.1861 38.3258 42.9861C39.5258 40.5861 40.6258 38.1861 42.1258 35.9861C45.1258 31.3861 48.9258 27.2861 53.6258 24.3861C56.0258 22.8861 58.5258 21.7861 61.3258 21.1861C63.7258 20.6861 66.3258 20.5861 68.6258 21.4861C69.6258 21.8861 70.5258 22.4861 71.2258 23.2861C72.0258 24.1861 72.5258 25.1861 73.0258 26.2861C74.0258 28.7861 74.3258 31.4861 74.1258 34.0861C73.9258 37.0861 73.1258 39.9861 71.9258 42.7861C71.1258 44.5861 70.1258 46.3861 69.0258 48.0861C68.0258 47.5861 67.0258 47.2861 65.9258 47.1861C63.1258 46.8861 60.1258 47.9861 58.5258 50.4861C58.3258 50.7861 58.1258 51.0861 58.0258 51.4861C57.3258 53.0861 56.9258 54.8861 57.1258 56.6861C57.3258 58.1861 58.0258 59.6861 59.2258 60.6861C61.7258 62.8861 65.6258 62.1861 68.3258 60.7861C69.8258 60.0861 71.1258 58.9861 71.9258 57.4861C72.7258 56.0861 73.1258 54.4861 72.7258 52.8861C72.5258 51.8861 72.1258 50.9861 71.5258 50.1861C72.9258 48.2861 74.0258 46.1861 74.9258 44.0861C76.8258 39.5861 78.1258 34.4861 77.4258 29.5861ZM63.2258 56.9861C61.9258 56.2861 61.9258 54.4861 62.4258 53.2861C62.9258 52.2861 63.8258 51.6861 64.9258 51.6861C65.2258 51.6861 65.5258 51.6861 65.8258 51.6861C65.9258 51.6861 66.0258 51.6861 66.1258 51.6861C66.2258 51.6861 66.3258 51.6861 66.4258 51.7861C67.0258 52.0861 67.5258 52.5861 67.8258 53.1861C67.8258 53.1861 67.8258 53.1861 67.8258 53.2861C67.8258 53.3861 67.8258 53.4861 67.8258 53.5861C67.8258 53.6861 67.8258 53.8861 67.8258 53.9861C67.8258 54.8861 67.2258 55.6861 66.5258 56.1861C65.5258 56.7861 64.3258 57.4861 63.2258 56.9861Z" fill="url(#paint3_radial_588_265)" fill-opacity="0.6"/>
<path fill-rule="evenodd" clip-rule="evenodd" d="M77.4258 29.5861C77.1258 27.1861 76.3258 24.7861 75.1258 22.6861C75.1258 22.6861 75.1258 22.6861 75.1258 22.5861C74.2258 21.0861 72.9258 19.7861 71.3258 18.8861C69.7258 17.9861 67.8258 17.4861 65.9258 17.3861C63.0258 17.1861 60.0258 17.7861 57.3258 18.7861C54.3258 19.8861 51.5258 21.5861 48.9258 23.5861C45.9258 25.8861 43.2258 28.7861 41.0258 31.8861C39.7258 33.6861 38.5258 35.4861 37.5258 37.3861C36.8258 38.6861 36.2258 39.9861 35.5258 41.2861C35.1258 42.1861 34.6258 43.0861 34.2258 43.9861C32.2258 47.8861 30.1258 51.6861 27.6258 55.2861C26.6258 56.6861 25.6258 57.9861 24.5258 59.2861C23.0258 60.8861 21.4258 62.4861 19.5258 63.4861C18.0258 64.2861 16.4258 64.6861 14.7258 64.2861C12.8258 63.7861 11.5258 62.5861 10.9258 60.6861C10.4258 59.1861 10.3258 57.5861 10.3258 55.9861C10.3258 54.1861 10.6258 52.3861 11.0258 50.6861C11.5258 48.5861 12.1258 46.4861 12.8258 44.3861C13.3258 44.1861 13.7258 43.7861 13.9258 43.2861C14.2258 42.3861 14.5258 41.5861 14.9258 40.6861C16.1258 40.6861 17.2258 40.6861 18.4258 40.3861C19.6258 40.0861 20.9258 39.5861 22.1258 39.0861C22.4258 38.8861 22.7258 38.5861 22.8258 38.2861C22.8258 38.2861 23.0258 38.2861 23.0258 38.1861C25.8258 36.4861 28.3258 34.3861 30.6258 32.0861C32.5258 30.0861 34.3258 27.9861 35.9258 25.6861C37.0258 24.1861 38.0258 22.5861 38.9258 20.8861C39.8258 19.2861 40.6258 17.2861 40.5258 15.3861C40.3258 12.0861 37.7258 9.88606 34.9258 8.28606V8.08606C34.9258 7.48606 34.9258 6.88606 34.5258 6.48606C34.0258 5.98606 33.3258 5.98606 32.7258 6.18606C30.9258 6.68606 28.9258 9.48606 30.8258 11.0861C31.6258 11.7861 32.5258 11.6861 33.2258 11.0861C35.2258 12.1861 37.4258 13.7861 37.1258 16.2861C36.9258 17.5861 36.2258 18.8861 35.5258 20.0861C34.7258 21.3861 33.9258 22.6861 33.0258 23.9861C31.5258 25.9861 29.9258 27.8861 28.2258 29.6861C26.3258 31.6861 24.1258 33.4861 21.8258 34.9861C21.8258 34.9861 21.8258 34.9861 21.7258 34.9861C21.5258 34.8861 21.3258 34.6861 21.0258 34.6861C20.5258 34.5861 20.1258 34.7861 19.7258 34.9861C19.2258 35.1861 18.6258 35.3861 18.1258 35.5861C17.1258 35.8861 16.0258 36.0861 14.9258 35.9861C12.9258 35.8861 11.3258 34.6861 10.2258 33.1861C9.92584 32.7861 9.72584 32.4861 9.22584 32.3861C9.02584 32.3861 8.92584 32.3861 8.72584 32.3861C7.92584 30.6861 7.32584 28.8861 6.82584 27.1861C6.02584 23.9861 5.52584 20.7861 5.32584 17.4861C5.22584 15.7861 5.12584 14.1861 5.12584 12.4861C5.12584 10.9861 5.12584 9.38606 5.62584 7.88606C5.92584 6.88606 6.52584 6.08606 7.42584 5.68606C8.72584 5.18606 10.2258 5.38606 11.6258 5.58606C11.9258 5.58606 12.2258 5.58606 12.6258 5.68606C12.6258 6.18606 12.6258 6.78606 13.0258 7.18606C13.5258 7.68606 14.2258 7.68606 14.8258 7.48606C16.6258 6.98606 18.7258 4.08606 16.8258 2.58606C15.9258 1.78606 15.0258 1.98606 14.2258 2.58606C10.8258 1.88606 6.52584 1.18606 4.02584 3.98606C1.72584 6.58606 1.82584 10.4861 1.82584 13.6861C1.82584 16.6861 2.12584 19.5861 2.62584 22.5861C3.12584 25.8861 3.82584 29.1861 5.12584 32.1861C5.52584 32.9861 5.92584 33.8861 6.32584 34.6861C6.32584 34.6861 6.32584 34.7861 6.32584 34.8861C6.32584 35.4861 6.52584 35.8861 6.92584 36.2861C7.32584 36.6861 7.62584 37.0861 8.02584 37.4861C8.72584 38.1861 9.52584 38.7861 10.4258 39.2861C10.1258 39.9861 9.82584 40.6861 9.62584 41.4861C9.52584 41.8861 9.32584 42.1861 9.42584 42.6861C9.42584 42.8861 9.52584 43.0861 9.62584 43.2861C8.82584 45.4861 8.22584 47.7861 7.72584 50.0861C7.22584 52.2861 6.92584 54.6861 6.92584 56.9861C6.92584 59.0861 7.22584 61.1861 8.12584 63.0861C9.22584 65.2861 11.1258 66.8861 13.5258 67.5861C15.2258 68.0861 16.9258 67.9861 18.5258 67.5861C21.4258 66.6861 23.9258 64.6861 26.0258 62.4861C29.1258 59.1861 31.7258 55.3861 33.9258 51.4861C35.4258 48.9861 36.7258 46.3861 38.0258 43.6861C38.1258 43.4861 38.2258 43.1861 38.3258 42.9861C39.5258 40.5861 40.6258 38.1861 42.1258 35.9861C45.1258 31.3861 48.9258 27.2861 53.6258 24.3861C56.0258 22.8861 58.5258 21.7861 61.3258 21.1861C63.7258 20.6861 66.3258 20.5861 68.6258 21.4861C69.6258 21.8861 70.5258 22.4861 71.2258 23.2861C72.0258 24.1861 72.5258 25.1861 73.0258 26.2861C74.0258 28.7861 74.3258 31.4861 74.1258 34.0861C73.9258 37.0861 73.1258 39.9861 71.9258 42.7861C71.1258 44.5861 70.1258 46.3861 69.0258 48.0861C68.0258 47.5861 67.0258 47.2861 65.9258 47.1861C63.1258 46.8861 60.1258 47.9861 58.5258 50.4861C58.3258 50.7861 58.1258 51.0861 58.0258 51.4861C57.3258 53.0861 56.9258 54.8861 57.1258 56.6861C57.3258 58.1861 58.0258 59.6861 59.2258 60.6861C61.7258 62.8861 65.6258 62.1861 68.3258 60.7861C69.8258 60.0861 71.1258 58.9861 71.9258 57.4861C72.7258 56.0861 73.1258 54.4861 72.7258 52.8861C72.5258 51.8861 72.1258 50.9861 71.5258 50.1861C72.9258 48.2861 74.0258 46.1861 74.9258 44.0861C76.8258 39.5861 78.1258 34.4861 77.4258 29.5861ZM63.2258 56.9861C61.9258 56.2861 61.9258 54.4861 62.4258 53.2861C62.9258 52.2861 63.8258 51.6861 64.9258 51.6861C65.2258 51.6861 65.5258 51.6861 65.8258 51.6861C65.9258 51.6861 66.0258 51.6861 66.1258 51.6861C66.2258 51.6861 66.3258 51.6861 66.4258 51.7861C67.0258 52.0861 67.5258 52.5861 67.8258 53.1861C67.8258 53.1861 67.8258 53.1861 67.8258 53.2861C67.8258 53.3861 67.8258 53.4861 67.8258 53.5861C67.8258 53.6861 67.8258 53.8861 67.8258 53.9861C67.8258 54.8861 67.2258 55.6861 66.5258 56.1861C65.5258 56.7861 64.3258 57.4861 63.2258 56.9861Z" fill="url(#paint4_radial_588_265)" fill-opacity="0.8"/>
<path fill-rule="evenodd" clip-rule="evenodd" d="M77.4258 29.5861C77.1258 27.1861 76.3258 24.7861 75.1258 22.6861C75.1258 22.6861 75.1258 22.6861 75.1258 22.5861C74.2258 21.0861 72.9258 19.7861 71.3258 18.8861C69.7258 17.9861 67.8258 17.4861 65.9258 17.3861C63.0258 17.1861 60.0258 17.7861 57.3258 18.7861C54.3258 19.8861 51.5258 21.5861 48.9258 23.5861C45.9258 25.8861 43.2258 28.7861 41.0258 31.8861C39.7258 33.6861 38.5258 35.4861 37.5258 37.3861C36.8258 38.6861 36.2258 39.9861 35.5258 41.2861C35.1258 42.1861 34.6258 43.0861 34.2258 43.9861C32.2258 47.8861 30.1258 51.6861 27.6258 55.2861C26.6258 56.6861 25.6258 57.9861 24.5258 59.2861C23.0258 60.8861 21.4258 62.4861 19.5258 63.4861C18.0258 64.2861 16.4258 64.6861 14.7258 64.2861C12.8258 63.7861 11.5258 62.5861 10.9258 60.6861C10.4258 59.1861 10.3258 57.5861 10.3258 55.9861C10.3258 54.1861 10.6258 52.3861 11.0258 50.6861C11.5258 48.5861 12.1258 46.4861 12.8258 44.3861C13.3258 44.1861 13.7258 43.7861 13.9258 43.2861C14.2258 42.3861 14.5258 41.5861 14.9258 40.6861C16.1258 40.6861 17.2258 40.6861 18.4258 40.3861C19.6258 40.0861 20.9258 39.5861 22.1258 39.0861C22.4258 38.8861 22.7258 38.5861 22.8258 38.2861C22.8258 38.2861 23.0258 38.2861 23.0258 38.1861C25.8258 36.4861 28.3258 34.3861 30.6258 32.0861C32.5258 30.0861 34.3258 27.9861 35.9258 25.6861C37.0258 24.1861 38.0258 22.5861 38.9258 20.8861C39.8258 19.2861 40.6258 17.2861 40.5258 15.3861C40.3258 12.0861 37.7258 9.88606 34.9258 8.28606V8.08606C34.9258 7.48606 34.9258 6.88606 34.5258 6.48606C34.0258 5.98606 33.3258 5.98606 32.7258 6.18606C30.9258 6.68606 28.9258 9.48606 30.8258 11.0861C31.6258 11.7861 32.5258 11.6861 33.2258 11.0861C35.2258 12.1861 37.4258 13.7861 37.1258 16.2861C36.9258 17.5861 36.2258 18.8861 35.5258 20.0861C34.7258 21.3861 33.9258 22.6861 33.0258 23.9861C31.5258 25.9861 29.9258 27.8861 28.2258 29.6861C26.3258 31.6861 24.1258 33.4861 21.8258 34.9861C21.8258 34.9861 21.8258 34.9861 21.7258 34.9861C21.5258 34.8861 21.3258 34.6861 21.0258 34.6861C20.5258 34.5861 20.1258 34.7861 19.7258 34.9861C19.2258 35.1861 18.6258 35.3861 18.1258 35.5861C17.1258 35.8861 16.0258 36.0861 14.9258 35.9861C12.9258 35.8861 11.3258 34.6861 10.2258 33.1861C9.92584 32.7861 9.72584 32.4861 9.22584 32.3861C9.02584 32.3861 8.92584 32.3861 8.72584 32.3861C7.92584 30.6861 7.32584 28.8861 6.82584 27.1861C6.02584 23.9861 5.52584 20.7861 5.32584 17.4861C5.22584 15.7861 5.12584 14.1861 5.12584 12.4861C5.12584 10.9861 5.12584 9.38606 5.62584 7.88606C5.92584 6.88606 6.52584 6.08606 7.42584 5.68606C8.72584 5.18606 10.2258 5.38606 11.6258 5.58606C11.9258 5.58606 12.2258 5.58606 12.6258 5.68606C12.6258 6.18606 12.6258 6.78606 13.0258 7.18606C13.5258 7.68606 14.2258 7.68606 14.8258 7.48606C16.6258 6.98606 18.7258 4.08606 16.8258 2.58606C15.9258 1.78606 15.0258 1.98606 14.2258 2.58606C10.8258 1.88606 6.52584 1.18606 4.02584 3.98606C1.72584 6.58606 1.82584 10.4861 1.82584 13.6861C1.82584 16.6861 2.12584 19.5861 2.62584 22.5861C3.12584 25.8861 3.82584 29.1861 5.12584 32.1861C5.52584 32.9861 5.92584 33.8861 6.32584 34.6861C6.32584 34.6861 6.32584 34.7861 6.32584 34.8861C6.32584 35.4861 6.52584 35.8861 6.92584 36.2861C7.32584 36.6861 7.62584 37.0861 8.02584 37.4861C8.72584 38.1861 9.52584 38.7861 10.4258 39.2861C10.1258 39.9861 9.82584 40.6861 9.62584 41.4861C9.52584 41.8861 9.32584 42.1861 9.42584 42.6861C9.42584 42.8861 9.52584 43.0861 9.62584 43.2861C8.82584 45.4861 8.22584 47.7861 7.72584 50.0861C7.22584 52.2861 6.92584 54.6861 6.92584 56.9861C6.92584 59.0861 7.22584 61.1861 8.12584 63.0861C9.22584 65.2861 11.1258 66.8861 13.5258 67.5861C15.2258 68.0861 16.9258 67.9861 18.5258 67.5861C21.4258 66.6861 23.9258 64.6861 26.0258 62.4861C29.1258 59.1861 31.7258 55.3861 33.9258 51.4861C35.4258 48.9861 36.7258 46.3861 38.0258 43.6861C38.1258 43.4861 38.2258 43.1861 38.3258 42.9861C39.5258 40.5861 40.6258 38.1861 42.1258 35.9861C45.1258 31.3861 48.9258 27.2861 53.6258 24.3861C56.0258 22.8861 58.5258 21.7861 61.3258 21.1861C63.7258 20.6861 66.3258 20.5861 68.6258 21.4861C69.6258 21.8861 70.5258 22.4861 71.2258 23.2861C72.0258 24.1861 72.5258 25.1861 73.0258 26.2861C74.0258 28.7861 74.3258 31.4861 74.1258 34.0861C73.9258 37.0861 73.1258 39.9861 71.9258 42.7861C71.1258 44.5861 70.1258 46.3861 69.0258 48.0861C68.0258 47.5861 67.0258 47.2861 65.9258 47.1861C63.1258 46.8861 60.1258 47.9861 58.5258 50.4861C58.3258 50.7861 58.1258 51.0861 58.0258 51.4861C57.3258 53.0861 56.9258 54.8861 57.1258 56.6861C57.3258 58.1861 58.0258 59.6861 59.2258 60.6861C61.7258 62.8861 65.6258 62.1861 68.3258 60.7861C69.8258 60.0861 71.1258 58.9861 71.9258 57.4861C72.7258 56.0861 73.1258 54.4861 72.7258 52.8861C72.5258 51.8861 72.1258 50.9861 71.5258 50.1861C72.9258 48.2861 74.0258 46.1861 74.9258 44.0861C76.8258 39.5861 78.1258 34.4861 77.4258 29.5861ZM63.2258 56.9861C61.9258 56.2861 61.9258 54.4861 62.4258 53.2861C62.9258 52.2861 63.8258 51.6861 64.9258 51.6861C65.2258 51.6861 65.5258 51.6861 65.8258 51.6861C65.9258 51.6861 66.0258 51.6861 66.1258 51.6861C66.2258 51.6861 66.3258 51.6861 66.4258 51.7861C67.0258 52.0861 67.5258 52.5861 67.8258 53.1861C67.8258 53.1861 67.8258 53.1861 67.8258 53.2861C67.8258 53.3861 67.8258 53.4861 67.8258 53.5861C67.8258 53.6861 67.8258 53.8861 67.8258 53.9861C67.8258 54.8861 67.2258 55.6861 66.5258 56.1861C65.5258 56.7861 64.3258 57.4861 63.2258 56.9861Z" stroke="#0B2B4B" stroke-width="2" mask="url(#path-2-outside-1_588_265)"/>
<path d="M105.407 48.5635C104.969 48.5635 104.568 48.5458 104.201 48.5103C103.846 48.4867 103.444 48.4335 102.995 48.3507C102.546 48.268 101.978 48.1379 101.293 47.9606C101.482 47.5468 101.73 47.1035 102.037 46.6305C102.357 46.1576 102.747 45.7557 103.208 45.4246C103.669 45.0818 104.225 44.9103 104.875 44.9103C104.899 44.9103 104.922 44.9103 104.946 44.9103C104.981 44.9103 105.005 44.9103 105.017 44.9103C106.353 44.8867 107.5 44.5911 108.457 44.0236C109.415 43.4561 110.201 42.7113 110.816 41.7892C111.442 40.8551 111.903 39.8207 112.199 38.6857C112.495 37.5389 112.642 36.3744 112.642 35.1921C112.642 33.3359 112.311 31.6808 111.649 30.2266C110.999 28.7724 109.965 27.6315 108.546 26.8039C107.127 25.9645 105.277 25.5448 102.995 25.5448C102.534 25.5448 102.049 25.5684 101.541 25.6158C101.033 25.6631 100.501 25.734 99.9448 25.8286V48.1379H94.9438V22.8138C96.5281 22.4709 98.0059 22.2345 99.3773 22.1044C100.761 21.9626 101.967 21.8916 102.995 21.8916C106.14 21.8916 108.83 22.4177 111.064 23.4699C113.31 24.5104 115.025 26.0236 116.207 28.0098C117.401 29.9961 117.998 32.3901 117.998 35.1921C117.998 37.0601 117.685 38.8039 117.058 40.4236C116.432 42.0433 115.551 43.462 114.416 44.6798C113.281 45.8975 111.945 46.8492 110.408 47.535C108.883 48.2207 107.216 48.5635 105.407 48.5635ZM128.144 48.599C126.477 48.599 124.923 48.2266 123.48 47.4818C122.038 46.7251 120.868 45.6315 119.969 44.201C119.082 42.7586 118.639 41.0089 118.639 38.9517C118.639 37.2847 118.935 35.8483 119.526 34.6424C120.129 33.4246 120.909 32.4256 121.867 31.6453C122.824 30.865 123.853 30.2857 124.952 29.9074C126.064 29.5291 127.128 29.3399 128.144 29.3399C130.024 29.3399 131.673 29.7478 133.092 30.5635C134.523 31.3793 135.64 32.5143 136.444 33.9685C137.248 35.4108 137.65 37.0719 137.65 38.9517C137.65 40.4532 137.378 41.801 136.834 42.9951C136.29 44.1891 135.563 45.2059 134.653 46.0453C133.742 46.8729 132.72 47.5054 131.585 47.9428C130.462 48.3803 129.315 48.599 128.144 48.599ZM128.144 44.9813C129.067 44.9813 129.841 44.7094 130.468 44.1655C131.094 43.6217 131.567 42.8946 131.886 41.9842C132.205 41.0739 132.365 40.0631 132.365 38.9517C132.365 37.8522 132.205 36.8473 131.886 35.9369C131.567 35.0266 131.094 34.3054 130.468 33.7734C129.841 33.2295 129.067 32.9576 128.144 32.9576C127.222 32.9576 126.442 33.2295 125.803 33.7734C125.177 34.3054 124.698 35.0266 124.367 35.9369C124.048 36.8473 123.888 37.8522 123.888 38.9517C123.888 40.7251 124.272 42.1734 125.041 43.2965C125.821 44.4197 126.856 44.9813 128.144 44.9813ZM148.161 48.599C146.517 48.599 144.969 48.268 143.515 47.6059C142.072 46.9438 140.901 45.9034 140.003 44.4847C139.105 43.066 138.655 41.2217 138.655 38.9517C138.655 36.8118 139.105 35.0325 140.003 33.6138C140.901 32.1832 142.072 31.1133 143.515 30.4039C144.969 29.6946 146.517 29.3399 148.161 29.3399C148.799 29.3399 149.497 29.4049 150.254 29.535C151.01 29.6532 151.743 29.8483 152.453 30.1202L151.247 33.4187C150.679 33.2768 150.117 33.1704 149.562 33.0995C149.018 33.0286 148.551 32.9931 148.161 32.9931C147.31 32.9931 146.565 33.2355 145.926 33.7202C145.288 34.1931 144.791 34.8788 144.437 35.7773C144.082 36.664 143.905 37.7222 143.905 38.9517C143.905 40.1931 144.082 41.263 144.437 42.1616C144.791 43.0483 145.288 43.734 145.926 44.2187C146.565 44.7034 147.31 44.9458 148.161 44.9458C148.657 44.9458 149.189 44.8808 149.757 44.7507C150.324 44.6089 150.986 44.3902 151.743 44.0946L152.949 47.3576C152.027 47.7832 151.158 48.0966 150.342 48.2975C149.526 48.4985 148.799 48.599 148.161 48.599Z" fill="url(#paint5_linear_588_265)"/>
<path d="M155.24 48.1377L164.497 22.3525H169.462L178.719 48.1377H173.47L167.086 28.9496L166.802 27.6372L166.483 29.0205L163.468 38.2067L163.042 38.9161L163.574 38.8451H166.27C166.956 38.8451 167.529 39.0402 167.99 39.4303C168.463 39.8205 168.841 40.2993 169.125 40.8668C169.421 41.4343 169.651 41.9781 169.817 42.4983H162.12L160.24 48.1377H155.24ZM188.994 48.3931C185.589 48.3931 182.833 47.4035 180.726 45.4244C178.641 43.4453 177.598 40.7746 177.598 37.4122C177.598 34.0498 178.673 31.3472 180.822 29.3042C182.993 27.2613 185.727 26.2398 189.026 26.2398C191.473 26.2398 193.569 26.6973 195.314 27.6124V31.7302C193.356 30.5598 191.292 29.9746 189.122 29.9746C186.951 29.9746 185.206 30.6449 183.887 31.9856C182.567 33.3263 181.907 35.1245 181.907 37.3803C181.907 39.6361 182.546 41.4236 183.823 42.7431C185.121 44.0412 186.898 44.6902 189.154 44.6902C190.26 44.6902 191.335 44.4987 192.378 44.1157V39.0402H188.419V35.5927H196.336V45.9352H196.304L196.336 46.2863C194.378 47.6908 191.931 48.3931 188.994 48.3931ZM211.829 48.1377H198.996V26.6229H211.701V29.9107H203.05V35.7523H210.743V39.0083H203.05V44.8498H211.829V48.1377ZM218.287 48.1377H214.265V26.6229H218.83C223.171 34.1775 225.661 38.5614 226.299 39.7744C226.959 40.9874 227.523 42.1259 227.991 43.1899C227.821 41.4236 227.736 38.8912 227.736 35.5927V26.6229H231.79V48.1377H227.193L221.958 39.1998C220.298 36.3907 218.957 33.8158 217.936 31.4749C218.17 33.4965 218.287 36.0609 218.287 39.1679V48.1377ZM241.541 30.0065H238.764V44.786H241.605C243.861 44.786 245.574 44.0944 246.744 42.7111C247.915 41.3066 248.5 39.5084 248.5 37.3164C248.5 35.1032 247.872 33.3369 246.617 32.0175C245.382 30.6768 243.69 30.0065 241.541 30.0065ZM241.669 48.1377H234.646V26.6229H241.669C244.882 26.6229 247.51 27.6124 249.553 29.5915C251.596 31.5706 252.618 34.1456 252.618 37.3164C252.618 40.466 251.628 43.0623 249.649 45.1052C247.67 47.1269 245.01 48.1377 241.669 48.1377Z" fill="white"/>
<path d="M251.597 48.138L259.234 26.8652H263.331L270.968 48.138H266.637L261.37 32.3078L261.136 31.2251L260.873 32.3663L258.386 39.9449L258.035 40.5302L258.474 40.4716H260.697C261.263 40.4716 261.736 40.6326 262.117 40.9544C262.507 41.2763 262.819 41.6713 263.053 42.1395C263.297 42.6077 263.487 43.0564 263.623 43.4855H257.274L255.723 48.138H251.597Z" fill="white"/>
<defs>
<linearGradient id="paint0_linear_588_265" x1="33.5" y1="11" x2="33.5" y2="57" gradientUnits="userSpaceOnUse">
<stop stop-color="#E8E9EC"/>
<stop offset="1" stop-color="#B0EFEB" stop-opacity="0.34"/>
</linearGradient>
<linearGradient id="paint1_linear_588_265" x1="33.5" y1="11" x2="33.5" y2="57" gradientUnits="userSpaceOnUse">
<stop stop-color="#E8E9EC"/>
<stop offset="1" stop-color="#B0EFEB" stop-opacity="0.34"/>
</linearGradient>
<linearGradient id="paint2_linear_588_265" x1="33.5" y1="11" x2="33.5" y2="57" gradientUnits="userSpaceOnUse">
<stop stop-color="#E8E9EC"/>
<stop offset="1" stop-color="#B0EFEB" stop-opacity="0.34"/>
</linearGradient>
<radialGradient id="paint3_radial_588_265" cx="0" cy="0" r="1" gradientUnits="userSpaceOnUse" gradientTransform="translate(39.722 50.0043) rotate(37.3935) scale(50.9874 45.9992)">
<stop stop-color="#B8C3DE"/>
<stop offset="1" stop-color="#00ACBD" stop-opacity="0.1"/>
</radialGradient>
<radialGradient id="paint4_radial_588_265" cx="0" cy="0" r="1" gradientUnits="userSpaceOnUse" gradientTransform="translate(0.730535 18.4165) rotate(125.196) scale(34.4624 30.1175)">
<stop stop-color="#B8C3DE"/>
<stop offset="1" stop-color="#00ACBD" stop-opacity="0"/>
</radialGradient>
<linearGradient id="paint5_linear_588_265" x1="94.9438" y1="35.2453" x2="152.949" y2="35.2453" gradientUnits="userSpaceOnUse">
<stop stop-color="#9FE9F2"/>
<stop offset="0.480769" stop-color="#9FE9F2"/>
<stop offset="1" stop-color="#CDF3F8"/>
</linearGradient>
</defs>
</svg>
