<svg width="140" height="140" viewBox="0 0 140 140" fill="none" xmlns="http://www.w3.org/2000/svg">
<path d="M85.2602 45.96C85.2702 47.46 84.1502 49.29 82.7802 50.04L31.1302 78.37C30.4102 78.76 29.7502 78.77 29.3002 78.49L26.7102 77.07C26.2602 76.82 25.9802 76.3 25.9802 75.55L25.8702 38.73C25.8602 37.23 26.9802 35.4 28.3602 34.64L80.0002 6.32003C80.6902 5.95003 81.3202 5.91003 81.7802 6.16003L84.4102 7.61003L84.4202 7.62003H84.4302C84.8702 7.87003 85.1502 8.39003 85.1502 9.14003L85.2602 45.96Z" fill="#9EA9C9"/>
<path d="M84.4282 7.62388C83.9762 7.37388 83.3482 7.40988 82.6552 7.78688L31.0052 36.1099C29.6292 36.8649 28.5182 38.6959 28.5182 40.1959L28.6302 77.0129C28.6302 77.7569 28.9102 78.2829 29.3562 78.5329L26.7072 77.0689C26.2612 76.8239 25.9822 76.2989 25.9822 75.5489L25.8692 38.7319C25.8642 37.2319 26.9812 35.3999 28.3562 34.6449L80.0012 6.32288C80.6942 5.94488 81.3232 5.90988 81.7792 6.15988L84.4282 7.62388Z" fill="#9EA9C9"/>
<path d="M82.653 7.78802C84.029 7.03402 85.15 7.63802 85.155 9.13802L85.265 45.955C85.269 47.46 84.155 49.289 82.779 50.044L31.131 78.365C29.756 79.119 28.634 78.515 28.63 77.011L28.52 40.194C28.515 38.694 29.63 36.864 31.005 36.109L82.653 7.78802Z" fill="#1D2943"/>
<path d="M81.2831 10.3249C81.9691 9.94889 82.5301 10.2529 82.5331 11.0009L82.6381 46.4599C82.6411 47.2079 82.0831 48.1249 81.3981 48.5009L33.0381 75.0189C32.3481 75.3969 31.7911 75.0909 31.7891 74.3429L31.6831 38.8849C31.6811 38.1359 32.2351 37.2209 32.9241 36.8429L81.2831 10.3249Z" fill="white"/>
<path d="M83.8838 24.5798C84.1138 24.4548 84.2998 24.5588 84.2998 24.8098L84.3198 31.6628C84.3208 31.9138 84.1368 32.2178 83.9068 32.3428C83.6768 32.4698 83.4878 32.3708 83.4868 32.1198L83.4668 25.2668C83.4668 25.0158 83.6538 24.7058 83.8838 24.5798Z" fill="#4C5C75"/>
<path d="M42.3132 40.7281L33.9002 45.5851L33.9042 47.0851L42.3122 42.2301L42.3132 40.7281ZM49.1582 56.0801L33.9552 64.8581L33.9602 66.3571L49.1582 57.5821V56.0801ZM49.1582 60.9061L33.9702 69.6751L33.9742 71.1771L49.1592 62.4101L49.1582 60.9061ZM42.3132 55.2041L33.9422 60.0371L33.9462 61.5401L42.3132 56.7101V55.2041ZM42.3132 50.3791L33.9282 55.2191L33.9322 56.7221L42.3122 51.8841L42.3132 50.3791ZM42.3132 45.5541L33.9142 50.4021L33.9192 51.9051L42.3132 47.0581V45.5541ZM46.9562 33.2221L33.8872 40.7671L33.8912 42.2671L46.9562 34.7241V33.2221ZM72.8692 23.1601V24.6621L81.2852 19.8021V18.3011L72.8692 23.1601ZM81.2852 37.6051L68.1002 45.1871L68.1042 46.6871L81.2842 39.1071L81.2852 37.6051ZM81.2852 42.4301L68.1152 50.0051L68.1192 51.5071L81.2852 43.9351V42.4301ZM72.8692 37.6361V39.1401L81.2852 34.2821V32.7771L72.8692 37.6361ZM72.8692 32.8101V34.3151L81.2852 29.4561V27.9521L72.8692 32.8101ZM72.8692 27.9851V29.4901L81.2852 24.6301V23.1261L72.8692 27.9851ZM81.2852 13.4751L66.0062 22.2961L66.0102 23.7961L81.2852 14.9771V13.4751Z" fill="#E9E7FC"/>
<path d="M68.3948 31.7771C68.4018 34.6471 67.5108 37.7791 66.0068 40.6931C63.9558 44.6651 60.7758 48.2431 57.1998 50.2031C53.5918 52.1781 50.3798 52.0901 48.3138 50.3351C46.8238 49.0701 45.9328 46.9401 45.9258 44.1011C45.9058 37.3341 50.9198 29.0831 57.1278 25.6811C63.3278 22.2781 68.3758 25.0111 68.3948 31.7771Z" fill="#25B3C6"/>
<path d="M58.9701 41.6221L58.8901 42.1611C58.4581 43.3711 57.7951 44.2241 57.1441 44.5811C56.5991 44.8801 56.0631 44.8311 55.6791 44.3561L55.5361 43.5261C56.8601 43.4401 58.0421 42.5681 58.9701 41.6221Z" fill="#F5C9C6"/>
<path d="M65.9999 39.2338C65.9929 37.0848 64.6079 36.4638 62.7599 37.1418C62.7469 37.1418 62.7339 37.1478 62.7199 37.1538L62.3649 37.3038L62.3379 37.3168C62.3319 37.3168 62.3319 37.3228 62.3249 37.3228C61.6679 37.6348 61.9499 37.5158 61.5989 37.7048H61.5929V37.7118L60.7289 39.9858L61.4279 40.4368L58.0379 47.9308L56.5859 48.3128L56.5199 48.3438L53.0169 45.0488L53.7099 43.8328L52.8319 42.5108L52.4169 42.7368C52.1329 42.8868 51.3809 43.3758 51.1629 43.5828H51.1569C50.5604 44.0714 50.0302 44.6359 49.5799 45.2618C47.8669 47.6818 48.4099 49.5438 48.3129 50.3368C50.3779 52.0908 53.5909 52.1788 57.1989 50.2048C60.7749 48.2448 63.9549 44.6668 66.0059 40.6948L65.9999 39.2338Z" fill="#DEDFFB"/>
<path d="M64.0382 39.8941C64.0542 40.6861 62.9291 41.2511 62.9291 40.4661C62.9291 40.1861 63.1151 39.8391 63.3711 39.6441C63.4671 37.9521 62.6151 37.4471 62.3531 37.3321L62.3271 37.3201C62.3331 37.3201 62.3331 37.3131 62.3401 37.3131L62.3652 37.3011L62.7251 37.1551C62.7371 37.1491 62.7501 37.1431 62.7631 37.1431C63.1341 37.3931 63.7301 38.0321 63.6531 39.5161C63.8611 39.4761 64.0382 39.6041 64.0382 39.8941Z" fill="#4C5C75"/>
<path d="M59.28 37.8399C59.29 38.1979 59.32 38.5599 59.367 38.9249L58.969 41.6219C58.04 42.5679 56.859 43.4399 55.536 43.5259L55.144 41.2419C55.18 40.8599 55.197 40.4939 55.196 40.1419C56.597 40.4219 58.424 38.9979 59.28 37.8399Z" fill="#F5C9C6"/>
<path d="M50.6398 46.8849C49.5338 48.0649 49.3628 49.5439 49.7498 50.3959C49.7818 50.4629 49.8398 50.4939 49.9168 50.4879C49.9579 50.4869 49.9979 50.474 50.0318 50.4509C50.1388 50.4009 50.1718 50.3329 50.2818 50.2259C50.4858 50.5959 51.1278 50.0869 51.1278 49.5689C51.1278 48.9639 50.2978 49.3579 50.2498 50.0009L50.0638 50.1889C50.0508 50.1949 50.0448 50.2079 50.0318 50.2139C50.0018 50.2279 49.9798 50.2389 49.9488 50.1949C49.8208 49.9149 49.7888 49.3309 49.7818 49.3009C49.7818 47.3969 51.6098 45.8849 52.5818 46.7029C52.5888 46.7029 52.9538 47.0859 53.0308 47.4029C53.0368 47.4209 53.0238 47.4569 53.0048 47.4749L52.6008 47.8099C52.5431 47.7895 52.4816 47.7822 52.4207 47.7886C52.3598 47.795 52.3011 47.8149 52.2488 47.8469C51.6488 48.1769 51.6758 49.1289 52.2488 48.8139C52.5018 48.6739 52.7418 48.2939 52.6788 47.9929C52.8408 47.8209 53.3258 47.5819 53.2418 47.2329C53.1588 46.8729 52.7808 46.4829 52.7618 46.4649C52.1918 45.9869 51.4188 46.2409 50.8588 46.6969L50.6398 46.8849Z" fill="white"/>
<path d="M52.7462 48.0191C52.8052 48.1851 52.6342 48.6681 52.2782 48.8711C51.5932 49.2111 51.5682 48.1401 52.2182 47.7931C52.2696 47.7601 52.328 47.7394 52.3887 47.7328C52.4494 47.7262 52.5109 47.7339 52.5682 47.7551L52.9582 47.4301C52.9582 47.4301 52.9642 47.4231 52.9642 47.4171C52.9092 47.1601 52.6462 46.8651 52.5352 46.7471C51.8182 46.1401 50.9472 46.9841 50.8472 47.0351C50.7832 47.1351 49.8442 47.9081 49.8442 49.3031C49.8722 49.6031 49.9162 49.9601 50.0022 50.1611C50.0097 50.1536 50.0185 50.1475 50.0282 50.1431L50.1872 49.9731C50.2792 49.2211 51.1902 48.9271 51.1902 49.5661C51.1902 49.9591 50.7632 50.5151 50.4052 50.3931C50.3546 50.3858 50.308 50.3615 50.2732 50.3241C50.1722 50.4201 50.1562 50.4641 50.0552 50.5061C50.0061 50.5376 49.9484 50.553 49.8902 50.5501C49.8477 50.5507 49.806 50.5384 49.7707 50.5149C49.7353 50.4913 49.708 50.4575 49.6922 50.4181C49.3222 49.6211 49.4432 48.0901 50.5762 46.8661C50.4902 45.6381 50.8862 44.3221 51.1562 43.5831H51.1632C51.2612 43.4891 51.5932 43.2511 51.6382 43.2251C51.2232 44.1951 50.8732 45.5141 50.9192 46.5781C51.4722 46.1401 52.2452 45.9471 52.8062 46.4211C52.8122 46.4271 53.2152 46.8341 53.3072 47.2231C53.4042 47.6051 52.8632 47.8951 52.7472 48.0191H52.7462Z" fill="#4C5C75"/>
<path d="M55.0548 31.7699C55.0968 31.8129 55.8848 32.6199 58.1288 31.4659C58.1328 31.4629 58.2148 31.4079 58.3558 31.3269C59.3518 30.7589 60.3058 30.9769 60.5588 32.0019C60.9158 33.9239 60.5518 36.1189 59.2798 37.8389C58.4268 38.9929 56.5998 40.4219 55.1958 40.1429C54.2888 39.9629 53.6938 39.0579 53.6878 37.2319C53.6828 35.3919 53.7138 33.0449 55.0548 31.7699Z" fill="#F4D6D4"/>
<path d="M57.726 27.0889C59.878 25.9089 61.599 27.0349 61.477 29.5119C61.435 30.3649 61.223 31.6159 60.684 33.0519C60.676 32.9519 60.602 32.1769 60.559 32.0019C60.308 30.9819 59.36 30.7539 58.356 31.3269C58.216 31.4069 58.133 31.4629 58.129 31.4659C55.884 32.6189 55.097 31.8129 55.055 31.7699C53.417 33.3279 53.721 36.7439 53.688 36.9559C53.688 36.9589 50.46 33.3459 54.721 29.9259C55.352 29.4169 56.056 28.0049 57.726 27.0889Z" fill="#3B475A"/>
<path d="M57.1442 44.5802C57.7942 44.2242 58.4582 43.3712 58.8902 42.1602L58.0382 47.9292L57.7452 49.9122L55.6792 44.3562C56.0632 44.8312 56.5992 44.8792 57.1442 44.5802Z" fill="#DEDFFB"/>
<path d="M61.5981 37.7012L60.7321 39.9842L61.4321 40.4332L57.7451 49.9132L58.8901 42.1612L58.9701 41.6212L59.3671 38.9252L61.5981 37.7012Z" fill="#2C469F"/>
<path d="M55.144 41.2402L55.536 43.5262L57.746 49.9122L53.016 45.0482L53.711 43.8342L52.833 42.5082L55.144 41.2402Z" fill="#2C469F"/>
<path d="M72.807 11.8729C72.809 11.8629 72.82 11.8509 72.82 11.8399L72.81 12.3399C72.81 12.4399 72.74 12.5499 72.6 12.6299L70.27 13.9799C70 14.1399 69.54 14.1499 69.25 13.9799C69.11 13.8999 69.04 13.7899 69.04 13.6799V13.1899C69.04 13.0799 69.11 12.9699 69.25 12.8899L71.57 11.5399C71.85 11.3699 72.31 11.3699 72.6 11.5399C72.758 11.6299 72.825 11.7539 72.807 11.8729ZM78.25 8.67994V9.17994C78.25 9.27994 78.18 9.38994 78.04 9.46994L75.17 11.1399C74.89 11.2999 74.43 11.3099 74.14 11.1399C74 11.0599 73.93 10.9499 73.93 10.8399V10.3399C73.93 10.2299 74 10.1199 74.14 10.0399L77.01 8.37994C77.29 8.20994 77.75 8.20994 78.04 8.37994C78.18 8.45994 78.25 8.56994 78.25 8.67994Z" fill="#111D33"/>
<path d="M78.2531 8.67676L78.2461 9.17676C78.2461 9.28176 78.1801 9.39376 78.0361 9.47276L75.1671 11.1358C74.8911 11.3008 74.4311 11.3068 74.1421 11.1358C74.0041 11.0568 73.9321 10.9458 73.9321 10.8408V10.3408C73.9321 10.4458 74.0041 10.5578 74.1491 10.6368C74.4311 10.8008 74.8911 10.8008 75.1741 10.6368L78.0361 8.97276C78.1801 8.88776 78.2531 8.78276 78.2531 8.67676Z" fill="#111D33"/>
<path d="M78.0361 8.37777C78.3211 8.54277 78.3201 8.80777 78.0391 8.97177L75.1711 10.6378C74.8901 10.8018 74.4311 10.8028 74.1461 10.6378C73.8601 10.4728 73.8611 10.2078 74.1431 10.0438L77.0101 8.37777C77.2921 8.21377 77.7501 8.21277 78.0361 8.37777Z" fill="#4C5C75"/>
<path d="M72.8151 11.8369L72.8091 12.3369C72.8091 12.4419 72.7431 12.5529 72.5991 12.6319L70.2741 13.9799C69.9981 14.1439 69.5381 14.1509 69.2491 13.9799C69.1111 13.9009 69.0391 13.7899 69.0391 13.6839V13.1839C69.0391 13.2899 69.1111 13.4019 69.2551 13.4809C69.5381 13.6449 69.9981 13.6449 70.2801 13.4809L72.5991 12.1329C72.7431 12.0469 72.8151 11.9429 72.8151 11.8369Z" fill="#111D33"/>
<path d="M72.5982 11.5369C72.8842 11.7019 72.8832 11.9669 72.6022 12.1309L70.2782 13.4819C69.9962 13.6459 69.5382 13.6469 69.2522 13.4819C68.9672 13.3169 68.9672 13.0519 69.2492 12.8879L71.5732 11.5379C71.8542 11.3739 72.3132 11.3729 72.5982 11.5379V11.5369Z" fill="#4C5C75"/>
<path d="M110.8 121.96L109.9 127.36C109.6 127.36 109.2 127.36 108.9 127.26C109 125.56 109.1 123.76 109.2 122.06C108.3 123.46 107.9 124.66 106.4 125.86C104.9 127.06 99.4002 125.76 98.8002 124.16C98.2002 122.56 100.8 122.96 101.4 122.76C102 122.76 101.9 124.06 102.6 123.66C103.3 123.36 104.1 122.56 105 121.46C105.9 120.36 107.3 117.46 108.3 116.06C108.8 115.86 109.3 115.76 109.8 115.56C111.5 117.46 112 119.46 110.8 121.96Z" fill="#1D2943"/>
<path d="M109.7 115.66C107.7 116.86 106.5 120.76 105.5 122.76C104.5 124.76 102.7 124.46 101.5 123.96C100.3 123.46 101.4 123.36 101.4 122.76C103.9 122.46 104.8 118.96 104.8 117.66C104.4 107.26 102.8 98.3597 100.3 88.6597L101.8 89.2597C103.9 90.1597 106 90.8597 108.1 91.9597C108.5 92.6597 108.9 93.5597 109.1 94.5597C109.2 94.7597 109.2 94.9597 109.3 95.1597C110.5 100.46 109.5 107.96 109.1 111.16C108.5 115.16 109.4 112.86 109.7 115.66Z" fill="#F5C9C6"/>
<path d="M102.5 128.96L101.6 134.36C101.3 134.36 100.9 134.36 100.6 134.26C100.7 132.56 100.8 130.76 100.9 129.06C99.9999 130.46 99.5999 131.66 98.0999 132.86C96.5999 134.06 91.0999 132.76 90.4999 131.16C89.8999 129.56 92.4999 129.96 93.0999 129.76C93.6999 129.76 93.5999 131.06 94.2999 130.66C94.9999 130.36 95.7999 129.56 96.6999 128.46C97.5999 127.36 98.9999 124.46 99.9999 123.06C100.5 122.86 101 122.76 101.5 122.56C103.3 124.46 103.8 126.56 102.5 128.96Z" fill="#1D2943"/>
<path d="M101.4 122.66C99.4 123.86 98.2 127.76 97.2 129.76C96.2 131.76 94.4 131.46 93.2 130.96C92 130.46 93.1 130.36 93.1 129.76C95.6 129.46 96.5 125.96 96.5 124.66C96.1 114.26 94.5 105.36 92 95.6597L93.5 96.2597C95.6 97.1597 97.7 97.8597 99.8 98.9597C100.2 99.6597 100.6 100.56 100.8 101.56C100.9 101.76 100.9 101.96 101 102.16C102.2 107.46 101.2 114.96 100.8 118.16C100.2 122.16 101.2 119.96 101.4 122.66Z" fill="#F5C9C6"/>
<path d="M111.4 41.9595C112.2 44.8595 112.2 54.2595 108.6 53.8595C104.9 53.3595 104.7 49.9595 104.1 47.3595C105.2 45.9595 106.2 44.7595 107.3 43.4595C108.7 42.9595 110.1 42.3595 111.4 41.9595ZM110.1 76.0595L109.3 78.0595C109 79.0595 108.8 79.7595 108.7 80.8595C108.4 84.5595 108.7 88.8595 108.8 92.4595C108.8 93.5595 108.3 94.0595 108 94.4595C107.7 94.8595 107.3 95.1595 107.1 95.2595C103.7 97.1595 95.3001 102.659 92.4001 96.7595C91.8001 95.6595 91.4001 94.3595 91.2001 92.9595C90.1001 86.9595 91.2001 79.0595 90.6001 73.5595C94.7001 71.1595 105.6 64.6595 109.4 67.7595L109.9 68.2595C112 70.7595 110.1 76.0595 110.1 76.0595Z" fill="#0D8C9C"/>
<path d="M108.4 53.4596C108.4 52.7596 108.7 52.0596 109 51.2596C110.1 47.5596 115 38.4596 108.1 37.1596C107.8 37.0596 107.5 37.0596 107.2 37.0596C106.6 37.8596 105.9 38.5596 105.2 38.9596C103.9 39.6596 101.7 40.1596 100.3 39.6596C100.1 39.6596 99.8003 39.7596 99.6003 39.7596C98.1003 40.8596 96.0003 42.3596 94.7003 43.5596C94.9003 49.4596 93.7003 60.2596 92.4003 64.7596C91.1003 69.2596 90.4003 70.0596 90.8003 73.4596C96.2003 75.1596 100.7 75.2596 105.6 72.1596C107 71.2596 109.2 70.0596 110.6 69.0596C109.3 64.1596 108.2 58.4596 108.4 53.4596Z" fill="#25B3C6"/>
<path d="M73 44.4595C77.1 41.9595 81.1 39.4595 85.2 36.9595C89.4 40.4595 93.5 43.9595 97.7 47.4595C93.8 49.9595 89.9 52.5595 86 55.0595C81.7 51.6595 77.3 48.0595 73 44.4595Z" fill="#4C5C75"/>
<path d="M74.2002 44.5594C77.8002 42.3594 81.5002 40.0594 85.1002 37.8594L96.5002 47.4594C93.0002 49.7594 89.5002 52.0594 86.1002 54.2594C82.1002 51.0594 78.2002 47.8594 74.2002 44.5594Z" fill="white"/>
<path d="M92.6002 45.5597C90.7002 46.7597 85.9002 49.7597 83.9002 50.8597C83.7002 50.6597 83.4002 50.4597 83.2002 50.2597C85.1002 49.0597 89.9002 46.0597 91.9002 44.9597C92.1002 45.1597 92.3002 45.3597 92.6002 45.5597ZM90.8002 44.1597C88.9002 45.3597 84.1002 48.3597 82.1002 49.4597C81.9002 49.2597 81.6002 49.0597 81.4002 48.8597C83.3002 47.6597 88.1002 44.6597 90.1002 43.5597C90.4002 43.7597 90.6002 43.9597 90.8002 44.1597ZM89.1002 42.7597C87.2002 43.9597 82.4002 46.9597 80.4002 48.0597C80.2002 47.8597 79.9002 47.6597 79.7002 47.4597C81.6002 46.2597 86.4002 43.2597 88.4002 42.1597C88.6002 42.4597 88.8002 42.5597 89.1002 42.7597Z" fill="#E3E7F0"/>
<path d="M90.7999 44.1596C88.8999 45.3596 84.0999 48.3596 82.0999 49.4596C81.8999 49.2596 81.5999 49.0596 81.3999 48.8596C83.2999 47.6596 88.0999 44.6596 90.0999 43.5596C90.3999 43.7596 90.5999 43.9596 90.7999 44.1596Z" fill="#E3E7F0"/>
<path d="M85.5999 54.9595C84.9999 55.2595 84.4999 55.6595 83.8999 55.9595C82.6999 55.0595 80.8999 54.1594 79.7999 53.1594C78.6999 52.1594 78.9999 50.5594 78.8999 49.2594C80.1999 50.2594 81.3999 51.1594 82.5999 52.1594C82.4999 51.6594 82.2999 51.2594 81.9999 50.7594C81.6999 50.2594 81.8999 48.8594 82.6999 49.0594C83.4999 49.2594 83.3999 50.2594 83.9999 50.6594C84.6999 51.0594 85.1999 51.7595 85.3999 52.4595C85.5999 53.4595 85.4999 54.2595 85.5999 54.9595Z" fill="#F4D6D4"/>
<path d="M94.5002 46.9595C91.6002 48.7595 88.6002 50.5595 85.7002 52.2595C85.5002 52.0595 85.2002 51.8595 85.0002 51.6595C87.9002 49.8595 90.9002 48.0595 93.8002 46.3595C94.0002 46.5595 94.3002 46.7595 94.5002 46.9595ZM82.4002 42.0595C82.2002 41.8595 81.9002 41.6595 81.7002 41.4595C83.7002 40.2595 83.0002 40.6595 85.0002 39.4595C85.2002 39.6595 85.5002 39.8595 85.7002 40.0595C83.7002 41.1595 84.4002 40.8595 82.4002 42.0595Z" fill="#E3E7F0"/>
<path d="M83.5002 43.7594C82.8002 44.1594 79.4002 46.2594 78.7002 46.6594C77.9002 46.0594 77.1002 45.3594 76.2002 44.7594C76.9002 44.3594 80.3002 42.2594 81.0002 41.8594C81.9002 42.4594 82.7002 43.1594 83.5002 43.7594Z" fill="#64AFA7"/>
<path d="M83.3999 42.8594C85.3999 41.6594 84.6999 42.0594 86.6999 40.8594C86.8999 41.0594 87.1999 41.2594 87.3999 41.4594C85.3999 42.6594 86.0999 42.2594 84.0999 43.4594C83.8999 43.2594 83.6999 43.0594 83.3999 42.8594Z" fill="#E3E7F0"/>
<path d="M110.1 76.0598L109.3 78.0598C109 79.0598 108.8 79.7598 108.7 80.8598C108.4 84.5598 108.7 88.8598 108.8 92.4598C108.8 93.5598 108.3 94.0598 108 94.4598C107.7 94.8598 107.3 95.1598 107.1 95.2598C103.7 97.1598 95.3002 102.66 92.4002 96.7598C91.8002 95.6598 91.4002 94.3598 91.2002 92.9598C91.7002 92.9598 92.1002 93.0598 92.6002 93.1598C94.4002 93.4598 96.1002 94.1598 97.8002 94.5598C99.6002 94.9598 101.5 95.0598 103.1 94.3598C103.6 94.1598 104 93.8598 104.4 93.4598C104.7 93.1598 104.9 92.7598 105.2 92.3598C106.7 89.2598 106.9 85.7598 107.1 82.3598C107.4 78.3598 107.9 74.4598 108.8 70.5598C108.9 70.0598 109 69.5598 109.3 69.2598C109.5 69.0598 109.7 68.6598 109.9 68.2598C112 70.7598 110.1 76.0598 110.1 76.0598Z" fill="#077785"/>
<path d="M88.6001 54.2596C87.6001 53.8596 86.5001 52.9596 85.5001 52.6596C84.4001 52.3596 83.0001 55.1596 83.8001 55.8596C85.2001 57.1596 87.1001 58.2596 88.6001 59.4596V54.2596Z" fill="white"/>
<path d="M95.4 43.1597C98.2 43.2597 98.4 46.4597 98.4 48.8597C98.4 51.2597 99.8 61.4597 95.5 61.7597C91.3 61.9597 87.6 58.2597 84 56.0597C83.1 55.4597 84.7 52.1597 85.8 52.5597C88 53.4597 90.2 54.9597 92.4 56.0597C91.6 51.6597 92.7 43.1597 95.4 43.1597Z" fill="#0D8C9C"/>
<path d="M102.7 40.2598C102.5 41.1598 98.5999 39.5598 98.5999 39.5598C96.3999 39.9598 95.7999 35.9598 95.9999 35.3598C96.2999 34.4598 97.0999 34.0598 96.5999 33.2598C96.0999 32.4598 96.2999 30.3598 96.2999 30.3598C96.2999 30.3598 100.6 29.7598 100.8 29.9598L102.7 33.2598C102.8 33.5598 103.6 35.1598 103.7 36.3598C103.8 37.5598 102.9 39.4598 102.7 40.2598Z" fill="#F5C9C6"/>
<path d="M106.2 40.0598C104.5 41.5598 100.3 42.5598 97.8003 40.8598L98.5003 39.5598C101.3 39.6598 103.6 38.8598 105.9 37.2598C106.2 38.3598 107.8 38.6598 106.2 40.0598Z" fill="#0D8C9C"/>
<path d="M111.5 43.3594C111.1 44.1594 110.5 44.8594 109.8 45.5594C109.6 45.7594 109.4 45.9594 109.3 46.2594C109.2 46.6594 109.4 47.1594 109.5 47.5594C109.6 47.9594 109.6 48.5594 109.3 48.8594C109 49.1594 108.5 49.0594 108.1 48.9594C107.3 48.7594 106.6 48.4594 106 47.9594C105.4 47.4594 104.9 46.8594 104.8 46.0594C104.7 45.1594 105 44.1594 104.6 43.3594C104.4 42.9594 103.9 42.5594 103.4 42.4594C102.9 42.2594 102.3 42.1594 102 41.6594C101.7 41.1594 102 40.5594 101.9 40.0594C101.8 39.5594 101.4 39.0594 100.9 38.9594C100.6 38.8594 100.3 38.8594 99.9999 38.8594C99.6999 38.7594 99.3999 38.5594 99.3999 38.3594C99.3999 38.1594 99.4999 37.8594 99.4999 37.6594C99.3999 37.2594 98.8999 37.2594 98.5999 37.0594C98.1999 36.8594 97.9999 36.2594 97.9999 35.7594C97.8999 35.2594 97.8999 34.6594 98.0999 34.1594C98.2999 33.6594 98.8999 33.2594 99.3999 33.4594C99.6999 32.8594 99.1999 32.1594 98.5999 31.8594C97.9999 31.5594 97.3999 31.3594 96.7999 31.0594C96.1999 30.6594 95.7999 29.8594 95.7999 29.1594C95.6999 28.4594 95.8999 27.6594 96.2999 27.0594C96.4999 26.6594 96.7999 26.2594 97.1999 26.1594C98.2999 25.6594 99.4999 26.4594 100.4 26.8594C101.4 27.2594 102.5 26.8594 103.6 27.0594C104.5 27.2594 105.5 27.7594 105.9 28.6594C106.2 29.3594 106.2 30.1594 106.7 30.7594C107 31.1594 107.5 31.3594 108 31.5594C108.8 31.8594 109.6 32.1594 110 32.8594C110.9 34.2594 110 36.1594 110.4 37.7594C110.7 38.9594 111.7 39.8594 112 40.9594C112.2 41.6594 111.9 42.5594 111.5 43.3594Z" fill="#BF7D5A"/>
</svg>
