<svg width="132" height="132" viewBox="0 0 132 132" fill="none" xmlns="http://www.w3.org/2000/svg">
<path d="M100.6 55.5L78.9999 4.90002L77.9999 5.00002L77.4999 3.80002L76.7999 4.20002L75.9999 3.10002L73.7999 4.40002C73.1999 3.70002 72.4999 3.10002 71.6999 2.60002C70.3999 1.80002 68.9999 1.70002 67.9999 2.30002C66.9999 2.90002 66.3999 4.00002 66.3999 5.60002C66.3999 6.50002 66.5999 7.40002 66.8999 8.40002L64.0999 10C63.4999 9.30002 62.7999 8.70002 61.9999 8.20002C60.5999 7.40002 59.2999 7.30002 58.2999 7.90002C57.2999 8.50002 56.6999 9.70002 56.6999 11.2C56.6999 12.1 56.8999 13 57.1999 14L54.2999 15.7C53.6999 15 52.9999 14.4 52.1999 13.9C50.8999 13.1 49.4999 13 48.4999 13.6C47.4999 14.2 46.8999 15.4 46.8999 16.9C46.8999 17.8 47.0999 18.7 47.3999 19.7L44.5999 21.3C43.9999 20.6 43.2999 20 42.4999 19.5C41.0999 18.7 39.7999 18.6 38.7999 19.2C37.7999 19.8 37.1999 21 37.1999 22.5C37.1999 23.4 37.3999 24.3 37.6999 25.3L34.9999 26.9C34.3999 26.2 33.6999 25.6 32.8999 25.1C31.5999 24.3 30.1999 24.2 29.1999 24.8C28.1999 25.4 27.5999 26.6 27.5999 28.1C27.5999 29 27.7999 29.9 28.0999 30.9L27.0999 31.5L5.3999 57.1L6.9999 59.2L6.4999 59.8L50.5999 85.3L99.3999 57L99.0999 56.4L100.6 55.5ZM29.2999 30.2C29.0999 29.5 28.9999 28.8 28.9999 28.1C28.9999 27 29.2999 26.3 29.8999 25.9C30.0999 25.8 30.3999 25.7 30.6999 25.7C31.1999 25.7 31.6999 25.9 32.2999 26.2C32.8999 26.5 33.3999 27 33.8999 27.5L29.2999 30.2ZM38.9999 24.6C38.7999 23.9 38.5999 23.2 38.5999 22.5C38.5999 21.4 38.8999 20.7 39.4999 20.3C39.6999 20.2 39.9999 20.1 40.2999 20.1C40.7999 20.1 41.2999 20.3 41.8999 20.6C42.4999 20.9 42.9999 21.4 43.4999 21.9L38.9999 24.6ZM48.6999 18.9C48.4999 18.2 48.3999 17.5 48.3999 16.8C48.3999 15.7 48.6999 15 49.2999 14.6C49.4999 14.5 49.7999 14.4 50.0999 14.4C50.5999 14.4 51.0999 14.6 51.6999 14.9C52.2999 15.2 52.7999 15.7 53.2999 16.2L48.6999 18.9ZM58.3999 13.3C58.1999 12.6 57.9999 11.9 57.9999 11.2C57.9999 10.1 58.2999 9.40002 58.8999 9.00002C59.0999 8.90002 59.3999 8.80002 59.6999 8.80002C60.1999 8.80002 60.6999 9.00002 61.2999 9.30002C61.8999 9.60002 62.3999 10.1 62.8999 10.6L58.3999 13.3ZM68.0999 7.70002C67.8999 7.00002 67.7999 6.30002 67.7999 5.60002C67.7999 4.50002 68.0999 3.80002 68.6999 3.40002C68.8999 3.30002 69.1999 3.20002 69.4999 3.20002C69.9999 3.20002 70.4999 3.40002 71.0999 3.70002C71.5999 4.00002 72.1999 4.50002 72.5999 5.00002L68.0999 7.70002Z" fill="white"/>
<path d="M21 41.7999L69.8 13.3999L55.8 30.8999L7 59.1999L21 41.7999Z" fill="#777A80"/>
<path d="M43.6001 68.4L92.4001 40L99.4001 57L50.6001 85.3L43.6001 68.4Z" fill="#0D8C9C"/>
<path d="M28.2 32.8L77 4.5L69.8 13.4L21 41.8L28.2 32.8Z" fill="#777A80"/>
<path d="M27.1999 31.5L28.1999 32.8L20.9999 41.8L6.9999 59.2L5.3999 57.1L27.1999 31.5Z" fill="#CDF3F8"/>
<path d="M27.2002 31.5001L76.0002 3.1001L77.0002 4.5001L28.2002 32.8001L27.2002 31.5001Z" fill="#F8F9FE"/>
<path d="M29.2002 33.4L78.0002 5L92.4002 40L43.6002 68.4L29.2002 33.4Z" fill="#EE9D90"/>
<path d="M50.6 85.3L6.5 59.7999L21 41.7999L28.2 32.7999L28.7 32.2L29.2 33.4L43.6 68.4L50.6 85.3Z" fill="#29B8CB"/>
<path d="M28.7002 32.1999L77.5002 3.8999L78.0002 4.9999L29.2002 33.3999L28.7002 32.1999Z" fill="#0D8C9C"/>
<path d="M100.6 55.4999L51.8002 83.8999L50.2002 84.0999L43.6002 68.3999L29.2002 33.3999L78.0002 4.9999L79.0002 4.8999L100.6 55.4999Z" fill="#F8F9FE"/>
<path d="M30.2002 33.1999L79.0002 4.8999L100.6 55.4999L51.8002 83.8999L30.2002 33.1999Z" fill="#F8F9FE"/>
<path d="M30.2002 33.2L51.8002 83.9L50.2002 84.0999L43.6002 68.4L29.2002 33.4L30.2002 33.2Z" fill="#CDF3F8"/>
<path d="M29.2002 33.3999L78.0002 4.9999L79.0002 4.8999L30.2002 33.1999L29.2002 33.3999Z" fill="#72A9B0"/>
<path d="M32.5998 45.6001L8.7998 59.4001L47.5998 81.9001L32.5998 45.6001Z" fill="#1EA2B3"/>
<path d="M28.2998 35.1001L8.7998 59.4001L32.5998 45.6001L28.2998 35.1001Z" fill="#0D8C9C"/>
<path d="M37.3001 36.1999C36.9001 36.3999 36.5002 36.3999 36.2002 36.2999C35.8002 36.0999 35.5001 35.7999 35.3001 35.2999C35.0001 34.2999 35.3001 33.1999 36.1001 32.6999C36.1001 32.6999 36.2002 32.6999 36.2002 32.5999C36.7002 32.3999 37.1001 32.4999 37.5001 32.7999C37.7001 32.9999 37.9001 33.2999 38.0001 33.5999C38.4001 34.5999 38.0001 35.6999 37.3001 36.1999Z" fill="#101C32"/>
<path d="M37.5001 32.8001C37.4001 29.9001 35.4001 26.6001 32.9001 25.2001C31.5001 24.4001 30.2001 24.3001 29.2001 24.9001C28.2001 25.5001 27.6001 26.7001 27.6001 28.2001C27.6001 29.1001 27.8001 30.0001 28.1001 31.0001L29.2001 30.3001C29.0001 29.6001 28.8001 28.9001 28.9001 28.2001C28.9001 27.1001 29.2001 26.4001 29.8001 26.0001C30.0001 25.9001 30.3001 25.8001 30.6001 25.8001C31.1001 25.8001 31.6001 26.0001 32.2001 26.3001C34.2001 27.5001 35.9001 30.2001 36.1001 32.6001V33.1001C36.1001 34.2001 35.8001 34.9001 35.2001 35.3001C35.4001 35.8001 35.7001 36.1001 36.1001 36.3001C37.0001 35.7001 37.5001 34.6001 37.5001 33.1001V32.8001Z" fill="#4C5C75"/>
<path d="M46.9002 30.5C46.5002 30.7 46.1002 30.7 45.8002 30.6C45.4002 30.4 45.1002 30.1 44.9002 29.6C44.6002 28.6 44.9002 27.5 45.7002 27C45.7002 27 45.8002 27 45.8002 26.9C46.3002 26.7 46.7002 26.8 47.1002 27.1C47.3002 27.3 47.5002 27.6 47.6002 27.9C48.1002 28.9 47.7002 30.1 46.9002 30.5Z" fill="#101C32"/>
<path d="M47.1998 27.0999C47.0998 24.1999 45.0998 20.8999 42.5998 19.4999C41.1998 18.6999 39.8998 18.5999 38.8998 19.1999C37.8998 19.7999 37.2998 20.9999 37.2998 22.4999C37.2998 23.3999 37.4998 24.2999 37.7998 25.2999L38.8998 24.5999C38.6998 23.8999 38.4998 23.1999 38.5998 22.4999C38.5998 21.3999 38.8998 20.6999 39.4998 20.2999C39.6998 20.1999 39.9998 20.0999 40.2998 20.0999C40.7998 20.0999 41.2998 20.2999 41.8998 20.5999C43.8998 21.7999 45.5998 24.4999 45.7998 26.8999V27.3999C45.7998 28.4999 45.4998 29.1999 44.8998 29.5999C45.0998 30.0999 45.3998 30.3999 45.7998 30.5999C46.6998 29.9999 47.1998 28.8999 47.1998 27.3999V27.0999Z" fill="#4C5C75"/>
<path d="M56.6 24.9001C56.2 25.1001 55.8 25.1001 55.5 25.0001C55.1 24.8001 54.8 24.5001 54.6 24.0001C54.3 23.0001 54.6 21.9001 55.4 21.4001C55.4 21.4001 55.5 21.4001 55.5 21.3001C56 21.1001 56.4 21.2001 56.8 21.5001C57 21.7001 57.2 22.0001 57.3 22.3001C57.8 23.3001 57.4 24.5001 56.6 24.9001Z" fill="#101C32"/>
<path d="M56.9 21.5001C56.8 18.6001 54.8 15.3001 52.3 13.9001C50.9 13.1001 49.6 13.0001 48.6 13.6001C47.6 14.2001 47 15.4001 47 16.9001C47 17.8001 47.2 18.7001 47.5 19.7001L48.6 19.0001C48.4 18.3001 48.2 17.6001 48.3 16.9001C48.3 15.8001 48.6 15.1001 49.2 14.7001C49.4 14.6001 49.7 14.5001 50 14.5001C50.5 14.5001 51 14.7001 51.6 15.0001C53.6 16.2001 55.3 18.9001 55.5 21.3001V21.8001C55.5 22.9001 55.2 23.6001 54.6 24.0001C54.8 24.5001 55.1 24.8001 55.5 25.0001C56.4 24.4001 56.9 23.3001 56.9 21.8001V21.5001Z" fill="#4C5C75"/>
<path d="M66.3001 19.3C65.9001 19.5 65.5001 19.5 65.2001 19.4C64.8001 19.2 64.5001 18.9 64.3001 18.4C64.0001 17.4 64.3001 16.3 65.1001 15.8C65.1001 15.8 65.2001 15.8 65.2001 15.7C65.7001 15.5 66.1001 15.6 66.5001 15.9C66.7001 16.1 66.9001 16.4 67.0001 16.7C67.4001 17.7 67.1001 18.8 66.3001 19.3Z" fill="#101C32"/>
<path d="M66.6002 15.9001C66.5002 13.0001 64.5002 9.70012 62.0002 8.20012C60.6002 7.40012 59.3002 7.30012 58.3002 7.90012C57.3002 8.50012 56.7002 9.70012 56.7002 11.2001C56.7002 12.1001 56.9002 13.0001 57.2002 14.0001L58.3002 13.3001C58.1002 12.6001 57.9002 11.9001 58.0002 11.2001C58.0002 10.1001 58.3002 9.40012 58.9002 9.00012C59.1002 8.90012 59.4002 8.80012 59.7002 8.80012C60.2002 8.80012 60.7002 9.00012 61.3002 9.30012C63.3002 10.5001 65.0002 13.2001 65.2002 15.6001V16.1001C65.2002 17.2001 64.9002 17.9001 64.3002 18.3001C64.5002 18.8001 64.8002 19.1001 65.2002 19.3001C66.1002 18.7001 66.6002 17.6001 66.6002 16.1001V15.9001Z" fill="#4C5C75"/>
<path d="M75.9999 13.6C75.5999 13.8 75.1999 13.8 74.8999 13.7C74.4999 13.5 74.1999 13.2 73.9999 12.7C73.6999 11.7 73.9999 10.6 74.7999 10.1C74.7999 10.1 74.8999 10.1 74.8999 10C75.3999 9.80005 75.7999 9.90005 76.1999 10.2C76.3999 10.4 76.5999 10.7 76.6999 11C77.0999 12 76.7999 13.2 75.9999 13.6Z" fill="#101C32"/>
<path d="M76.2999 10.2C76.1999 7.30002 74.1999 4.00002 71.6999 2.60002C70.3999 1.80002 68.9999 1.70002 67.9999 2.30002C66.9999 2.90002 66.3999 4.10002 66.3999 5.60002C66.3999 6.50002 66.5999 7.40002 66.8999 8.40002L67.9999 7.70002C67.7999 7.00002 67.5999 6.30002 67.6999 5.60002C67.6999 4.50002 67.9999 3.80002 68.5999 3.40002C68.7999 3.30002 69.0999 3.20002 69.3999 3.20002C69.8999 3.20002 70.3999 3.40002 70.9999 3.70002C72.9999 4.90002 74.6999 7.60002 74.8999 10V10.5C74.8999 11.6 74.5999 12.3 73.9999 12.7C74.1999 13.2 74.4999 13.5 74.8999 13.7C75.7999 13.1 76.2999 12 76.2999 10.5V10.2Z" fill="#4C5C75"/>
<path d="M78.7002 21.4C78.7002 21.5 78.7002 21.5 78.7002 21.4C78.7002 21.5 78.6002 21.6 78.6002 21.6H78.5002C78.4002 21.6 78.4002 21.5 78.4002 21.5V21.4L78.3002 19.2L77.4002 19.7H77.3002L77.2002 19.6V19.4C77.2002 19.4 77.2002 19.2999 77.3002 19.2999L78.4002 18.7H78.6002C78.7002 18.7 78.7002 18.7999 78.7002 18.7999V19V21.4Z" fill="#4D5C75"/>
<path d="M78.3002 18.8H78.4002C78.4002 18.8 78.5002 18.8 78.5002 18.9V19L78.6002 21.4V21.5H78.5002L78.4002 21.4V21.3L78.3002 19V18.9L77.3002 19.5H77.2002L77.1002 19.4V19.2001L78.3002 18.8ZM50.0002 45C50.5002 44.7 50.9002 45 51.2002 45.8C51.3002 46 51.3002 46.2001 51.4002 46.4001V47C51.3002 47.2 51.2002 47.3001 51.1002 47.4001C51.0002 47.5001 50.9002 47.5 50.8002 47.5H50.6002V47.3C50.7002 47.3 50.9002 47.3001 51.0002 47.2001C51.2002 47.1001 51.3002 46.9 51.3002 46.6C51.3002 46.4 51.3002 46.1001 51.2002 45.9001L51.0002 45.8V45.9001C51.0002 46.0001 50.9002 46.1001 50.9002 46.2001L50.6002 46.5C50.5002 46.6 50.4002 46.6 50.3002 46.6C50.2002 46.6 50.1002 46.5 50.0002 46.5C49.9002 46.4 49.8002 46.3 49.8002 46.1C49.7002 46 49.7002 45.8001 49.7002 45.7001C49.7002 45.6001 49.7002 45.4 49.8002 45.3C49.8002 45.2 49.9002 45.1 50.0002 45ZM50.9002 45.6C50.7002 45.2 50.4002 45.0001 50.1002 45.2001C50.0002 45.3001 49.9002 45.3001 49.9002 45.4001C49.9002 45.5001 49.8002 45.6001 49.8002 45.7001C49.8002 45.8001 49.8002 45.9 49.9002 46C50.0002 46.2 50.1002 46.3 50.2002 46.3C50.3002 46.4 50.4002 46.3 50.6002 46.3C50.8002 46.1 50.9002 45.9 50.9002 45.6Z" fill="#4D5C75"/>
<path d="M50.1002 45.2C50.4002 45 50.7002 45.2 50.9002 45.6C50.9002 45.9 50.8002 46.2 50.5002 46.3C50.4002 46.4 50.2002 46.4 50.1002 46.3L49.8002 46C49.8002 45.9 49.7002 45.8 49.7002 45.7C49.7002 45.6 49.7002 45.5 49.8002 45.4C49.9002 45.3 50.0002 45.2 50.1002 45.2ZM50.5002 46.2C50.7002 46.1 50.8002 45.9 50.8002 45.6C50.6002 45.2 50.4002 45.1 50.1002 45.3C50.0002 45.3 50.0002 45.4 49.9002 45.5C49.9002 45.6 49.8002 45.7 49.8002 45.7V45.9C49.9002 46 49.9002 46.1 50.0002 46.2C50.3002 46.3 50.4002 46.3 50.5002 46.2ZM85.4002 34.5C85.5002 34.5 85.5002 34.5 85.4002 34.5C85.5002 34.5 85.5002 34.5 85.5002 34.6L86.3002 36.6L86.6002 36.4H86.7002L86.8002 36.5V36.7L86.0002 37H85.9002V36.8L86.2002 36.6L85.4002 34.8L85.2002 35.2H85.1002L85.0002 35.1V35L85.3002 34.6L85.4002 34.5Z" fill="#4D5C75"/>
<path d="M86.8001 36.2L86.9001 36.3V36.5C86.9001 36.6 86.9001 36.6 86.8001 36.6L86.0001 37.1H85.9001L85.8001 37V36.8C85.8001 36.7 85.8001 36.7 85.9001 36.7L86.2001 36.5L85.5001 34.9L85.3001 35.2C85.3001 35.2 85.3001 35.3 85.2001 35.3H85.1001L85.0001 35.2V35L85.3001 34.6C85.3001 34.6 85.3001 34.5 85.4001 34.5H85.6001L85.7001 34.6L86.5001 36.5L86.7001 36.4C86.7001 36.2 86.8001 36.2 86.8001 36.2ZM86.9001 36.5L86.8001 36.4H86.7001L86.4001 36.6L85.6001 34.6C85.6001 34.6 85.6001 34.5 85.5001 34.5H85.3001L85.2001 34.6L85.1001 35V35.1C85.1001 35.1 85.1001 35.2 85.2001 35.2H85.3001L85.5001 34.8L86.3001 36.6L86.0001 36.8V37L86.1001 37.1H86.2001L86.9001 36.5ZM83.7001 35.4C83.8001 35.3 83.9001 35.3 84.0001 35.3C84.1001 35.3 84.2001 35.3 84.3001 35.4C84.4001 35.5 84.5001 35.6 84.5001 35.7C84.6001 35.8 84.6001 36 84.6001 36.1C84.6001 36.2 84.6001 36.4 84.5001 36.5C84.5001 36.6 84.4001 36.8 84.3001 37C84.2001 37.2 84.2001 37.3 84.1001 37.4C84.1001 37.5 84.0001 37.6 84.1001 37.7V37.8L85.1001 37.2H85.2001L85.3001 37.3V37.5L84.3001 38.1H84.2001C84.2001 38.1 84.1001 38.1 84.1001 38C84.1001 37.9 84.0001 37.8 84.0001 37.7C84.0001 37.6 84.0001 37.5 84.1001 37.3C84.1001 37.2 84.2001 37 84.3001 36.9C84.4001 36.8 84.4001 36.6 84.5001 36.5C84.5001 36.4 84.6001 36.3 84.6001 36.2V35.9C84.5001 35.8 84.5001 35.7 84.3001 35.6C84.2001 35.6 84.1001 35.6 83.9001 35.7C83.7001 35.8 83.6001 35.9 83.5001 36.1C83.4001 36.3 83.5001 36.1 83.4001 36.1V35.9C83.3001 35.7 83.5001 35.5 83.7001 35.4ZM89.7001 43.6C89.8001 43.6 89.9001 43.7 90.0001 43.9V44.1C90.0001 44.2 90.0001 44.3 89.9001 44.4C89.8001 44.5 89.8001 44.6 89.6001 44.6C89.5001 44.7 89.4001 44.7 89.3001 44.7C89.2001 44.7 89.1001 44.7 89.1001 44.6C89.0001 44.5 89.0001 44.5 89.0001 44.4C88.9001 44.2 88.9001 44.1 89.0001 43.9C89.1001 43.8 89.2001 43.6 89.3001 43.6C89.4001 43.5 89.5001 43.5 89.7001 43.6ZM89.9001 44.1V43.9C89.8001 43.8 89.8001 43.7 89.7001 43.7C89.6001 43.7 89.5001 43.7 89.3001 43.8L89.0001 44.1C88.9001 44.2 89.0001 44.3 89.0001 44.5L89.1001 44.6C89.2001 44.6 89.2001 44.7 89.3001 44.7C89.4001 44.7 89.5001 44.7 89.6001 44.6C89.7001 44.5 89.8001 44.5 89.8001 44.4C89.9001 44.2 89.9001 44.1 89.9001 44.1ZM89.4001 43.1C89.4001 43.2 89.3001 43.3 89.1001 43.4C89.0001 43.5 88.8001 43.5 88.7001 43.5C88.6001 43.5 88.5001 43.4 88.5001 43.3C88.4001 43.2 88.4001 43.1 88.5001 42.9C88.5001 42.8 88.6001 42.7 88.8001 42.6C88.9001 42.5 89.0001 42.5 89.2001 42.5C89.3001 42.5 89.4001 42.6 89.4001 42.7C89.5001 42.9 89.5001 43 89.4001 43.1ZM88.7001 43.2C88.7001 43.3 88.8001 43.3 88.9001 43.4C89.0001 43.4 89.1001 43.4 89.2001 43.3C89.3001 43.2 89.4001 43.1 89.4001 43V42.7C89.4001 42.6 89.3001 42.5 89.2001 42.5C89.1001 42.5 89.0001 42.5 88.9001 42.6C88.8001 42.7 88.7001 42.7 88.7001 42.8C88.6001 43 88.6001 43.1 88.7001 43.2Z" fill="#4D5C75"/>
<path d="M89.4998 43.4C89.7998 43.4 89.9998 43.4999 90.0998 43.7999C90.0998 43.8999 90.1998 43.9999 90.1998 44.0999C90.1998 44.1999 90.1998 44.3 90.0998 44.5C89.9998 44.6 89.8998 44.6999 89.6998 44.7999C89.4998 44.8999 89.3998 44.9 89.2998 44.9C89.1998 44.9 89.0998 44.8999 88.9998 44.7999C88.8998 44.6999 88.8998 44.6 88.7998 44.5C88.6998 44.2 88.6998 43.9 88.8998 43.7L88.9998 43.5999H88.8998C88.7998 43.5999 88.6998 43.6 88.5998 43.5C88.4998 43.5 88.3998 43.4 88.3998 43.2C88.3998 43.1 88.2998 43 88.2998 42.9C88.2998 42.8 88.2998 42.6999 88.3998 42.5999L88.6998 42.2999C88.7998 42.1999 88.9998 42.2 89.0998 42.2C89.1998 42.2 89.2998 42.1999 89.3998 42.2999L89.5998 42.5C89.6998 42.6 89.6998 42.6999 89.5998 42.7999C89.5998 43.0999 89.5998 43.2 89.4998 43.4ZM89.9998 44.0999V43.9C89.8998 43.7 89.7998 43.5999 89.6998 43.5999C89.5998 43.5999 89.3998 43.6 89.2998 43.7C89.0998 43.7 88.9998 43.8 88.9998 44C88.8998 44.1 88.8998 44.3 88.9998 44.5C88.9998 44.6 89.0998 44.6 89.0998 44.7C89.1998 44.8 89.1998 44.7999 89.2998 44.7999C89.3998 44.7999 89.4998 44.8 89.5998 44.7C89.6998 44.6 89.7998 44.6 89.8998 44.5C89.9998 44.3 89.9998 44.1999 89.9998 44.0999ZM88.7998 43.5C88.8998 43.5 88.9998 43.5 89.1998 43.4L89.4998 43.0999V42.7999C89.3998 42.6999 89.3998 42.5999 89.2998 42.5999C89.1998 42.5999 89.0998 42.6 88.8998 42.7L88.5998 43V43.4C88.5998 43.4 88.6998 43.4 88.7998 43.5Z" fill="#4D5C75"/>
<path d="M89.6002 43.3C89.9002 43.3 90.1002 43.4001 90.2002 43.7001C90.2002 43.8001 90.3002 43.9 90.3002 44.1C90.3002 44.2 90.3002 44.4 90.2002 44.5C90.1002 44.6 90.0002 44.7 89.8002 44.8C89.6002 45 89.5002 45 89.3002 45C89.2002 45 89.0002 45.0001 88.9002 44.9001C88.8002 44.8001 88.7002 44.7 88.7002 44.6C88.6002 44.3 88.6002 44 88.8002 43.8C88.7002 43.8 88.6002 43.8001 88.6002 43.7001C88.5002 43.6001 88.4002 43.5001 88.4002 43.4001C88.4002 43.3001 88.3002 43.2 88.3002 43.1C88.3002 43 88.3002 42.8001 88.4002 42.7001L88.7002 42.4001C88.8002 42.3001 89.0002 42.3 89.1002 42.3C89.2002 42.3 89.3002 42.4001 89.4002 42.4001C89.5002 42.5001 89.6002 42.6001 89.6002 42.7001C89.7002 42.8001 89.7002 43 89.7002 43.1C89.7002 43.1 89.7002 43.2 89.6002 43.3ZM90.2002 44.1C90.2002 44 90.2002 43.9 90.1002 43.8C90.0002 43.5 89.8002 43.4001 89.5002 43.4001H89.4002L89.5002 43.3C89.6002 43.2 89.6002 43.1 89.6002 43V42.7001C89.6002 42.6001 89.5002 42.5 89.4002 42.5C89.3002 42.4 89.2002 42.4001 89.1002 42.4001C89.0002 42.4001 88.9002 42.4 88.7002 42.5L88.4002 42.8C88.3002 42.9 88.3002 43 88.3002 43.1C88.3002 43.2 88.3002 43.3001 88.4002 43.4001C88.5002 43.5001 88.5002 43.6001 88.6002 43.7001C88.7002 43.7001 88.8002 43.8 88.9002 43.8H89.0002L88.9002 43.9001C88.7002 44.2001 88.7002 44.4001 88.8002 44.7001C88.8002 44.8001 88.9002 44.9 89.0002 45C89.1002 45.1 89.2002 45.1 89.3002 45.1C89.4002 45.1 89.6002 45.1 89.7002 45C89.9002 44.9 90.0002 44.8001 90.1002 44.7001C90.2002 44.3001 90.2002 44.2 90.2002 44.1ZM51.1002 66.7H51.2002L51.3002 66.8001V67C51.3002 67.1 51.3002 67.1 51.2002 67.1L50.2002 67.7H50.0002C49.9002 67.7 49.9002 67.6 49.9002 67.6C49.8002 67.5 49.8002 67.3 49.8002 67.2C49.8002 67.1 49.8002 66.9001 49.9002 66.8001C49.9002 66.7001 50.0002 66.5001 50.1002 66.4001C50.2002 66.3001 50.2002 66.1 50.3002 66C50.3002 65.9 50.4002 65.8 50.4002 65.7V65.5C50.3002 65.4 50.3002 65.3001 50.2002 65.3001C50.1002 65.3001 50.0002 65.3001 49.9002 65.4001C49.7002 65.5001 49.6002 65.6001 49.5002 65.8001L49.4002 65.9001H49.3002L49.2002 65.8001V65.6C49.3002 65.4 49.5002 65.2 49.7002 65.1C49.8002 65 49.9002 65 50.1002 65C50.2002 65 50.3002 65 50.4002 65.1C50.5002 65.2 50.6002 65.3001 50.6002 65.4001C50.7002 65.5001 50.7002 65.7001 50.7002 65.9001C50.7002 66.1001 50.7002 66.2001 50.6002 66.3001C50.6002 66.4001 50.5002 66.6001 50.4002 66.8001C50.3002 67.0001 50.3002 67.1 50.2002 67.2V67.4001L51.1002 66.7ZM51.3002 66.9001L51.2002 66.8001H51.1002L50.1002 67.4001V67.3001C50.1002 67.2001 50.1002 67.1 50.2002 67C50.2002 66.9 50.3002 66.8 50.4002 66.6C50.5002 66.4 50.6002 66.2 50.6002 66.1C50.6002 66 50.7002 65.8 50.7002 65.7C50.7002 65.6 50.7002 65.4001 50.6002 65.3001C50.5002 65.2001 50.5002 65.1 50.4002 65C50.3002 64.9 50.2002 64.9001 50.1002 64.9001C50.0002 64.9001 49.9002 64.9 49.8002 65C49.6002 65.1 49.4002 65.3 49.3002 65.5V65.7H49.4002C49.5002 65.5 49.7002 65.4001 49.8002 65.3001C50.0002 65.2001 50.1002 65.2 50.2002 65.2C50.3002 65.2 50.4002 65.3 50.5002 65.5C50.5002 65.6 50.6002 65.7001 50.5002 65.8001C50.5002 65.9001 50.5002 66 50.4002 66.1C50.4002 66.2 50.3002 66.3 50.2002 66.5C50.1002 66.7 50.1002 66.8001 50.0002 66.9001C50.0002 67.0001 49.9002 67.1001 49.9002 67.3001C49.9002 67.4001 49.9002 67.5 50.0002 67.6C50.0002 67.6 50.0002 67.7 50.1002 67.7H50.2002L51.3002 66.9001ZM64.8002 58.2001L64.0002 58.7001L64.2002 56.9001L64.8002 58.2001ZM64.7002 58.1L64.3002 57.1L64.1002 58.5L64.7002 58.1ZM88.5002 45.1H88.6002L88.7002 45.2001V45.4001C88.7002 45.5001 88.7002 45.5 88.6002 45.5L87.6002 46.1H87.4002C87.3002 46.1 87.3002 46 87.3002 46C87.2002 45.9 87.2002 45.7 87.2002 45.6C87.2002 45.5 87.2002 45.3001 87.3002 45.2001C87.3002 45.1001 87.4002 44.9 87.5002 44.8C87.6002 44.7 87.6002 44.5001 87.7002 44.4001C87.7002 44.3001 87.8002 44.2 87.8002 44.1V43.9001C87.7002 43.8001 87.7002 43.7001 87.6002 43.7001C87.5002 43.7001 87.4002 43.7 87.3002 43.8C87.1002 43.9 87.0002 44.0001 86.9002 44.2001L86.8002 44.3H86.7002L86.6002 44.2001V44C86.7002 43.8 86.9002 43.6 87.1002 43.5C87.2002 43.4 87.3002 43.4001 87.5002 43.4001C87.6002 43.4001 87.7002 43.4 87.8002 43.5L88.1002 43.8C88.2002 43.9 88.2002 44.1 88.2002 44.3C88.2002 44.5 88.2002 44.6001 88.1002 44.7001C88.1002 44.8001 88.0002 45.0001 87.9002 45.2001C87.8002 45.4001 87.8002 45.5 87.7002 45.6V45.8L88.5002 45.1ZM88.6002 45.4001L88.5002 45.3H88.4002L87.4002 45.9001V45.5C87.4002 45.4 87.5002 45.3 87.6002 45.1C87.7002 44.9 87.8002 44.7 87.8002 44.6C87.8002 44.5 87.9002 44.3001 87.9002 44.2001C87.9002 44.1001 87.9002 43.9 87.8002 43.8C87.7002 43.7 87.7002 43.6 87.6002 43.5C87.5002 43.4 87.4002 43.4001 87.3002 43.4001C87.2002 43.4001 87.1002 43.4 87.0002 43.5C86.8002 43.6 86.6002 43.8 86.5002 44V44.2001H86.6002C86.7002 44.0001 86.9002 43.9 87.0002 43.8C87.2002 43.7 87.3002 43.7001 87.4002 43.7001C87.5002 43.7001 87.6002 43.8 87.7002 44C87.7002 44.1 87.8002 44.2 87.7002 44.3C87.7002 44.4 87.7002 44.5 87.6002 44.6C87.6002 44.7 87.5002 44.8 87.4002 45C87.3002 45.2 87.3002 45.3001 87.2002 45.4001C87.2002 45.5001 87.1002 45.6 87.1002 45.8C87.1002 45.9 87.1002 46 87.2002 46.1C87.2002 46.1 87.2002 46.2001 87.3002 46.2001H87.4002L88.6002 45.4001Z" fill="#4D5C75"/>
<path d="M87.1 43.4001C87.2 43.3001 87.3 43.3 87.4 43.3C87.5 43.3 87.6 43.3001 87.7 43.4001C87.8 43.5001 87.9 43.6001 87.9 43.7001C88 43.8001 88 44 88 44.1C88 44.2 88 44.4 87.9 44.5C87.9 44.6 87.8 44.8 87.7 45C87.6 45.2 87.6 45.3001 87.5 45.4001C87.5 45.5001 87.4 45.6001 87.5 45.7001V45.8L88.5 45.2001H88.6L88.7 45.3V45.5L87.7 46.1H87.6C87.6 46.1 87.5 46.1 87.5 46C87.5 45.9 87.4 45.8001 87.4 45.7001C87.4 45.6001 87.4 45.5 87.5 45.3C87.5 45.2 87.6 45.0001 87.7 44.9001C87.8 44.8001 87.8 44.6 87.9 44.5C87.9 44.4 88 44.3001 88 44.2001V43.9001C87.9 43.8001 87.9 43.7 87.7 43.6C87.6 43.6 87.5 43.6001 87.3 43.7001C87.1 43.8001 87 43.9 86.9 44.1C86.8 44.3 86.9 44.1 86.8 44.1V43.9001C86.7 43.7001 86.9 43.5001 87.1 43.4001ZM67.3 64.7C67.4 64.7 67.4 64.7 67.3 64.7C67.4 64.7 67.4 64.7001 67.4 64.8001L68.2 66.8001L68.5 66.6H68.6L68.7 66.7V66.9001L67.9 67.4001H67.8L67.7 67.3001V67.1L68 66.9001L67.4 65L67.2 65.4001H67.1L67 65.3001V65.2L67.3 64.8001V64.7Z" fill="#4D5C75"/>
<path d="M68.7001 66.4999L68.8001 66.5999V66.7999C68.8001 66.7999 68.8001 66.8999 68.7001 66.8999L67.9001 67.3999H67.8001L67.7001 67.2999V67.0999C67.7001 66.9999 67.7001 66.9999 67.8001 66.9999L68.1001 66.7999L67.4001 65.1999L67.2001 65.4999C67.2001 65.4999 67.2001 65.5999 67.1001 65.5999H67.0001L66.9001 65.4999V65.2999L67.2001 64.8999L67.3001 64.7999H67.5001L67.6001 64.8999L68.4001 66.7999L68.6001 66.6999C68.6001 66.4999 68.7001 66.4999 68.7001 66.4999ZM68.8001 66.6999L68.7001 66.5999H68.6001L68.3001 66.7999L67.5001 64.7999C67.5001 64.7999 67.5001 64.6999 67.4001 64.6999H67.2001L67.1001 64.7999L67.0001 65.2999V65.3999C67.0001 65.3999 67.0001 65.4999 67.1001 65.4999H67.2001L67.4001 65.0999L68.2001 66.8999L67.9001 67.0999V67.2999L68.0001 67.3999H68.1001L68.8001 66.6999ZM65.5001 65.6999C65.7001 65.5999 65.9001 65.4999 66.0001 65.5999C66.1001 65.6999 66.3001 65.6999 66.3001 65.8999C66.4001 65.9999 66.4001 66.1999 66.4001 66.2999C66.4001 66.3999 66.3001 66.4999 66.3001 66.5999L66.2001 66.6999H66.6001C66.7001 66.6999 66.8001 66.8999 66.9001 66.9999C67.0001 67.1999 67.0001 67.3999 66.9001 67.5999C66.8001 67.7999 66.7001 67.8999 66.5001 67.9999C66.3001 68.0999 66.1001 68.1999 65.9001 68.1999H65.8001V67.9999C66.0001 67.9999 66.1001 67.8999 66.3001 67.7999L66.6001 67.4999C66.7001 67.3999 66.7001 67.1999 66.6001 67.0999C66.5001 66.7999 66.2001 66.6999 65.8001 66.9999V66.7999C66.0001 66.6999 66.1001 66.5999 66.2001 66.3999C66.3001 66.2999 66.3001 66.0999 66.2001 65.9999C66.1001 65.8999 66.1001 65.7999 66.0001 65.7999C65.9001 65.7999 65.8001 65.7999 65.6001 65.8999C65.4001 65.9999 65.3001 66.0999 65.2001 66.2999C65.1001 66.4999 65.2001 66.2999 65.1001 66.2999V66.0999C65.2001 65.9999 65.3001 65.7999 65.5001 65.6999ZM83.5001 27.8999V27.7999C83.5001 27.6999 83.4001 27.6999 83.4001 27.6999H83.3001L83.1001 27.7999L82.6001 26.4999C82.6001 26.3999 82.5001 26.3999 82.5001 26.3999H82.2001L82.1001 26.4999V26.5999L81.8001 28.3999V28.5999C81.8001 28.6999 81.9001 28.6999 81.9001 28.6999H82.1001L82.9001 28.2999L83.1001 28.6999L83.2001 28.7999H83.3001L83.4001 28.6999V28.4999L83.2001 28.0999L83.4001 27.9999L83.5001 27.8999ZM82.8001 27.8999L82.2001 28.2999L82.4001 26.9999L82.8001 27.8999Z" fill="#4D5C75"/>
<path d="M89.6999 38.4L89.9999 38.2L93.5999 46.5999L87.3999 50.2L86.9999 50.4L83.3999 42L83.6999 41.7999L89.6999 38.4ZM92.9999 46.4L89.7999 38.9L83.9999 42.2999L87.1999 49.7999L92.9999 46.4Z" fill="#9CA8C7"/>
<path d="M86.6001 30.3L90.0001 38.2001L89.7001 38.4001L86.5001 30.9L80.6001 34.3L83.8001 41.8L83.4001 42L80.1001 34.1L80.4001 33.9001L86.3001 30.5L86.6001 30.3Z" fill="#9CA8C7"/>
<path d="M79 40.7999L79.1 40.8999V40.9999C79.1 41.0999 79.1 41.0999 79 41.0999L78 41.6999H77.8C77.7 41.6999 77.7 41.5999 77.7 41.5999C77.6 41.4999 77.6 41.2999 77.6 41.1999C77.6 41.0999 77.6 40.8999 77.7 40.7999C77.8 40.6999 77.8 40.4999 77.9 40.3999C78 40.1999 78 40.0999 78.1 39.9999C78.1 39.8999 78.2 39.7999 78.2 39.6999V39.4999C78.2 39.3999 78.1 39.2999 78 39.2999C77.9 39.2999 77.8 39.2999 77.7 39.3999C77.5 39.4999 77.4 39.5999 77.3 39.7999L77.2 39.8999H77.1L77 39.7999V39.5999C77.1 39.3999 77.3 39.1999 77.5 39.0999C77.6 38.9999 77.7 38.9999 77.9 38.9999C78.1 38.9999 78.1 38.9999 78.2 39.0999L78.5 39.3999C78.6 39.4999 78.6 39.6999 78.6 39.8999C78.6 39.9999 78.6 40.1999 78.5 40.2999C78.4 40.3999 78.4 40.5999 78.3 40.7999C78.2 40.9999 78.2 41.0999 78.1 41.1999V41.3999L79 40.8999C78.9 40.6999 78.9 40.6999 79 40.7999ZM80.4 38.7999C80.2 38.3999 80 38.1999 79.8 37.9999C79.6 37.7999 79.3 37.7999 79.1 37.9999C78.8 38.0999 78.7 38.3999 78.7 38.6999C78.7 38.9999 78.7 39.2999 78.9 39.6999C79.1 40.0999 79.3 40.3999 79.5 40.4999C79.7 40.6999 80 40.6999 80.2 40.4999C80.4 40.3999 80.6 40.0999 80.6 39.7999C80.6 39.4999 80.6 39.1999 80.4 38.7999ZM79.6 40.0999C79.5 39.9999 79.3 39.7999 79.2 39.4999C79.1 39.1999 79 38.9999 79 38.7999C79 38.5999 79.1 38.4999 79.2 38.3999C79.3 38.2999 79.5 38.2999 79.6 38.3999C79.7 38.4999 79.9 38.6999 80 38.9999C80.1 39.2999 80.2 39.4999 80.2 39.6999C80.2 39.8999 80.1 39.9999 80 40.0999C79.9 40.1999 79.8 40.1999 79.6 40.0999ZM85.3 37.3999C85.3 37.4999 85.3 37.4999 85.2 37.4999L84.2 38.0999H84.1C84 38.0999 84 37.9999 84 37.9999C83.9 37.8999 83.9 37.6999 83.9 37.5999C83.9 37.4999 83.9 37.2999 84 37.1999C84 37.0999 84.1 36.8999 84.2 36.7999C84.3 36.5999 84.3 36.4999 84.4 36.3999C84.4 36.2999 84.5 36.1999 84.5 36.0999V35.8999C84.4 35.7999 84.4 35.6999 84.3 35.6999C84.2 35.6999 84.1 35.6999 84 35.7999C83.8 35.8999 83.7 35.9999 83.6 36.1999L83.5 36.2999H83.4L83.3 36.1999V35.9999C83.4 35.7999 83.6 35.5999 83.8 35.4999C83.9 35.3999 84 35.3999 84.2 35.3999C84.3 35.3999 84.4 35.3999 84.6 35.4999C84.7 35.5999 84.8 35.6999 84.8 35.7999C84.9 35.8999 84.9 36.0999 84.9 36.2999C84.9 36.3999 84.9 36.5999 84.8 36.6999C84.8 36.7999 84.7 36.9999 84.6 37.1999C84.5 37.3999 84.5 37.4999 84.4 37.5999V37.7999L85.3 37.2999H85.4L85.5 37.3999C85.3 37.2999 85.3 37.3999 85.3 37.3999ZM82.5 48.9999C82.5 49.0999 82.5 49.0999 82.4 49.0999L81.4 49.6999H81.2L81.1 49.5999C81 49.4999 81 49.2999 81 49.1999C81 49.0999 81.1 48.8999 81.1 48.7999C81.1 48.6999 81.2 48.4999 81.3 48.2999C81.4 48.1999 81.4 47.9999 81.5 47.8999C81.5 47.7999 81.6 47.6999 81.6 47.5999V47.3999C81.5 47.2999 81.5 47.1999 81.4 47.1999C81.3 47.1999 81.2 47.1999 81.1 47.2999C80.9 47.3999 80.8 47.4999 80.7 47.6999C80.7 47.6999 80.7 47.7999 80.6 47.7999H80.5L80.4 47.6999V47.4999C80.5 47.2999 80.7 47.0999 80.9 46.9999C81 46.8999 81.1 46.8999 81.3 46.8999C81.4 46.8999 81.5 46.8999 81.7 46.9999C81.8 47.0999 81.9 47.1999 81.9 47.2999C82 47.3999 82 47.5999 82 47.6999C82 47.8999 82 47.9999 81.9 48.1999C81.9 48.2999 81.8 48.4999 81.7 48.6999C81.6 48.8999 81.6 48.9999 81.5 49.0999V49.2999L82.4 48.7999H82.5L82.6 48.8999C82.5 48.8999 82.5 48.8999 82.5 48.9999Z" fill="#4D5C75"/>
<path d="M83.2002 22.3L86.6002 30.3L86.3002 30.5L83.1002 23L77.2002 26.4L80.4002 33.9001L80.1002 34.1L76.7002 26.1L77.0002 25.9L82.9002 22.5L83.2002 22.3Z" fill="#9CA8C7"/>
<path d="M79.8998 14.3999L83.1998 22.2999L82.8998 22.4999L79.6998 14.9999L73.7998 18.3999L76.9998 25.8999L76.6998 26.0999L73.2998 18.1999L79.8998 14.3999ZM80.9998 53.3999L86.7998 49.9999L86.9998 50.3999L81.0998 53.7999L80.7998 53.9999L77.1998 45.5999L77.5998 45.3999L83.3998 41.9999L83.5998 42.4999L77.7998 45.7999L80.9998 53.3999Z" fill="#9CA8C7"/>
<path d="M75.6002 32.9C75.7002 33.1 75.7002 33.1 75.7002 33.2C75.7002 33.3 75.7002 33.3 75.6002 33.3L74.8002 33.8H74.7002C74.6002 33.8 74.6002 33.7 74.6002 33.7V33.5C74.6002 33.4 74.6002 33.4 74.7002 33.4L75.0002 33.2L74.3002 31.6L74.0002 31.8C74.0002 31.8 74.0002 31.9 73.9002 31.9H73.8002C73.7002 31.9 73.7002 31.8 73.7002 31.8V31.6L74.0002 31.1L74.1002 31H74.3002L74.4002 31.1L75.2002 33L75.4002 32.9C75.5002 32.8 75.5002 32.8 75.6002 32.9ZM77.2002 31.5C77.3002 31.7 77.3002 31.9 77.2002 32.1C77.1002 32.3 77.0002 32.5 76.7002 32.6C76.5002 32.7 76.3002 32.8 76.1002 32.8H76.0002C76.0002 32.8 76.0002 32.7 75.9002 32.7C75.8002 32.7 75.9002 32.6 75.9002 32.6C75.9002 32.5 75.9002 32.5 76.0002 32.5H76.1002C76.3002 32.5 76.4002 32.4 76.6002 32.4L76.9002 32.1C77.0002 32 77.0002 31.9 76.9002 31.8C76.8002 31.5 76.6002 31.5 76.2002 31.7H76.1002L76.0002 31.6V31.5C76.0002 31.4 76.0002 31.4 76.1002 31.4C76.3002 31.3 76.4002 31.2 76.5002 31.1C76.6002 31 76.6002 30.9 76.5002 30.8C76.5002 30.7 76.4002 30.6 76.3002 30.6C76.2002 30.6 76.1002 30.6 76.0002 30.7C75.9002 30.8 75.7002 30.9 75.7002 31C75.7002 31 75.7002 31.1 75.6002 31.1H75.5002L75.4002 31V30.8C75.5002 30.6 75.7002 30.4 75.9002 30.3C76.1002 30.2 76.3002 30.1 76.5002 30.2C76.7002 30.2 76.8002 30.4 76.9002 30.6C77.0002 30.8 77.0002 30.9 77.0002 31.1C77.0002 31.2 76.9002 31.3 76.9002 31.4C77.0002 31.4 77.1002 31.4 77.2002 31.5C77.1002 31.3 77.0002 31.1 77.2002 31.5ZM81.9002 29.5C81.9002 29.6 81.9002 29.6 81.8002 29.6L81.0002 30.1H80.9002L80.8002 30V29.8C80.8002 29.7 80.8002 29.7 80.9002 29.7L81.2002 29.5L80.4002 28L80.2002 28.3C80.2002 28.3 80.2002 28.4 80.1002 28.4H80.0002L79.9002 28.3V28.1L80.2002 27.6C80.2002 27.6 80.2002 27.5 80.3002 27.5H80.4002C80.5002 27.5 80.5002 27.6 80.5002 27.6L81.3002 29.5L81.5002 29.4H81.6002L81.7002 29.5C81.9002 29.4 81.9002 29.5 81.9002 29.5ZM77.8002 50.8C77.7002 50.6 77.6002 50.5 77.5002 50.4C77.4002 50.3 77.3002 50.3 77.1002 50.2C77.0002 50.2 76.9002 50.2 76.7002 50.3L76.4002 50.6C76.3002 50.7 76.3002 50.8 76.3002 50.8C76.2002 50.6 76.2002 50.4 76.2002 50.3C76.2002 50.1 76.3002 49.9 76.5002 49.8C76.6002 49.7 76.7002 49.7 76.9002 49.7H77.0002L77.1002 49.6V49.4C77.1002 49.4 77.1002 49.3 77.0002 49.3H76.6002C76.5002 49.3 76.4002 49.4 76.3002 49.4C76.1002 49.5 76.0002 49.7 75.9002 49.9C75.8002 50.1 75.8002 50.3 75.8002 50.5C75.8002 50.7 75.9002 50.9 76.0002 51.1C76.4002 51.9 76.8002 52.2 77.3002 51.9C77.4002 51.8 77.6002 51.7 77.6002 51.6C77.7002 51.5 77.7002 51.3 77.7002 51.2C77.8002 51.1 77.8002 51 77.8002 50.8ZM77.5002 51.2C77.5002 51.3 77.5002 51.4 77.4002 51.4C77.4002 51.5 77.3002 51.5 77.2002 51.6C76.9002 51.8 76.7002 51.7 76.5002 51.3C76.5002 51 76.6002 50.8 76.8002 50.7C76.9002 50.6 77.0002 50.6 77.1002 50.7C77.2002 50.8 77.3002 50.9 77.3002 51C77.5002 51.1 77.5002 51.1 77.5002 51.2Z" fill="#4D5C75"/>
<path d="M80.0998 34.1001L83.3998 42.0001L80.2998 34.5001L74.3998 37.9001L77.5998 45.4001L77.1998 45.6001L73.7998 37.7001L74.1998 37.5001L80.0998 34.1001Z" fill="#9CA8C7"/>
<path d="M72.9999 23.8C72.8999 23.6 72.7999 23.5 72.6999 23.4C72.5999 23.3 72.4999 23.3001 72.2999 23.2001C72.1999 23.2001 71.9999 23.2 71.8999 23.3L71.5999 23.6C71.5999 23.7 71.4999 23.7 71.4999 23.8C71.4999 23.6 71.3999 23.4 71.3999 23.3C71.3999 23.1 71.4999 22.9 71.6999 22.8C71.7999 22.7 71.9999 22.7001 72.0999 22.7001H72.1999L72.2999 22.6V22.4C72.2999 22.4 72.2999 22.3 72.1999 22.3H71.7999C71.6999 22.3 71.5999 22.4 71.4999 22.4C71.2999 22.5 71.1999 22.7 71.0999 22.9C70.9999 23.1 70.9999 23.3 70.9999 23.5C70.9999 23.7 71.0999 23.9 71.1999 24.1C71.5999 24.9 71.9999 25.2 72.4999 24.9L72.7999 24.6C72.8999 24.5 72.8999 24.3001 72.8999 24.2001C72.8999 24.1001 73.0999 24 72.9999 23.8ZM72.3999 23.7001C72.4999 23.8001 72.5999 23.9 72.5999 24V24.2001C72.5999 24.3001 72.5999 24.4 72.4999 24.4C72.4999 24.5 72.3999 24.5 72.2999 24.6C71.9999 24.8 71.7999 24.7 71.5999 24.3C71.5999 24 71.6999 23.8001 71.8999 23.7001H72.3999ZM72.6999 44.4001L72.7999 44.5V44.7001C72.7999 44.8001 72.7999 44.8 72.6999 44.8L71.8999 45.3H71.7999C71.6999 45.3 71.6999 45.2001 71.6999 45.2001V45C71.6999 45 71.6999 44.9001 71.7999 44.9001L72.0999 44.7001L71.3999 43.1L71.1999 43.4001L71.0999 43.5H70.9999C70.8999 43.5 70.8999 43.4001 70.8999 43.4001V43.2001L71.1999 42.8L71.2999 42.7001H71.4999L71.5999 42.8L72.3999 44.7001L72.5999 44.6C72.5999 44.4 72.6999 44.4001 72.6999 44.4001ZM74.0999 42.4001C73.6999 41.6001 73.2999 41.3 72.7999 41.6C72.6999 41.7 72.4999 41.8001 72.4999 41.9001C72.3999 42.0001 72.3999 42.2 72.3999 42.3C72.3999 42.5 72.3999 42.6 72.4999 42.8C72.5999 43 72.6999 43.1001 72.7999 43.2001C72.8999 43.3001 72.9999 43.4001 73.1999 43.4001C73.2999 43.4001 73.3999 43.4 73.5999 43.3L73.8999 43C73.8999 42.9 73.9999 42.9 73.9999 42.8C74.0999 43 74.0999 43.2 74.0999 43.3C74.0999 43.5 73.9999 43.7 73.7999 43.8C73.6999 43.9 73.5999 43.9001 73.3999 43.9001H73.2999L73.1999 44V44.1C73.1999 44.1 73.1999 44.2001 73.2999 44.2001H73.6999C73.7999 44.2001 73.8999 44.2 73.9999 44.1C74.1999 44 74.2999 43.8 74.3999 43.6C74.4999 43.4 74.4999 43.2 74.4999 43C74.2999 42.8 74.1999 42.6001 74.0999 42.4001ZM73.0999 42.9001C72.9999 42.9001 72.8999 42.8 72.8999 42.6C72.8999 42.5 72.7999 42.4 72.7999 42.3C72.7999 42.2 72.7999 42.1 72.8999 42.1C72.8999 42 72.9999 42.0001 73.0999 41.9001C73.3999 41.8001 73.5999 41.9001 73.7999 42.2001C73.7999 42.5001 73.6999 42.7 73.4999 42.8C73.2999 43 73.1999 43.0001 73.0999 42.9001Z" fill="#4D5C75"/>
<path d="M76.7 26.1001L80.1 34.1001L76.9 26.6001L71 29.9001L74.2 37.5001L73.8 37.7001L70.5 29.7001L70.8 29.5001L76.7 26.1001Z" fill="#9CA8C7"/>
<path d="M76.2001 52.4V52.6C76.2001 52.7 76.2001 52.7 76.1001 52.7L75.1001 53.3H74.9001C74.8001 53.3 74.8001 53.2 74.8001 53.2C74.7001 53.1 74.7001 52.9 74.7001 52.8C74.7001 52.7 74.7001 52.5 74.8001 52.4C74.9001 52.3 74.9001 52.1 75.0001 51.9C75.1001 51.8 75.1001 51.6 75.2001 51.5C75.2001 51.4 75.3001 51.3 75.3001 51.2V51C75.3001 50.9 75.2001 50.8 75.1001 50.8C75.0001 50.8 74.9001 50.8 74.8001 50.9C74.6001 51 74.5001 51.1 74.4001 51.3C74.4001 51.3 74.4001 51.4 74.3001 51.4H74.2001L74.1001 51.3V51.1C74.2001 50.9 74.4001 50.7 74.6001 50.6C74.7001 50.5 74.8001 50.5 75.0001 50.5C75.1001 50.5 75.2001 50.5 75.3001 50.6L75.6001 50.9C75.7001 51 75.7001 51.2 75.7001 51.3C75.7001 51.5 75.7001 51.6 75.6001 51.8C75.5001 51.9 75.5001 52.1 75.4001 52.3C75.3001 52.5 75.3001 52.6 75.2001 52.7V52.9L76.1001 52.4C76.1001 52.3 76.1001 52.3 76.2001 52.4Z" fill="#4D5C75"/>
<path d="M73.3001 18.2L76.7001 26.1L73.5001 18.6L67.6001 22L70.8001 29.5L70.5001 29.7L67.1001 21.7999L73.3001 18.2ZM74.7001 56.9L80.6001 53.5999L80.8001 54L74.9001 57.4L74.6001 57.5999L71.0001 49.2L71.4001 49L77.2001 45.5999L77.4001 46L71.5001 49.4L74.7001 56.9Z" fill="#9CA8C7"/>
<path d="M69.4 36.5001V36.7001C69.4 36.8001 69.4 36.8001 69.3 36.8001L68.5 37.3001H68.4L68.3 37.2001V37.0001C68.3 36.9001 68.3 36.9001 68.4 36.9001L68.7 36.7001L68 35.1001L67.8 35.4001C67.8 35.4001 67.8 35.5001 67.7 35.5001H67.6L67.5 35.4001V35.2001L67.8 34.7001C67.8 34.7001 67.8 34.6001 67.9 34.6001H68C68.1 34.6001 68.1 34.7001 68.1 34.7001L68.9 36.6001L69.1 36.5001C69.2 36.4001 69.3 36.4001 69.4 36.5001ZM71.2 35.5001V35.7001C71.2 35.8001 71.2 35.8001 71.1 35.8001L70.1 36.4001H69.9L69.8 36.3001C69.7 36.2001 69.7 36.0001 69.7 35.9001C69.7 35.8001 69.7 35.6001 69.8 35.5001C69.8 35.4001 69.9 35.2001 70 35.0001C70.1 34.9001 70.1 34.7001 70.2 34.6001C70.2 34.5001 70.3 34.4001 70.3 34.3001V34.1001C70.3 34.0001 70.2 33.9001 70.1 33.9001C70 33.9001 69.9 33.9001 69.8 34.0001C69.6 34.1001 69.5 34.2001 69.4 34.4001C69.4 34.4001 69.4 34.5001 69.3 34.5001H69.2C69.2 34.5001 69.1 34.5001 69.1 34.4001V34.2001C69.2 34.0001 69.4 33.8001 69.6 33.7001C69.7 33.6001 69.8 33.6001 70 33.6001C70.2 33.6001 70.2 33.7001 70.3 33.7001L70.6 34.0001C70.7 34.2001 70.7 34.3001 70.7 34.5001C70.7 34.7001 70.7 34.8001 70.6 34.9001C70.5 35.0001 70.5 35.2001 70.4 35.4001C70.3 35.6001 70.3 35.7001 70.2 35.8001V36.0001L71.1 35.5001C71 35.4001 71 35.4001 71.2 35.5001C71.1 35.5001 71.1 35.5001 71.2 35.5001Z" fill="#4D5C75"/>
<path d="M73.8001 37.7L77.2001 45.5999L74.0001 38.0999L68.2001 41.5L71.4001 49L71.0001 49.2L67.6001 41.2L68.0001 41L73.8001 37.7Z" fill="#9CA8C7"/>
<path d="M66.7999 28.2C66.6999 28.4 66.5999 28.6 66.2999 28.8C66.0999 28.9 65.7999 29 65.5999 28.9H65.4999L65.3999 28.8V28.6C65.3999 28.5 65.3999 28.5 65.4999 28.5H65.5999C65.7999 28.5 65.8999 28.5 66.0999 28.4C66.2999 28.3 66.3999 28.2 66.3999 28.1C66.4999 28 66.3999 27.9 66.3999 27.7C66.2999 27.6 66.2999 27.5 66.1999 27.5H65.8999C65.7999 27.6 65.5999 27.7 65.5999 27.9L65.4999 28H65.2999C65.1999 28 65.1999 27.9 65.1999 27.9V27.8L64.8999 26.8V26.6C64.8999 26.6 64.8999 26.5 64.9999 26.5L65.8999 26H65.9999L66.0999 26.1V26.3C66.0999 26.3 66.0999 26.4 65.9999 26.4L65.2999 26.8L65.4999 27.4C65.5999 27.3 65.6999 27.1 65.8999 27.1C65.9999 27 66.1999 27 66.2999 27C66.3999 27 66.4999 27.1 66.5999 27.2C66.6999 27.3 66.7999 27.4 66.8999 27.6C66.7999 27.7 66.8999 27.9 66.7999 28.2ZM69.9999 56V56.2C69.9999 56.3 69.9999 56.3 69.8999 56.3L68.8999 56.9H68.7999C68.6999 56.9 68.6999 56.8 68.6999 56.8C68.5999 56.7 68.5999 56.5 68.5999 56.4C68.5999 56.3 68.6999 56.1 68.6999 56C68.6999 55.9 68.7999 55.7 68.8999 55.5C68.9999 55.4 68.9999 55.2 69.0999 55.1C69.0999 55 69.1999 54.9 69.1999 54.8V54.6C69.0999 54.5 69.0999 54.4 68.9999 54.4C68.8999 54.4 68.7999 54.4 68.6999 54.5C68.4999 54.6 68.3999 54.7 68.2999 54.9V55H68.1999L68.0999 54.9V54.7C68.1999 54.5 68.3999 54.3 68.5999 54.2C68.6999 54.1 68.7999 54.1 68.9999 54.1C69.0999 54.1 69.1999 54.1 69.2999 54.2C69.3999 54.3 69.4999 54.4 69.4999 54.5C69.5999 54.6 69.5999 54.8 69.5999 54.9C69.5999 55.1 69.5999 55.2 69.4999 55.4C69.4999 55.5 69.3999 55.7 69.2999 55.9C69.0999 56 68.9999 56.1 68.9999 56.2V56.4L69.8999 55.9C69.7999 55.9 69.8999 55.9 69.9999 56ZM71.5999 55.1C71.4999 55.3 71.3999 55.5 71.0999 55.7C70.8999 55.8 70.5999 55.9 70.3999 55.8H70.2999L70.1999 55.7V55.5C70.1999 55.5 70.1999 55.4 70.2999 55.4H70.3999C70.5999 55.4 70.6999 55.4 70.8999 55.3C71.0999 55.2 71.1999 55.1 71.1999 55C71.2999 54.9 71.2999 54.8 71.1999 54.6C71.0999 54.5 71.0999 54.4 70.9999 54.4C70.8999 54.4 70.7999 54.4 70.6999 54.5C70.5999 54.6 70.3999 54.7 70.3999 54.9C70.3999 55.1 70.3999 55 70.2999 55C70.1999 55 70.1999 55.1 70.0999 55C69.9999 55 69.9999 54.9 69.9999 54.9V54.8L69.6999 53.8V53.6C69.6999 53.5 69.6999 53.5 69.7999 53.5L70.6999 53H70.7999L70.8999 53.1V53.3C70.8999 53.3 70.8999 53.4 70.7999 53.4L69.9999 53.7L70.1999 54.3C70.2999 54.2 70.3999 54.1 70.5999 54C70.6999 53.9 70.8999 53.9 70.9999 53.9C71.0999 53.9 71.1999 54 71.2999 54.1C71.3999 54.2 71.4999 54.3 71.5999 54.5V55.1Z" fill="#4D5C75"/>
<path d="M70.4998 29.7L73.7998 37.7L70.6998 30.1L64.7998 33.5L67.9998 41L67.5998 41.2L64.2998 33.2999L64.5998 33.0999L70.4998 29.7Z" fill="#9CA8C7"/>
<path d="M68.2002 46.6001C68.1002 46.3001 67.9002 46.1001 67.6002 46.1001C67.6002 46.0001 67.7002 45.9001 67.7002 45.9001C67.7002 45.8001 67.7002 45.6001 67.6002 45.5001C67.6002 45.4001 67.5002 45.3001 67.4002 45.2001C67.3002 45.1001 67.2002 45.1001 67.1002 45.1001C67.0002 45.1001 66.8002 45.1001 66.7002 45.2001C66.5002 45.3001 66.4002 45.4001 66.4002 45.5001C66.3002 45.6001 66.3002 45.7001 66.3002 45.9001C66.3002 46.0001 66.3002 46.1001 66.4002 46.2001C66.5002 46.3001 66.5002 46.4001 66.6002 46.5001C66.7002 46.5001 66.8002 46.6001 66.8002 46.6001C66.6002 46.9001 66.6002 47.1001 66.7002 47.4001C66.8002 47.5001 66.8002 47.6001 66.9002 47.7001C67.0002 47.8001 67.1002 47.8001 67.3002 47.8001C67.4002 47.8001 67.6002 47.8001 67.8002 47.7001C68.0002 47.6001 68.1002 47.5001 68.2002 47.3001C68.3002 47.2001 68.3002 47.0001 68.3002 46.9001C68.3002 46.8001 68.3002 46.7001 68.2002 46.6001ZM67.3002 47.4001C67.2002 47.4001 67.1002 47.4001 67.1002 47.3001C67.0002 47.2001 67.0002 47.2001 67.0002 47.1001C66.9002 47.0001 66.9002 46.9001 67.0002 46.7001C67.0002 46.6001 67.1002 46.5001 67.3002 46.4001C67.4002 46.3001 67.5002 46.3001 67.7002 46.3001C67.8002 46.3001 67.9002 46.4001 68.0002 46.5001V46.7001C68.0002 46.8001 68.0002 46.8001 67.9002 46.9001C67.9002 47.0001 67.8002 47.1001 67.7002 47.1001C67.5002 47.4001 67.4002 47.4001 67.3002 47.4001ZM67.3002 45.9001C67.3002 46.0001 67.2002 46.1001 67.1002 46.1001C67.0002 46.2001 66.9002 46.2001 66.8002 46.2001C66.7002 46.2001 66.7002 46.1001 66.6002 46.0001C66.6002 45.9001 66.5002 45.8001 66.6002 45.7001C66.6002 45.6001 66.7002 45.5001 66.8002 45.5001C66.9002 45.4001 67.0002 45.4001 67.1002 45.4001C67.2002 45.4001 67.3002 45.5001 67.3002 45.6001C67.3002 45.7001 67.4002 45.8001 67.3002 45.9001ZM66.6002 48.2001C66.6002 48.3001 66.6002 48.3001 66.5002 48.3001L65.7002 48.8001H65.6002L65.5002 48.7001V48.5001C65.5002 48.5001 65.5002 48.4001 65.6002 48.4001L65.9002 48.2001L65.2002 46.6001L65.0002 47.0001C65.0002 47.0001 65.0002 47.1001 64.9002 47.1001H64.8002L64.7002 47.0001V46.8001L65.0002 46.4001C65.0002 46.4001 65.0002 46.3001 65.1002 46.3001H65.3002L65.4002 46.4001L66.2002 48.3001L66.4002 48.2001H66.5002C66.6002 48.2001 66.6002 48.3001 66.6002 48.3001V48.2001Z" fill="#4D5C75"/>
<path d="M67.0999 21.8L70.4999 29.7001L67.2999 22.2001L61.3999 25.6L64.5999 33.1L64.2999 33.3L60.8999 25.3L67.0999 21.8ZM70.9999 49.2001L74.5999 57.6L74.8999 57.4001L68.6999 61L68.4999 60.5L74.3999 57.1L71.1999 49.6L65.2999 53L68.4999 60.5L68.1999 60.7001L64.7999 52.8L65.0999 52.6L70.9999 49.2001Z" fill="#9CA8C7"/>
<path d="M64.8998 39.2999C64.8998 39.3999 64.7998 39.4 64.7998 39.4L63.9998 39.9H63.8998C63.8998 39.9 63.7998 39.8999 63.7998 39.7999V39.5999C63.7998 39.4999 63.7998 39.5 63.8998 39.5L64.1998 39.2999L63.4998 37.7L63.2998 38C63.2998 38 63.2998 38.0999 63.1998 38.0999H63.0998L62.9998 38V37.7999L63.2998 37.2999L63.3998 37.2H63.5998C63.6998 37.2 63.6998 37.2999 63.6998 37.2999L64.4998 39.2L64.6998 39.0999H64.7998L64.8998 39.2V39.2999ZM63.0998 40C63.1998 40.1 63.1998 40.1 63.0998 40C63.1998 40.2 63.1998 40.1999 63.1998 40.2999C63.1998 40.3999 63.1998 40.4 63.0998 40.4L62.2998 40.9H62.1998C62.0998 40.9 62.0998 40.7999 62.0998 40.7999V40.5999C62.0998 40.4999 62.0998 40.5 62.1998 40.5L62.4998 40.2999L61.7998 38.7L61.5998 39C61.5998 39 61.5998 39.0999 61.4998 39.0999H61.3998L61.2998 39V38.7999L61.5998 38.2999L61.6998 38.2H61.8998L61.9998 38.2999L62.7998 40.2L62.9998 40H63.0998ZM65.1998 57.9L65.2998 58V58.0999L64.9998 58.2999L65.1998 58.7999V58.9C65.1998 58.9 65.1998 59 65.0998 59H64.9998L64.8998 58.9L64.6998 58.4L63.9998 58.9H63.8998C63.8998 58.9 63.7998 58.8999 63.7998 58.7999V58.7L64.0998 56.9V56.7999L64.1998 56.7H64.3998C64.3998 56.7 64.4998 56.6999 64.4998 56.7999L65.0998 58.2L65.1998 57.9ZM64.7998 58.2L64.1998 56.9L63.9998 58.7L64.7998 58.2Z" fill="#4D5C75"/>
<path d="M67.5999 41.2L70.9999 49.2L67.7999 41.7L61.8999 45.0999L65.0999 52.5999L64.7999 52.7999L61.3999 44.7999L61.7999 44.5999L67.5999 41.2Z" fill="#9CA8C7"/>
<path d="M65.3 57.9001L65.4 58.0001V58.2001C65.4 58.3001 65.4 58.3001 65.3 58.3001L65.1 58.4001L65.3 58.8001V59.0001C65.3 59.1001 65.3 59.1001 65.2 59.1001H65.1L65 59.0001L64.8 58.6001L64 58.9001H63.8C63.7 58.9001 63.7 58.8001 63.7 58.8001V58.6001L64 56.8001V56.7001C64 56.7001 64 56.6001 64.1 56.6001H64.4C64.5 56.6001 64.5 56.7001 64.5 56.7001L65 58.0001L65.2 57.9001C65.2 57.8001 65.2 57.8001 65.3 57.9001ZM65.3 58.1001L65.2 58.0001H65.1L64.9 58.1001L64.3 56.7001C64.3 56.7001 64.3 56.6001 64.2 56.6001H64L63.9 56.7001V56.8001L63.6 58.6001V58.7001C63.6 58.7001 63.6 58.8001 63.7 58.8001H63.8L64.6 58.3001L64.8 58.8001C64.8 58.8001 64.8 58.9001 64.9 58.9001H65L65.1 58.8001V58.7001L65 58.3001L65.3 58.1001ZM67 67.7001C66.9 67.9001 66.8 68.1001 66.5 68.2001C66.3 68.3001 66.1 68.4001 65.9 68.4001H65.8L65.7 68.3001V68.2001C65.7 68.1001 65.7 68.1001 65.8 68.1001H65.9C66.1 68.1001 66.2 68.0001 66.4 68.0001L66.7 67.7001C66.8 67.6001 66.8 67.5001 66.7 67.4001C66.6 67.1001 66.4 67.1001 66 67.3001H65.9L65.8 67.2001V67.0001C65.8 66.9001 65.8 66.9001 65.9 66.9001C66.1 66.8001 66.2 66.7001 66.3 66.6001C66.4 66.5001 66.4 66.4001 66.3 66.3001C66.1 66.0001 66 66.0001 66 66.0001C65.9 66.0001 65.8 66.0001 65.7 66.1001C65.6 66.2001 65.4 66.3001 65.4 66.5001H65.2C65.2 66.5001 65.1 66.5001 65.1 66.4001V66.2001C65.2 66.0001 65.4 65.8001 65.6 65.7001C65.8 65.6001 66 65.5001 66.2 65.6001C66.4 65.6001 66.5 65.8001 66.6 66.0001C66.7 66.2001 66.7 66.3001 66.7 66.5001C66.7 66.6001 66.6 66.7001 66.6 66.8001H66.9C67 66.9001 67.1 67.0001 67.2 67.2001C67.1 67.3001 67.1 67.5001 67 67.7001ZM60.6 31.2001V31.0001L60.5 30.9001H60.4L60.2 31.0001L59.7 29.7001C59.7 29.6001 59.6 29.6001 59.6 29.6001H59.3L59.2 29.7001V29.8001L59 31.7001V31.9001C59 32.0001 59.1 32.0001 59.1 32.0001H59.3L60.1 31.5001L60.3 31.9001C60.3 32.0001 60.4 32.0001 60.4 32.0001H60.5L60.6 31.9001V31.7001L60.4 31.3001L60.6 31.2001ZM59.9 31.2001L59.3 31.6001L59.5 30.2001L59.9 31.2001ZM63.8 59.6001V59.8001C63.8 59.9001 63.8 59.9001 63.7 59.9001L62.7 60.5001H62.5L62.4 60.4001C62.3 60.3001 62.3 60.1001 62.3 60.0001C62.3 59.9001 62.3 59.7001 62.4 59.6001C62.5 59.5001 62.5 59.3001 62.6 59.1001C62.7 59.0001 62.7 58.8001 62.8 58.7001C62.8 58.6001 62.9 58.5001 62.9 58.4001V58.2001C62.9 58.1001 62.8 58.0001 62.7 58.0001C62.6 58.0001 62.5 58.0001 62.4 58.1001C62.2 58.2001 62.1 58.3001 62 58.5001C62 58.5001 62 58.6001 61.9 58.6001H61.8L61.7 58.5001V58.3001C61.8 58.1001 62 57.9001 62.2 57.8001C62.3 57.7001 62.4 57.7001 62.6 57.7001C62.7 57.7001 62.8 57.7001 62.9 57.8001L63.2 58.1001C63.3 58.2001 63.3 58.4001 63.3 58.5001C63.3 58.7001 63.3 58.8001 63.2 59.0001C63.1 59.1001 63.1 59.3001 63 59.5001C62.9 59.7001 62.9 59.8001 62.8 59.9001V60.1001L63.7 59.6001C63.6 59.5001 63.7 59.5001 63.8 59.6001C63.8 59.5001 63.8 59.5001 63.8 59.6001Z" fill="#4D5C75"/>
<path d="M64.3 33.3L67.6 41.2001L64.4 33.7001L58.6 37.1L61.8 44.6L61.4 44.8L58 36.9001L58.4 36.7001L64.3 33.3ZM68.2 60.7001L68.5 60.5L68.7 60.9001L72.1 68.8001L65.9 72.4001L65.6 72.6L62 64.3001L62.3 64.1L68.2 60.7001ZM71.6 68.7L68.4 61.2001L62.5 64.6L65.7 72.1L71.6 68.7Z" fill="#9CA8C7"/>
<path d="M60.4002 51.6999V51.8999L60.3002 51.9999L59.5002 52.4999H59.4002L59.3002 52.3999V52.1999C59.3002 52.1999 59.3002 52.0999 59.4002 52.0999L59.7002 51.8999L59.0002 50.2999L58.8002 50.5999C58.8002 50.5999 58.8002 50.6999 58.7002 50.6999H58.6002L58.5002 50.5999V50.3999L58.8002 49.9999L58.9002 49.8999H59.1002L59.2002 49.9999L60.0002 51.8999L60.2002 51.7999H60.3002C60.3002 51.5999 60.4002 51.5999 60.4002 51.6999ZM61.4002 51.1999V51.2999C61.4002 51.2999 61.4002 51.3999 61.3002 51.3999H61.2002L61.1002 51.2999V48.9999L60.2002 49.4999H60.1002L60.0002 49.3999V49.1999C60.0002 49.0999 60.0002 49.0999 60.1002 49.0999L61.2002 48.4999H61.4002C61.5002 48.4999 61.5002 48.5999 61.5002 48.5999V48.7999L61.4002 51.1999ZM58.4002 41.5999C58.2002 41.1999 58.0002 40.8999 57.8002 40.7999C57.6002 40.5999 57.3002 40.5999 57.1002 40.7999C56.8002 40.8999 56.7002 41.1999 56.7002 41.4999C56.7002 41.7999 56.7002 42.0999 56.9002 42.4999C57.1002 42.8999 57.3002 43.1999 57.5002 43.2999C57.7002 43.4999 58.0002 43.4999 58.2002 43.2999C58.4002 43.1999 58.6002 42.8999 58.6002 42.5999C58.6002 42.3999 58.5002 41.9999 58.4002 41.5999ZM58.2002 42.4999C58.2002 42.6999 58.1002 42.7999 58.0002 42.8999C57.9002 42.9999 57.7002 42.9999 57.6002 42.8999C57.5002 42.7999 57.3002 42.5999 57.2002 42.2999C57.1002 41.9999 57.0002 41.7999 57.0002 41.5999C57.0002 41.3999 57.1002 41.2999 57.2002 41.1999C57.3002 41.0999 57.5002 41.0999 57.6002 41.1999C57.7002 41.2999 57.9002 41.4999 58.0002 41.7999C58.2002 42.0999 58.2002 42.2999 58.2002 42.4999Z" fill="#4D5C75"/>
<path d="M60.9002 25.3L64.3002 33.3L61.1002 25.8L55.2002 29.2001L58.4002 36.7001L58.0002 36.9001L54.7002 28.9L60.9002 25.3Z" fill="#9CA8C7"/>
<path d="M62.2001 69.0999C62.1001 68.6999 61.9001 68.4999 61.7001 68.2999C61.5001 68.0999 61.3001 68.0999 61.0001 68.2999C60.8001 68.3999 60.7001 68.5999 60.6001 68.8999C60.6001 69.1999 60.6001 69.4999 60.8001 69.8999C61.0001 70.2999 61.1001 70.4999 61.4001 70.6999C61.6001 70.8999 61.8001 70.8999 62.0001 70.6999C62.2001 70.5999 62.3001 70.3999 62.4001 70.0999C62.4001 69.7999 62.4001 69.4999 62.2001 69.0999ZM61.5001 70.3999C61.3001 70.2999 61.2001 70.0999 61.1001 69.7999C61.0001 69.4999 60.9001 69.2999 60.9001 69.0999C60.9001 68.8999 61.0001 68.7999 61.1001 68.6999C61.2001 68.5999 61.4001 68.5999 61.5001 68.6999C61.6001 68.7999 61.8001 68.9999 61.9001 69.2999C62.0001 69.5999 62.1001 69.7999 62.1001 69.9999C62.1001 70.1999 62.0001 70.2999 61.9001 70.3999C61.8001 70.4999 61.7001 70.4999 61.5001 70.3999Z" fill="#4D5C75"/>
<path d="M64.8001 52.8L68.2001 60.7001L65.0001 53.2001L59.1001 56.6L62.3001 64.1L62.0001 64.3001L58.6001 56.4001L58.9001 56.2001L64.8001 52.8Z" fill="#9CA8C7"/>
<path d="M57.0001 43.9001C57.0001 44.0001 57.0001 44 56.9001 44L56.1001 44.5H56.0001L55.9001 44.4001V44.2001C55.9001 44.1001 55.9001 44.1 56.0001 44.1L56.3001 43.9001L55.6001 42.3L55.4001 42.6C55.4001 42.6 55.4001 42.7001 55.3001 42.7001H55.2001L55.1001 42.6V42.4001L55.4001 41.9001C55.4001 41.9001 55.4001 41.8 55.5001 41.8H55.7001C55.8001 41.8 55.8001 41.9001 55.8001 41.9001L56.6001 43.8L56.8001 43.7001H56.9001C57.0001 43.7001 57.0001 43.8 57.0001 43.8V43.9001Z" fill="#4D5C75"/>
<path d="M61.4002 44.8L64.8002 52.8L61.6002 45.3L55.7002 48.7001L58.9002 56.2001L58.6002 56.4001L55.2002 48.4001L55.5002 48.2001L61.4002 44.8Z" fill="#9CA8C7"/>
<path d="M60.7999 71.3C60.6999 71.5 60.5999 71.7 60.3999 71.8C60.1999 71.9 59.9999 72 59.7999 72H59.6999C59.6999 72 59.5999 72 59.5999 71.9V71.8C59.5999 71.7 59.5999 71.7 59.6999 71.7H59.7999C59.8999 71.7 60.0999 71.6 60.1999 71.6L60.4999 71.3C60.5999 71.2 60.5999 71.1 60.4999 71C60.3999 70.7 60.1999 70.7 59.7999 70.9H59.6999L59.5999 70.8V70.6C59.5999 70.5 59.5999 70.5 59.6999 70.5C59.8999 70.4 59.9999 70.3 60.0999 70.2C60.0999 70.1 60.1999 70 60.0999 69.9C60.0999 69.8 59.9999 69.7 59.8999 69.7C59.7999 69.7 59.6999 69.7 59.5999 69.8C59.4999 69.9 59.2999 70 59.1999 70.2H58.9999L58.8999 70.1V69.9C58.9999 69.7 59.1999 69.5 59.3999 69.4C59.5999 69.3 59.7999 69.2 59.9999 69.3C60.1999 69.3 60.2999 69.5 60.3999 69.7C60.4999 69.9 60.4999 70 60.4999 70.2C60.4999 70.3 60.4999 70.4 60.3999 70.5C60.4999 70.5 60.5999 70.5 60.6999 70.6C60.7999 70.6 60.8999 70.8 60.9999 71C60.8999 70.9 60.8999 71.1 60.7999 71.3Z" fill="#4D5C75"/>
<path d="M57.9998 36.8999L61.3998 44.7999L58.1998 37.2999L52.2998 40.6999L55.4998 48.1999L55.1998 48.3999L51.7998 40.4999L52.1998 40.2999L57.9998 36.8999Z" fill="#9CA8C7"/>
<path d="M55.3999 53.2C55.4999 53.3 55.5999 53.3999 55.6999 53.5999C55.7999 53.6999 55.7999 53.8999 55.7999 54.0999C55.7999 54.2999 55.7999 54.4 55.6999 54.5L55.3999 54.7999C54.8999 55.0999 54.4999 54.8 54.0999 54C53.9999 53.8 53.9999 53.6 53.8999 53.4C53.8999 53.2 53.8999 52.9999 53.9999 52.7999C54.0999 52.5999 54.1999 52.3999 54.3999 52.2999C54.4999 52.1999 54.5999 52.2 54.6999 52.2H55.0999L55.1999 52.2999V52.4C55.1999 52.5 55.1999 52.5 55.0999 52.5H54.9999C54.8999 52.5 54.6999 52.4999 54.5999 52.5999C54.3999 52.6999 54.2999 52.8999 54.2999 53.0999C54.2999 53.2999 54.2999 53.4999 54.3999 53.5999C54.3999 53.4999 54.4999 53.4 54.4999 53.4L54.7999 53.0999C54.8999 52.9999 55.0999 53 55.1999 53C55.1999 53.1 55.2999 53.1 55.3999 53.2ZM55.6999 54.0999C55.6999 53.9999 55.6999 53.8 55.5999 53.7C55.4999 53.5 55.4999 53.3999 55.3999 53.2999C55.2999 53.1999 55.1999 53.2 55.0999 53.2C54.9999 53.2 54.8999 53.1999 54.7999 53.2999L54.4999 53.5999C54.3999 53.6999 54.3999 53.8 54.3999 53.9C54.2999 53.7 54.2999 53.4 54.2999 53.2C54.2999 53 54.3999 52.7999 54.5999 52.5999C54.6999 52.4999 54.8999 52.5 54.9999 52.5V52.2999H54.7999C54.6999 52.2999 54.5999 52.4 54.4999 52.4C54.2999 52.5 54.1999 52.5999 54.0999 52.7999C53.9999 52.9999 53.9999 53.2 54.0999 53.4C54.0999 53.6 54.1999 53.8 54.2999 54C54.5999 54.8 54.9999 54.9999 55.4999 54.7999L55.7999 54.5C55.6999 54.3 55.6999 54.1999 55.6999 54.0999Z" fill="#4D5C75"/>
<path d="M59.5002 75.7L65.3002 72.3L65.5002 72.7L59.7002 76.1L59.3002 76.3L55.7002 67.9L56.1002 67.7L62.0002 64.3L62.1002 64.8L56.3002 68.2L59.5002 75.7Z" fill="#9CA8C7"/>
<path d="M54.1998 55.3999C54.1998 55.3999 54.1998 55.4999 54.0998 55.4999L53.2998 55.9999H53.1998L53.0998 55.8999V55.6999C53.0998 55.6999 53.0998 55.5999 53.1998 55.5999L53.4998 55.3999L52.7998 53.7999L52.5998 54.0999L52.4998 54.1999H52.3998L52.2998 54.0999V53.8999L52.5998 53.4999C52.5998 53.4999 52.5998 53.3999 52.6998 53.3999H52.8998L52.9998 53.4999L53.7998 55.3999L53.9998 55.2999H54.0998C54.1998 55.2999 54.1998 55.3999 54.1998 55.3999Z" fill="#4D5C75"/>
<path d="M58.5999 56.3999L61.9999 64.2999L58.7999 56.7999L52.8999 60.1999L56.0999 67.6999L55.6999 67.8999L52.3999 59.9999L52.6999 59.7999L58.5999 56.3999Z" fill="#9CA8C7"/>
<path d="M49.9999 44.9C50.4999 44.6 50.8999 44.9 51.2999 45.7C51.3999 45.9 51.3999 46.1 51.4999 46.3C51.4999 46.5 51.4999 46.7 51.3999 46.9C51.2999 47.1 51.1999 47.3 50.9999 47.4C50.8999 47.5 50.7999 47.5 50.6999 47.5H50.2999C50.2999 47.5 50.2999 47.4 50.1999 47.4V47.3C50.1999 47.2 50.1999 47.2 50.2999 47.2H50.3999C50.4999 47.2 50.6999 47.2 50.7999 47.1C50.9999 47 51.0999 46.8 51.0999 46.6C51.0999 46.4 51.0999 46.2 50.9999 46.1C50.9999 46.2 50.8999 46.2 50.8999 46.3L50.5999 46.6C50.4999 46.7 50.2999 46.7 50.1999 46.7C50.0999 46.7 49.9999 46.6 49.7999 46.5C49.6999 46.4 49.5999 46.3 49.4999 46.1C49.3999 46 49.3999 45.8 49.3999 45.6C49.3999 45.4 49.3999 45.3 49.4999 45.2C49.6999 45.1 49.7999 45 49.9999 44.9ZM51.3999 46.4C51.3999 46.2 51.2999 46 51.1999 45.8C50.8999 45 50.4999 44.8 49.9999 45L49.6999 45.3C49.5999 45.4 49.5999 45.5 49.5999 45.7C49.5999 45.8 49.5999 46 49.6999 46.1C49.7999 46.3 49.7999 46.4 49.8999 46.5C49.9999 46.6 50.0999 46.6 50.1999 46.6C50.2999 46.6 50.3999 46.6 50.4999 46.5L50.7999 46.2C50.8999 46.1 50.8999 46 50.8999 45.9V45.8L50.9999 45.9C51.0999 46.1 51.0999 46.4 51.0999 46.6C51.0999 46.8 50.9999 47 50.7999 47.2C50.6999 47.3 50.4999 47.3 50.3999 47.3V47.5H50.5999C50.6999 47.5 50.7999 47.5 50.8999 47.4C51.0999 47.3 51.1999 47.2 51.1999 47C51.3999 46.8 51.3999 46.6 51.3999 46.4Z" fill="#4D5C75"/>
<path d="M55.2 48.3999L58.6 56.3999L55.4 48.8999L49.5 52.2999L52.7 59.7999L52.4 59.9999L49 51.9999L49.3 51.7999L55.2 48.3999Z" fill="#9CA8C7"/>
<path d="M54.8002 74.7001V74.9001C54.8002 75.0001 54.8002 75.0001 54.7002 75.0001L53.7002 75.6001H53.6002C53.5002 75.6001 53.5002 75.5001 53.5002 75.5001C53.4002 75.4001 53.4002 75.2001 53.4002 75.1001C53.4002 75.0001 53.4002 74.8001 53.5002 74.7001C53.5002 74.6001 53.6002 74.4001 53.7002 74.2001C53.8002 74.1001 53.8002 73.9001 53.9002 73.8001C53.9002 73.7001 54.0002 73.6001 54.0002 73.5001V73.3001C53.9002 73.2001 53.9002 73.1001 53.8002 73.1001C53.7002 73.1001 53.6002 73.1001 53.5002 73.2001C53.3002 73.3001 53.2002 73.4001 53.1002 73.6001V73.7001H53.0002C53.0002 73.7001 52.9002 73.7001 52.9002 73.6001V73.4001C53.0002 73.2001 53.2002 73.0001 53.4002 72.9001C53.5002 72.8001 53.6002 72.8001 53.8002 72.8001C53.9002 72.8001 54.0002 72.9001 54.1002 72.9001C54.2002 73.0001 54.3002 73.1001 54.3002 73.2001C54.4002 73.3001 54.4002 73.5001 54.4002 73.7001C54.4002 73.9001 54.4002 74.0001 54.3002 74.1001C54.3002 74.2001 54.2002 74.4001 54.1002 74.6001C54.0002 74.8001 54.0002 74.9001 53.9002 75.0001V75.2001L54.8002 74.7001C54.6002 74.6001 54.6002 74.6001 54.8002 74.7001C54.7002 74.7001 54.7002 74.6001 54.8002 74.7001ZM56.0002 72.7001C55.6002 71.9001 55.2002 71.6001 54.7002 71.9001C54.6002 72.0001 54.4002 72.1001 54.4002 72.2001C54.3002 72.3001 54.3002 72.5001 54.3002 72.6001C54.3002 72.8001 54.3002 72.9001 54.4002 73.1001C54.5002 73.3001 54.6002 73.4001 54.7002 73.5001C54.8002 73.6001 54.9002 73.6001 55.1002 73.7001C55.2002 73.7001 55.3002 73.7001 55.5002 73.6001L55.8002 73.3001C55.8002 73.2001 55.9002 73.2001 55.9002 73.1001C56.0002 73.3001 56.0002 73.5001 56.0002 73.6001C56.0002 73.8001 55.9002 74.0001 55.7002 74.1001C55.6002 74.2001 55.5002 74.2001 55.3002 74.2001H55.2002L55.1002 74.3001V74.5001C55.1002 74.5001 55.1002 74.6001 55.2002 74.6001H55.6002C55.7002 74.6001 55.8002 74.5001 55.9002 74.5001C56.1002 74.4001 56.2002 74.2001 56.3002 74.0001C56.4002 73.8001 56.4002 73.6001 56.4002 73.4001C56.2002 73.1001 56.1002 72.9001 56.0002 72.7001ZM54.9002 73.2001C54.8002 73.1001 54.7002 73.1001 54.7002 72.9001C54.7002 72.8001 54.6002 72.7001 54.6002 72.7001C54.6002 72.6001 54.6002 72.5001 54.7002 72.5001C54.7002 72.4001 54.8002 72.4001 54.9002 72.3001C55.1002 72.1001 55.4002 72.2001 55.6002 72.6001C55.6002 72.9001 55.5002 73.1001 55.3002 73.2001H54.9002ZM48.3002 38.9001V39.1001C48.3002 39.1001 48.3002 39.2001 48.2002 39.2001L47.2002 39.8001H47.0002C46.9002 39.8001 46.9002 39.7001 46.9002 39.7001C46.8002 39.6001 46.8002 39.4001 46.8002 39.3001C46.8002 39.2001 46.8002 39.0001 46.9002 38.9001C47.0002 38.8001 47.0002 38.6001 47.1002 38.5001C47.2002 38.3001 47.2002 38.2001 47.3002 38.1001C47.3002 38.0001 47.4002 37.9001 47.4002 37.8001V37.6001C47.4002 37.5001 47.3002 37.4001 47.2002 37.4001C47.1002 37.4001 47.0002 37.4001 46.9002 37.5001C46.7002 37.6001 46.6002 37.7001 46.5002 37.9001L46.4002 38.0001H46.3002L46.2002 37.9001V37.7001C46.3002 37.5001 46.5002 37.3001 46.7002 37.2001C46.8002 37.1001 46.9002 37.1001 47.1002 37.1001C47.2002 37.1001 47.3002 37.1001 47.4002 37.2001L47.7002 37.5001C47.8002 37.6001 47.8002 37.8001 47.8002 38.0001C47.8002 38.1001 47.8002 38.3001 47.7002 38.4001C47.6002 38.5001 47.6002 38.7001 47.5002 38.9001C47.4002 39.1001 47.4002 39.2001 47.3002 39.3001V39.5001L48.2002 39.0001H48.3002C48.2002 38.8001 48.3002 38.8001 48.3002 38.9001ZM51.3002 66.7001L51.4002 66.8001V66.9001L50.4002 67.5001H50.3002C50.3002 67.5001 50.2002 67.5001 50.2002 67.4001C50.0002 67.4001 50.0002 67.3001 50.0002 67.1001C50.0002 67.0001 50.0002 66.8001 50.1002 66.7001C50.1002 66.6001 50.2002 66.4001 50.3002 66.3001C50.4002 66.1001 50.4002 66.0001 50.5002 65.9001C50.5002 65.8001 50.6002 65.7001 50.6002 65.6001V65.3001C50.5002 65.1001 50.4002 65.1001 50.3002 65.0001C50.2002 65.0001 50.1002 65.0001 49.9002 65.1001C49.7002 65.2001 49.6002 65.3001 49.5002 65.5001C49.4002 65.7001 49.5002 65.5001 49.4002 65.5001V65.4001C49.5002 65.2001 49.7002 65.0001 49.9002 64.9001C50.0002 64.8001 50.1002 64.8001 50.2002 64.8001C50.3002 64.8001 50.4002 64.8001 50.5002 64.9001C50.6002 65.0001 50.7002 65.1001 50.7002 65.2001C50.7002 65.3001 50.8002 65.5001 50.8002 65.6001C50.8002 65.7001 50.8002 65.9001 50.7002 66.0001C50.7002 66.1001 50.6002 66.3001 50.5002 66.5001C50.4002 66.7001 50.4002 66.8001 50.3002 66.9001C50.3002 67.0001 50.2002 67.1001 50.3002 67.2001V67.3001L51.3002 66.7001ZM53.0002 65.8001V66.0001C53.0002 66.0001 53.0002 66.1001 52.9002 66.1001L51.9002 66.7001H51.7002L51.6002 66.6001C51.6002 66.5001 51.5002 66.3001 51.5002 66.2001C51.5002 66.1001 51.5002 65.9001 51.6002 65.8001C51.6002 65.7001 51.7002 65.5001 51.8002 65.4001C51.9002 65.2001 51.9002 65.1001 52.0002 65.0001C52.0002 64.9001 52.1002 64.8001 52.1002 64.7001V64.5001C52.1002 64.4001 52.0002 64.3001 51.9002 64.3001C51.8002 64.3001 51.7002 64.3001 51.6002 64.4001C51.4002 64.5001 51.3002 64.6001 51.2002 64.8001L51.1002 64.9001H51.0002L50.9002 64.8001V64.6001C51.0002 64.4001 51.2002 64.2001 51.4002 64.1001C51.5002 64.0001 51.6002 64.0001 51.8002 64.0001C51.9002 64.0001 52.0002 64.0001 52.1002 64.1001L52.4002 64.4001C52.5002 64.5001 52.5002 64.7001 52.5002 64.9001C52.5002 65.1001 52.4002 65.2001 52.4002 65.3001C52.3002 65.4001 52.3002 65.6001 52.2002 65.8001C52.1002 65.8001 52.0002 65.9001 52.0002 66.0001V66.2001L52.9002 65.7001H53.0002V65.8001ZM57.6002 63.2001V63.4001C57.6002 63.5001 57.6002 63.5001 57.5002 63.5001L56.5002 64.1001H56.4002C56.3002 64.1001 56.3002 64.0001 56.3002 64.0001C56.2002 63.9001 56.2002 63.7001 56.2002 63.6001C56.2002 63.5001 56.2002 63.3001 56.3002 63.2001C56.3002 63.1001 56.4002 62.9001 56.5002 62.7001C56.6002 62.6001 56.6002 62.4001 56.7002 62.3001C56.7002 62.2001 56.8002 62.1001 56.8002 62.0001V61.8001C56.7002 61.7001 56.7002 61.6001 56.6002 61.6001C56.5002 61.6001 56.4002 61.6001 56.3002 61.7001C56.1002 61.8001 56.0002 61.9001 55.9002 62.1001V62.2001H55.8002C55.8002 62.2001 55.5002 62.0001 55.4002 62.0001V61.8001C55.5002 61.6001 55.7002 61.4001 55.9002 61.3001C56.0002 61.2001 56.1002 61.2001 56.3002 61.2001C56.4002 61.2001 56.6002 61.2001 56.7002 61.3001C56.8002 61.4001 56.9002 61.5001 56.9002 61.6001C57.0002 61.7001 57.0002 61.9001 57.0002 62.0001C57.0002 62.2001 57.0002 62.3001 56.9002 62.5001C56.9002 62.6001 56.8002 62.8001 56.7002 63.0001C56.6002 63.2001 56.6002 63.3001 56.5002 63.4001V63.6001L57.4002 63.1001L57.6002 63.2001C57.6002 63.1001 57.5002 63.1001 57.6002 63.2001ZM59.1002 62.4001C59.0002 62.6001 58.9002 62.8001 58.7002 62.9001C58.4002 63.0001 58.2002 63.0001 58.0002 63.0001H57.9002C57.9002 63.0001 57.9002 62.9001 57.8002 62.9001V62.7001C57.8002 62.7001 57.8002 62.6001 57.9002 62.6001H58.0002C58.1002 62.6001 58.3002 62.5001 58.4002 62.4001L58.7002 62.1001C58.8002 62.0001 58.8002 61.9001 58.7002 61.8001C58.6002 61.5001 58.4002 61.5001 58.0002 61.7001H57.9002C57.9002 61.7001 57.8002 61.7001 57.8002 61.6001V61.4001C57.8002 61.4001 57.8002 61.3001 57.9002 61.3001C58.1002 61.2001 58.2002 61.1001 58.2002 61.0001C58.3002 60.9001 58.3002 60.8001 58.2002 60.6001C58.2002 60.5001 58.1002 60.5001 58.0002 60.4001C57.9002 60.4001 57.8002 60.4001 57.7002 60.5001C57.6002 60.6001 57.4002 60.7001 57.4002 60.8001L57.3002 60.9001H57.2002C57.2002 60.9001 57.1002 60.9001 57.1002 60.8001V60.6001C57.2002 60.4001 57.4002 60.2001 57.6002 60.1001C57.8002 60.0001 58.0002 59.9001 58.2002 60.0001C58.4002 60.0001 58.5002 60.2001 58.6002 60.4001C58.7002 60.6001 58.7002 60.7001 58.7002 60.9001C58.7002 61.0001 58.7002 61.1001 58.6002 61.2001H58.9002C59.0002 61.3001 59.1002 61.4001 59.2002 61.6001C59.2002 61.9001 59.2002 62.2001 59.1002 62.4001Z" fill="#4D5C75"/>
<path d="M51.8001 40.5L55.2001 48.4L52.0001 40.9L46.1001 44.3L49.3001 51.8L49.0001 52L45.6001 44.1L45.9001 43.9L51.8001 40.5ZM53.3001 79.3L59.1001 75.9L59.3001 76.3L53.1001 79.9L49.7001 71.9L49.5001 71.5L49.9001 71.3L55.7001 67.9L55.9001 68.4L50.1001 71.7L53.3001 79.3Z" fill="#9CA8C7"/>
<path d="M49.5 57.9C49.4 58.1 49.3 58.3 49 58.4C48.8 58.5 48.5 58.6 48.3 58.5H48.2L48.1 58.4V58.2C48.1 58.2 48.1 58.0999 48.2 58.0999H48.3C48.5 58.0999 48.6 58.1 48.8 58C49 57.9 49.1 57.8 49.1 57.7C49.2 57.6 49.2 57.3999 49.1 57.2999C49 57.1999 49 57.0999 48.9 57.0999C48.8 57.0999 48.7 57.1 48.6 57.2C48.5 57.3 48.3 57.3999 48.3 57.5999C48.3 57.7999 48.3 57.7 48.2 57.7H48C47.9 57.7 47.9 57.5999 47.9 57.5999V57.5L47.6 56.5V56.2999C47.6 56.1999 47.6 56.2 47.7 56.2L48.6 55.7H48.7L48.8 55.7999V56C48.8 56.1 48.8 56.0999 48.7 56.0999L47.9 56.5L48.1 57.2C48.2 57.1 48.3 56.8999 48.5 56.7999C48.6 56.6999 48.8 56.7 48.9 56.7C49 56.7 49.1 56.8 49.2 56.9C49.3 57 49.4 57.0999 49.5 57.2999C49.6 57.4999 49.6 57.7 49.5 57.9ZM47.8 58.7L47.9 58.7999V59C47.9 59 47.9 59.0999 47.8 59.0999L47 59.5999H46.9L46.8 59.5V59.2999C46.8 59.2999 46.8 59.2 46.9 59.2L47.2 59L46.5 57.4L46.3 57.7L46.2 57.7999H46.1C46 57.7999 46 57.7 46 57.7V57.5L46.3 57.0999L46.4 57H46.6C46.7 57 46.7 57.0999 46.7 57.0999L47.5 59L47.7 58.9C47.7 58.7 47.8 58.7 47.8 58.7Z" fill="#4D5C75"/>
<path d="M48.4002 32.5L51.8002 40.5L48.6002 33L42.7002 36.4L45.9002 43.9L45.6002 44.1L42.2002 36.1L48.4002 32.5ZM52.4002 60L55.7002 67.9L52.6002 60.4L46.7002 63.8L49.9002 71.3L49.5002 71.5L49.7002 71.9L46.3002 64L46.1002 63.6L46.5002 63.4L52.4002 60Z" fill="#9CA8C7"/>
<path d="M44.6999 49.4001C44.9999 49.4001 45.1999 49.5 45.2999 49.8C45.2999 49.9 45.3999 50.0001 45.3999 50.2001C45.3999 50.3001 45.2999 50.5 45.2999 50.6C45.1999 50.7 45.0999 50.8001 44.8999 50.9001C44.6999 51.0001 44.5999 51 44.3999 51C44.2999 51 44.0999 51.0001 43.9999 50.9001C43.8999 50.8001 43.7999 50.7 43.7999 50.6C43.6999 50.3 43.6999 50 43.8999 49.8C43.7999 49.8 43.6999 49.8001 43.6999 49.7001C43.5999 49.6001 43.4999 49.5001 43.4999 49.4001C43.4999 49.3001 43.3999 49.2 43.3999 49.1C43.3999 49 43.3999 48.8001 43.4999 48.7001L43.7999 48.4001C43.8999 48.3001 44.0999 48.3 44.1999 48.3C44.2999 48.3 44.3999 48.4001 44.4999 48.4001C44.5999 48.5001 44.6999 48.6001 44.6999 48.7001C44.7999 48.8001 44.7999 49 44.7999 49.1C44.7999 49.2 44.7999 49.3001 44.6999 49.4001ZM45.2999 50.2001C45.2999 50.1001 45.2999 50.0001 45.1999 49.9001C45.0999 49.6001 44.8999 49.5 44.5999 49.5H44.4999L44.5999 49.4001C44.6999 49.3001 44.6999 49.2 44.6999 49.1V48.8C44.6999 48.7 44.5999 48.6 44.4999 48.6C44.3999 48.5 44.2999 48.5 44.1999 48.5C44.0999 48.5 43.9999 48.5 43.7999 48.6L43.4999 48.9001C43.3999 49.0001 43.3999 49.1001 43.3999 49.2001C43.3999 49.3001 43.3999 49.4 43.4999 49.5C43.5999 49.6 43.5999 49.7 43.6999 49.8C43.7999 49.9 43.8999 49.9001 43.9999 49.9001C43.7999 50.2001 43.7999 50.4001 43.8999 50.7001C43.8999 50.8001 43.9999 50.9 44.0999 51C44.1999 51.1 44.2999 51.1 44.3999 51.1C44.4999 51.1 44.6999 51.1 44.7999 51C44.8999 50.9 45.0999 50.8001 45.1999 50.7001C45.2999 50.5001 45.2999 50.3001 45.2999 50.2001Z" fill="#4D5C75"/>
<path d="M48.9998 52L52.3998 60L49.1998 52.5L43.2998 55.8L46.4998 63.4L46.0998 63.6L46.2998 64L42.9998 56L42.7998 55.6L43.0998 55.4L48.9998 52Z" fill="#9CA8C7"/>
<path d="M42.0001 42.6001C42.0001 42.7001 41.9001 42.7001 41.9001 42.7001L41.1001 43.2001H41.0001L40.9001 43.1001V42.9001C40.9001 42.9001 40.9001 42.8001 41.0001 42.8001L41.3001 42.6001L40.6001 41.0001L40.4001 41.3001C40.4001 41.3001 40.4001 41.4001 40.3001 41.4001H40.2001L40.1001 41.3001V41.1001L40.4001 40.7001L40.5001 40.6001H40.7001L40.8001 40.7001L41.6001 42.6001L41.8001 42.5001H41.9001L42.0001 42.6001Z" fill="#4D5C75"/>
<path d="M45.5999 44.1001L48.9999 52.0001L45.7999 44.5001L39.8999 47.9001L43.0999 55.4001L42.7999 55.6001L42.9999 56.0001L39.5999 48.1001L39.3999 47.7001L39.6999 47.5001L45.5999 44.1001Z" fill="#9CA8C7"/>
<path d="M42.2 36.1001L45.6 44.1001L42.4 36.6001L36.5 39.9001L39.7 47.5001L39.4 47.7001L39.6 48.1001L36 39.7001L42.2 36.1001Z" fill="#9CA8C7"/>
<path d="M53.9999 34.4C54.0999 34.5 54.1999 34.6 54.2999 34.8C54.3999 35 54.3999 35.2 54.2999 35.4C54.1999 35.6 54.0999 35.8 53.8999 35.9C53.6999 36 53.4999 36.1 53.2999 36.1H53.1999L53.0999 36V35.8C53.0999 35.7 53.0999 35.7 53.1999 35.7H53.2999C53.4999 35.7 53.5999 35.6 53.7999 35.6L54.0999 35.3C54.1999 35.2 54.1999 35.1 54.0999 35C53.9999 34.7 53.7999 34.7 53.3999 34.9H53.2999L53.1999 34.8V34.6C53.1999 34.5 53.1999 34.5 53.2999 34.5C53.4999 34.4 53.5999 34.3 53.5999 34.2C53.6999 34.1 53.6999 34 53.5999 33.9C53.5999 33.8 53.4999 33.7 53.3999 33.7C53.2999 33.7 53.1999 33.7 53.0999 33.8C52.9999 33.9 52.7999 34 52.6999 34.1L52.5999 34.2H52.4999L52.3999 34.1V33.9C52.4999 33.7 52.6999 33.5 52.8999 33.4C53.0999 33.3 53.2999 33.2 53.4999 33.3C53.6999 33.3 53.7999 33.5 53.8999 33.7C53.9999 33.9 53.9999 34 53.9999 34.2C53.9999 34.3 53.9999 34.4 53.8999 34.5C53.7999 34.3 53.8999 34.4 53.9999 34.4ZM54.2999 35.4C54.3999 35.2 54.3999 35 54.2999 34.8C54.1999 34.6 54.0999 34.5 53.9999 34.5C53.8999 34.5 53.7999 34.4 53.6999 34.5H53.5999L53.6999 34.4C53.7999 34.3 53.7999 34.2 53.7999 34.1C53.7999 34 53.7999 33.9 53.6999 33.7C53.5999 33.5 53.4999 33.4 53.3999 33.4C53.2999 33.4 53.0999 33.4 52.8999 33.5C52.6999 33.6 52.5999 33.8 52.4999 34V34.1H52.5999C52.6999 34 52.7999 33.8 52.9999 33.7C53.0999 33.6 53.2999 33.6 53.3999 33.6C53.4999 33.6 53.5999 33.7 53.5999 33.8C53.6999 33.9 53.6999 34.1 53.5999 34.2L53.1999 34.6V34.8L53.2999 34.9H53.3999C53.7999 34.7 54.0999 34.7 54.1999 35C54.2999 35.2 54.2999 35.3 54.1999 35.4L53.8999 35.7C53.6999 35.8 53.5999 35.8 53.3999 35.8V36H53.4999C53.6999 36 53.8999 35.9 54.0999 35.8C53.9999 35.7 54.1999 35.5 54.2999 35.4Z" fill="#4D5C75"/>
<path d="M54.6999 28.8999L57.9999 36.8999L54.7999 29.3999L48.9999 32.7999L52.1999 40.2999L51.7999 40.4999L48.3999 32.4999L54.6999 28.8999Z" fill="#9CA8C7"/>
<path d="M52.7999 33.4999C52.9999 33.3999 53.1999 33.3999 53.2999 33.3999C53.3999 33.3999 53.5999 33.4999 53.5999 33.6999C53.6999 33.7999 53.6999 33.9999 53.6999 34.0999C53.6999 34.1999 53.5999 34.2999 53.5999 34.3999L53.4999 34.4999H53.8999C53.9999 34.4999 54.0999 34.6999 54.1999 34.7999C54.2999 34.9999 54.2999 35.1999 54.1999 35.3999C54.0999 35.5999 53.9999 35.6999 53.7999 35.7999C53.5999 35.8999 53.3999 35.9999 53.1999 35.9999H53.0999V35.7999C53.2999 35.7999 53.3999 35.6999 53.5999 35.6999C53.6999 35.5999 53.8999 35.4999 53.8999 35.3999C53.9999 35.2999 53.9999 35.0999 53.8999 34.9999C53.7999 34.6999 53.4999 34.6999 53.0999 34.8999H52.9999L52.8999 34.7999V34.5999C53.0999 34.4999 53.1999 34.3999 53.2999 34.1999C53.3999 34.0999 53.3999 33.8999 53.2999 33.7999C53.1999 33.6999 53.1999 33.5999 53.0999 33.5999C52.9999 33.5999 52.8999 33.5999 52.6999 33.6999C52.4999 33.7999 52.3999 33.8999 52.2999 34.0999C52.1999 34.2999 52.2999 34.0999 52.1999 34.0999V33.9999C52.4999 33.6999 52.6999 33.5999 52.7999 33.4999ZM44.5999 49.4999C44.8999 49.4999 45.0999 49.5999 45.1999 49.8999C45.1999 49.9999 45.2999 50.0999 45.2999 50.1999C45.2999 50.2999 45.2999 50.3999 45.1999 50.5999C45.0999 50.6999 44.9999 50.7999 44.7999 50.8999C44.5999 50.9999 44.4999 50.9999 44.3999 50.9999C44.2999 50.9999 44.1999 50.9999 44.0999 50.8999C43.9999 50.7999 43.9999 50.6999 43.8999 50.5999C43.7999 50.2999 43.7999 49.9999 43.9999 49.7999L44.0999 49.6999H43.9999C43.8999 49.6999 43.7999 49.6999 43.6999 49.5999C43.5999 49.5999 43.4999 49.4999 43.4999 49.2999C43.4999 49.1999 43.3999 49.0999 43.3999 48.9999C43.3999 48.8999 43.3999 48.7999 43.4999 48.6999L43.7999 48.3999C43.8999 48.2999 44.0999 48.2999 44.1999 48.2999C44.2999 48.2999 44.3999 48.2999 44.4999 48.3999L44.6999 48.5999C44.7999 48.6999 44.7999 48.7999 44.6999 48.8999C44.6999 49.1999 44.6999 49.2999 44.5999 49.4999ZM45.0999 50.1999V49.9999C44.9999 49.7999 44.8999 49.6999 44.7999 49.6999C44.6999 49.6999 44.4999 49.6999 44.3999 49.7999L44.0999 50.0999C43.9999 50.1999 43.9999 50.3999 44.0999 50.5999C44.0999 50.6999 44.1999 50.6999 44.1999 50.7999C44.2999 50.8999 44.2999 50.8999 44.3999 50.8999C44.4999 50.8999 44.5999 50.8999 44.6999 50.7999C44.7999 50.6999 44.8999 50.6999 44.9999 50.5999C45.0999 50.3999 45.0999 50.2999 45.0999 50.1999ZM43.8999 49.5999C43.9999 49.5999 44.0999 49.5999 44.2999 49.4999L44.5999 49.1999V48.8999C44.4999 48.7999 44.4999 48.6999 44.3999 48.6999C44.2999 48.6999 44.1999 48.6999 43.9999 48.7999L43.6999 49.0999V49.4999C43.6999 49.4999 43.7999 49.5999 43.8999 49.5999ZM54.7999 53.4999C54.8999 53.3999 55.0999 53.3999 55.1999 53.4999L55.4999 53.7999C55.4999 53.8999 55.5999 53.9999 55.5999 54.0999C55.5999 54.1999 55.5999 54.2999 55.4999 54.3999C55.4999 54.4999 55.3999 54.5999 55.2999 54.5999C54.9999 54.7999 54.6999 54.5999 54.4999 54.1999C54.3999 53.7999 54.5999 53.5999 54.7999 53.4999ZM55.4999 53.9999V53.7999C55.3999 53.6999 55.3999 53.5999 55.2999 53.4999H54.9999C54.7999 53.5999 54.6999 53.7999 54.6999 54.0999C54.8999 54.4999 55.0999 54.5999 55.3999 54.3999C55.4999 54.3999 55.4999 54.2999 55.5999 54.1999C55.3999 54.1999 55.4999 54.0999 55.4999 53.9999Z" fill="#4D5C75"/>
<path d="M55.3999 53.2999C55.4999 53.3999 55.5999 53.5 55.5999 53.7C55.6999 53.8 55.6999 53.9999 55.6999 54.0999C55.6999 54.1999 55.6999 54.4 55.5999 54.5L55.2999 54.7999C54.7999 55.0999 54.3999 54.8 54.0999 54C53.9999 53.8 53.9999 53.6 53.8999 53.4V52.7999C53.9999 52.5999 54.0999 52.5 54.2999 52.4C54.3999 52.3 54.4999 52.2999 54.5999 52.2999H54.7999V52.5C54.6999 52.5 54.4999 52.4999 54.3999 52.5999C54.1999 52.6999 54.0999 52.9 54.0999 53.2C54.0999 53.4 54.0999 53.7 54.1999 53.9C54.1999 53.8 54.2999 53.6999 54.2999 53.5999L54.5999 53.2999C54.6999 53.1999 54.7999 53.2 54.8999 53.2C55.1999 53.2 55.2999 53.1999 55.3999 53.2999ZM55.4999 54.0999C55.4999 53.9999 55.4999 53.8999 55.3999 53.7999C55.2999 53.5999 55.1999 53.5 55.0999 53.5C54.9999 53.4 54.8999 53.5 54.6999 53.5C54.4999 53.6 54.2999 53.9 54.2999 54.2C54.4999 54.6 54.7999 54.6999 55.0999 54.5999C55.1999 54.5999 55.2999 54.5 55.2999 54.4C55.4999 54.3 55.4999 54.1999 55.4999 54.0999ZM60.9999 48.5999H61.0999C61.0999 48.5999 61.1999 48.6 61.1999 48.7V48.7999L61.2999 51.2V51.2999H61.1999L61.0999 51.2V51.0999L60.9999 48.7999V48.7L59.9999 49.2999H59.8999L59.7999 49.2V49L60.9999 48.5999ZM77.3999 50.5C77.4999 50.6 77.5999 50.7 77.5999 50.9C77.6999 51 77.6999 51.1999 77.6999 51.2999C77.6999 51.3999 77.6999 51.6 77.5999 51.7L77.2999 52C76.7999 52.3 76.3999 52 76.0999 51.2C76.0999 51 75.9999 50.7999 75.9999 50.5999V50C76.0999 49.8 76.1999 49.6999 76.3999 49.5999C76.4999 49.4999 76.5999 49.5 76.6999 49.5H76.8999V49.7C76.7999 49.7 76.5999 49.6999 76.4999 49.7999C76.2999 49.8999 76.1999 50.1 76.1999 50.4C76.1999 50.6 76.1999 50.8999 76.2999 51.0999L76.3999 51.2V51.0999C76.3999 50.9999 76.4999 50.8999 76.4999 50.7999L76.7999 50.5C76.8999 50.4 76.9999 50.4 77.0999 50.4C77.1999 50.4 77.2999 50.4 77.3999 50.5ZM77.5999 51.2C77.5999 51.1 77.5999 51 77.4999 50.9C77.3999 50.7 77.2999 50.5999 77.1999 50.5999C77.0999 50.4999 76.9999 50.5999 76.7999 50.5999C76.5999 50.6999 76.3999 50.9999 76.3999 51.2999C76.5999 51.6999 76.8999 51.8 77.1999 51.7C77.2999 51.6 77.3999 51.6 77.3999 51.5C77.4999 51.4 77.5999 51.3 77.5999 51.2ZM83.0999 45.7C83.1999 45.7 83.2999 45.6999 83.2999 45.7999V45.9L83.3999 48.2999V48.4H83.2999L83.1999 48.2999V48.2L83.0999 45.9V45.7999L82.0999 46.4H81.9999V46.5V46.2999L83.0999 45.7Z" fill="#4D5C75"/>
<path d="M83.2001 45.7001C83.3001 45.7001 83.3001 45.8001 83.3001 45.8001V46.0001L83.4001 48.4001V48.5001C83.4001 48.5001 83.4001 48.6001 83.3001 48.6001H83.2001L83.1001 48.5001V48.4001L83.0001 46.1001L82.1001 46.6001H82.0001L81.9001 46.5001V46.3001C81.9001 46.2001 81.9001 46.2001 82.0001 46.2001L83.1001 45.6001L83.2001 45.7001ZM83.3001 46.0001V45.9001C83.3001 45.9001 83.3001 45.8001 83.2001 45.8001H83.1001L82.0001 46.4001V46.6001L82.1001 46.7001H82.2001L83.2001 46.1001V46.2001L83.3001 48.5001V48.6001C83.3001 48.6001 83.3001 48.7001 83.4001 48.7001H83.5001V48.6001L83.3001 46.0001ZM61.7001 68.3001C61.9001 68.5001 62.1001 68.7001 62.3001 69.1001C62.5001 69.5001 62.5001 69.8001 62.5001 70.1001C62.5001 70.4001 62.3001 70.6001 62.1001 70.8001C61.9001 70.9001 61.6001 70.9001 61.4001 70.8001C61.2001 70.6001 61.0001 70.4001 60.8001 70.0001C60.6001 69.6001 60.6001 69.3001 60.6001 69.0001C60.6001 68.7001 60.8001 68.5001 61.0001 68.3001C61.3001 68.1001 61.5001 68.1001 61.7001 68.3001ZM62.4001 70.1001C62.4001 69.8001 62.4001 69.5001 62.2001 69.1001C62.0001 68.7001 61.9001 68.5001 61.7001 68.3001C61.5001 68.2001 61.3001 68.2001 61.1001 68.3001C60.9001 68.4001 60.8001 68.6001 60.7001 68.9001C60.7001 69.2001 60.7001 69.5001 60.9001 69.9001C61.1001 70.3001 61.2001 70.5001 61.4001 70.7001C61.6001 70.8001 61.8001 70.8001 62.0001 70.7001C62.3001 70.5001 62.4001 70.4001 62.4001 70.1001Z" fill="#4D5C75"/>
<path d="M72.1 29.2999C71.6 29.2999 71.2 29.2 70.7 29C69.6 28.5 68.7 27.5 68.3 26.2V26C67.4 23.2 68.4 19.9999 70.6 18.7999C70.7 18.7999 70.7 18.7 70.8 18.7C70.9 18.7 70.9 18.6 71 18.6C72.3 18 73.7 18.2 74.8 19.2C75.4 19.8 75.9 20.6 76.3 21.5C77.2 24.3 76.2 27.5 74 28.7C73.4 29.1 72.8 29.2999 72.1 29.2999ZM68.8 25.8C68.8 25.9 68.8 25.9 68.8 25.8C69.3 27.2 70.1 28.1 71 28.5C71.9 28.9 72.8 28.7999 73.7 28.2999C75.6 27.1999 76.6 24.2 75.7 21.7C75.4 20.8 74.9 20.1 74.4 19.6C73.4 18.7 72.2 18.5 71.1 19C71 19 71 19.1 70.9 19.1C70.8 19.1 70.8 19.2 70.7 19.2C68.9 20.4 67.9 23.3 68.8 25.8ZM50.4 52.2999C49.9 52.2999 49.4 52.2 48.9 52C47.7 51.5 46.8 50.4 46.3 49V48.7999C45.3 45.7999 46.4 42.4 48.7 41C48.8 41 48.8 40.9 48.9 40.9C49 40.9 49 40.7999 49.1 40.7999C50.5 40.1999 52 40.4 53.2 41.5C53.9 42.1 54.4 43 54.8 44C55.8 47 54.7 50.4 52.4 51.7C51.7 52.1 51 52.2999 50.4 52.2999ZM46.7 48.7L46.8 48.7999C47.3 50.0999 48.1 51.1 49.1 51.5C50 51.9 51.1 51.8999 52 51.2999C54.1 50.0999 55.1 46.9 54.2 44.2C53.9 43.3 53.4 42.5 52.8 41.9C51.7 41 50.4 40.6999 49.2 41.2999C49.1 41.2999 49.1 41.4 49 41.4C48.9 41.4 48.9 41.5 48.8 41.5C46.8 42.8 45.9 46 46.7 48.7ZM78.9 45.5999C78.4 45.5999 77.9 45.4999 77.4 45.2999C76.2 44.7999 75.3 43.6999 74.8 42.2999V42.0999C73.8 39.0999 74.9 35.6999 77.2 34.2999C77.3 34.2999 77.3 34.2 77.4 34.2C77.5 34.2 77.5 34.0999 77.6 34.0999C79 33.4999 80.5 33.6999 81.7 34.7999C82.4 35.3999 82.9 36.2999 83.3 37.2999C84.3 40.2999 83.2 43.7 80.9 45C80.2 45.4 79.6 45.5999 78.9 45.5999ZM75.3 42V42.0999C75.8 43.3999 76.6 44.3999 77.6 44.7999C78.5 45.1999 79.6 45.1999 80.5 44.5999C82.6 43.3999 83.6 40.2 82.7 37.5C82.4 36.6 81.9 35.8 81.3 35.2C80.2 34.3 78.9 33.9999 77.7 34.5999C77.6 34.5999 77.6 34.7 77.5 34.7C77.4 34.7 77.4 34.7999 77.3 34.7999C75.4 36.0999 74.4 39.3 75.3 42Z" fill="#4D5C75"/>
<path d="M120.7 116.4C120.7 116.4 121.5 117.3 121.5 118.7C121.5 120.1 120.9 122.7 121.1 124.5C121.3 126.3 120.5 128.1 119.8 128.6C119.1 129.1 115.9 130.8 115.3 129.7C114.7 128.6 115.6 126 115.8 125.5C116 125 117.3 117.4 117.3 117.4L120.7 116.4ZM113.3 112.3C113.3 112.3 114.9 112.9 114.9 114.8C114.9 116.7 114.6 117.2 114.6 117.2L114.3 121.8H113.7L113.4 118.2C113.4 118.2 112.9 119.2 112.8 120.4C112.7 121.6 112.5 123.1 110.3 124.2C108.1 125.3 106.2 125.3 106.5 124.4C106.8 123.5 107.9 120.6 108.1 120.2C108.3 119.8 109.9 117.4 109.9 117.4L113.3 112.3Z" fill="#1D2943"/>
<path d="M120.5 115.3C120.9 117.5 120.4 122.3 120.1 123.7C119.9 124.8 119.7 126.4 118.4 126.7C118.2 126.7 118.1 126.8 117.9 126.8C116.2 126.8 116.2 126.2 116.2 125.3C116.2 124.4 117.1 119.1 117.1 118C117.2 116.9 116.6 107.5 115.9 105C115.1 102.5 114.3 95 114.3 95L118.7 95.6L120.7 95.9C120.7 95.9 122.2 99.7 122.1 103.6C122.1 107.5 120.1 113.1 120.5 115.3ZM114.1 100.8C113.6 103.5 112.2 109 112.7 110.9C112.7 110.9 113 112.1 113.3 112.3C113.3 112.3 113.6 113.5 112.5 116.7C111.3 119.9 111.1 122.5 109.3 122.1H109.1C107.5 121.6 108.4 120.5 108.5 119.7C108.6 118.9 109.4 114.1 109.3 112.5C109.2 110.8 108.2 96.6 106.4 93.2L107.6 91.8L113 95.5L114.2 96.3C114.2 96.2 114.6 98.1 114.1 100.8Z" fill="#F4D6D4"/>
<path d="M120.5 115.3C120.9 117.5 120.4 122.3 120.1 123.7C119.9 124.8 119.7 126.4 118.4 126.7C118.4 126.5 118.5 126.3 118.5 126C118.6 125.4 118.9 124.8 119.1 124.2C119.5 122.9 119.5 121.5 119.4 120.2C119.2 113.7 119.9 107.4 119.7 100.9C119.7 99.1999 118.6 97.1999 118.7 95.4999L120.7 95.7999C120.7 95.7999 122.2 99.5999 122.1 103.5C122.1 107.5 120.1 113.1 120.5 115.3ZM114.1 100.8C113.6 103.5 112.2 109 112.7 110.9C112.7 110.9 113 112.1 113.3 112.3C113.3 112.3 113.6 113.5 112.5 116.7C111.3 119.9 111.1 122.5 109.3 122.1H109.1C109.2 122.1 109.2 122 109.3 121.9C111 120.2 111.5 117.7 111.7 115.3C111.8 114.2 111.9 113.1 111.9 112C111.9 111 111.8 110.1 111.8 109.1C111.7 107.1 112 105.2 112.2 103.2C112.2 102.8 112.3 102.3 112.4 101.9C112.6 99.7999 112.9 97.6999 113.1 95.5999V95.3999L114.3 96.1999C114.2 96.1999 114.6 98.0999 114.1 100.8Z" fill="#F5C9C6"/>
<path d="M120.5 91.4999C120.5 91.4999 120.2 94.4999 121.1 96.2999C121.1 96.2999 112.8 99.3999 106.1 92.8999L105.5 86.2999L107.7 61.3999L112.8 63.4999L120.5 91.4999Z" fill="#1D2943"/>
<path d="M88.9001 40.1001L88.2001 43.8001L87.0001 43.3001C87.0001 43.3001 86.0001 43.5001 84.2001 42.6001C82.5001 41.7001 83.5001 39.9001 83.5001 39.9001C83.5001 39.9001 80.8001 38.7001 81.2001 37.8001C81.6001 37.0001 85.1001 38.9001 85.5001 39.1001C84.9001 38.7001 84.6001 37.4001 85.3001 37.3001C86.0001 37.2001 87.9001 39.3001 87.9001 39.3001L88.9001 40.1001Z" fill="#E5C2C1"/>
<path d="M93.4001 42.3L93.3001 46.9L86.5001 43.3C86.1001 43 87.4001 39 87.9001 39.3L93.4001 42.3Z" fill="white"/>
<path d="M113.2 39.5999C113.2 39.5999 110.8 37.3999 106.7 39.8999C102.7 42.2999 98.1999 44.5999 98.1999 44.5999C94.8999 42.6999 91.6999 40.8999 88.3999 39.4999C87.8999 39.1999 86.3999 43.3999 86.7999 43.6999C89.8999 45.7999 94.0999 48.7999 98.5999 50.9999C98.6999 51.0999 98.8999 51.0999 99.0999 50.9999C101.2 50.0999 116.3 43.8999 113.2 39.5999Z" fill="#0D8C9C"/>
<path d="M120 41.6999L113.9 38.8999L111.8 39.9999L108.4 54.6999L107.8 61.3999L110 62.2999C110 62.2999 120.3 53.8999 120.3 53.6999C120.3 53.4999 122.9 46.2999 122.9 46.1999C122.9 45.9999 120 41.6999 120 41.6999Z" fill="white"/>
<path d="M120.2 59.5999C119.7 61.4999 119.2 63.1999 120 65.1999C120 65.2999 120.1 65.4 120.2 65.5C120.4 66 120.7 66.4 121.1 66.9C123.2 69.7 124.2 73.0999 123.5 77.5999C123.4 78.0999 123.3 78.7 123.2 79.3C122.6 83.2 121.6 88.8 121.3 90.8C121.2 91.3 120.9 91.8 120.4 92C119.8 92.2 119 92.4 117.9 92.4C116.2 92.3 113.7 91.4999 110.5 89.0999C110.4 88.9999 110.3 88.8999 110.3 88.6999C110.2 86.8999 109.2 75.3 109.4 67C109.5 63.2 109.8 60.4999 110.2 58.2999C110.6 56.0999 111.3 54.5 112 53C112.3 52.4 112.6 51.8999 112.9 51.2999C113.9 49.4999 115.5 47.9999 117 46.5999C118.4 45.0999 119.7 43.6 120.2 41.7C120.4 41.8 126.2 44.5999 125.7 47.2999C124.9 49.9999 120.8 57.0999 120.2 59.5999Z" fill="#25B3C6"/>
<path d="M123.4 77.6001C123.3 78.1001 123.2 78.7001 123.1 79.3001C121.8 73.9001 119.6 69.8001 115.2 69.4001L119.9 65.1001C119.9 65.2001 120 65.3001 120.1 65.4001C120.3 65.9001 120.6 66.3001 121 66.8001C123.1 69.7001 124.1 73.1001 123.4 77.6001Z" fill="#1B93A1"/>
<path d="M111.8 53.1C113.1 51.4 118 48.6 118 48.6L117.8 47.1L118.8 47.6C122.3 44.9 120 41.9 120 41.8C119.1 45.7 114.9 47.9 112.8 51.5C112.4 51.9 112.1 52.5 111.8 53.1Z" fill="#0D8C9C"/>
<path d="M105 85.8999C105 86.4999 108.2 88.4999 108.5 87.9999C108.5 87.9999 108 69.0999 108.7 62.6999C109 59.7999 109.4 56.2999 109.7 52.9999C110.1 48.8999 110.6 44.9999 111.2 43.0999C112.3 39.4999 113.9 38.8999 113.9 38.8999C113.9 38.8999 113.3 38.7999 112.6 38.6999C111.6 38.5999 110.3 38.5999 109.7 38.8999C108.6 39.4999 108.7 42.2999 108 43.2999C107.3 44.2999 105.1 47.0999 106.5 51.8999C107.9 56.6999 107.6 59.8999 107.3 61.2999C106.9 62.6999 105.2 69.6999 105.1 73.6999C104.9 77.7999 105 85.8999 105 85.8999Z" fill="#25B3C6"/>
<path d="M109.7 53C110.1 48.9 110.6 44.9999 111.2 43.0999C112.3 39.4999 113.9 38.9 113.9 38.9C113.9 38.9 113.3 38.8 112.6 38.7C112.6 38.7 110.2 40.1999 109.8 41.5999L110.9 42.2999L109.5 43C109.4 43.1 109.2 50.2 109.7 53Z" fill="#0D8C9C"/>
<path d="M107.9 46.8001C107.7 46.8001 107.7 46.6001 107.7 46.5001C108.2 44.9001 108.7 43.5001 109.3 42.2001C109.3 42.1001 109.5 42.1001 109.6 42.1001C109.7 42.1001 109.7 42.3001 109.7 42.4001C109.1 43.7001 108.6 45.1001 108.1 46.6001C108.1 46.7001 108 46.8001 107.9 46.8001Z" fill="#111D33"/>
<path d="M109.5 42.5C109.3 42.4 109.3 42.3 109.3 42.2C111.7 36.9 114.3 36 114.4 36C114.5 36 114.6 36 114.7 36.1C114.8 36.2 114.7 36.3 114.6 36.4C114.6 36.4 112.1 37.3 109.8 42.4C109.7 42.5 109.6 42.5 109.5 42.5Z" fill="#111D33"/>
<path d="M108.2 46.9001C108.1 47.2001 107.9 47.3 107.6 47.3C107.4 47.2 107.3 46.9001 107.4 46.7001C107.5 46.4001 107.7 46.3 107.9 46.3C108.3 46.3 108.3 46.6001 108.2 46.9001Z" fill="#4C5C75"/>
<path d="M112.4 50.6C112.3 50.6 112.2 50.5 112.2 50.5C111.8 49 112.9 47.6 115.5 46.3C115.6 46.3 115.7 46.3001 115.8 46.4001C115.9 46.5001 115.8 46.6001 115.7 46.7001C114 47.5001 112.2 48.9 112.6 50.5C112.6 50.5 112.5 50.6 112.4 50.6Z" fill="#111D33"/>
<path d="M115.6 46.6001C115.5 46.6001 115.5 46.6001 115.4 46.5001C115.3 46.4001 115.4 46.3001 115.5 46.2001C116.8 45.5001 118 45.1001 118.3 45.1001C122.3 41.4001 122 38.3001 122 38.3001C122 38.2001 122.1 38.1001 122.2 38.1001C122.3 38.1001 122.4 38.2001 122.4 38.3001C122.4 38.4001 122.7 41.7001 118.5 45.5001H118.4C118.4 45.5001 117.1 45.9001 115.6 46.6001ZM114.3 52.6001H114C113.9 52.6001 113.8 52.5001 113.8 52.4001C113.8 52.3001 113.9 52.2001 114 52.2001C114.9 52.4001 116.1 50.9001 117.1 48.0001C117.1 47.9001 117.3 47.8001 117.4 47.9001C117.5 47.9001 117.6 48.1001 117.5 48.2001C116.5 51.1001 115.4 52.6001 114.3 52.6001Z" fill="#111D33"/>
<path d="M117.4 48.3C117.2 48.2 117.2 48.1 117.2 48C117.8 46.5 118.1 45.2 118.1 45.2C118.1 45.1 118.2 45 118.3 45.1C118.4 45.1 118.5 45.2 118.4 45.3C118.4 45.3 118 46.6 117.5 48.1C117.6 48.2 117.5 48.3 117.4 48.3Z" fill="#111D33"/>
<path d="M117.7 47.5001C117.6 47.5001 117.6 47.5001 117.6 47.4001L116.3 46.1001C116.2 46.0001 116.2 45.9001 116.3 45.8001C116.4 45.7001 116.5 45.7001 116.6 45.8001L117.9 47.1001C118 47.2001 118 47.3001 117.9 47.4001C117.8 47.4001 117.8 47.5001 117.7 47.5001Z" fill="#111D33"/>
<path d="M112.6 51.2001C112.4 51.3001 112.2 51.1001 112.1 50.8001C112.1 50.5001 112.2 50.3001 112.4 50.2001C112.6 50.1001 112.8 50.3001 112.9 50.6001C113 50.9001 112.9 51.1001 112.6 51.2001ZM114.2 52.5001C114.1 52.7001 113.8 52.7001 113.6 52.6001C113.4 52.4001 113.3 52.2001 113.4 51.9001C113.5 51.7001 113.8 51.7001 114 51.8001C114.2 52.0001 114.3 52.3001 114.2 52.5001Z" fill="#4C5C75"/>
<path d="M113.9 41.6999C114.1 43.1999 114.8 43.4999 116.5 43.8999L120 37.9999C120 37.9999 119.6 28.8999 119.5 28.5999C119.5 28.2999 115 25.8999 115 25.8999L111.3 27.6999L109.7 31.0999L110.4 35.9999L113.9 41.6999Z" fill="#F5C9C6"/>
<path d="M114.3 46.6C114.3 46.6 117.1 45.4 118.1 44.8C119.1 44.1 125.3 38.9 124.3 31.3C123.8 27.7 121.9 25.7 120.1 24.6C117.7 23.2 114.7 23.2 112.4 24.8C111 25.8 109.7 27.5 109.8 30.2C109.8 30.2 108.8 39.2 114.1 41.6L114.6 38.4C114.6 38.4 112.9 38.9 112.5 37.9C112.1 36.9 110.4 34 111.7 32.1C111.7 32.1 111.2 30.1 111.5 29.9C111.8 29.7 116.6 27.5 116.8 27.8C116.8 28.2 121.3 38 114.3 46.6Z" fill="#AA6256"/>
<path d="M116.1 76.8L107.6 75.1L98.7998 62L108.4 64.7L116.1 76.8Z" fill="#64AFA7"/>
<path d="M114.5 70.4C113 72.4 110.2 72.9 108.8 71.2C108 70.2 109.5 69.6 110.4 69.9C111.4 70.2 112 69.5 111.3 69.1C110.5 68.7 111.4 68 112.5 67.9C113.3 67.9 113.7 67.8 113.7 67.8L114.5 70.4Z" fill="#F5C9C6"/>
<path d="M116.2 64L112 67.4C111.5 67.7 113.9 71.3 114.3 71L116.5 69.3L116.2 64Z" fill="white"/>
<path d="M123.2 44.8001C123.2 44.8001 120.4 45.4001 120.6 50.2001C120.8 54.8001 120.9 60.0001 120.9 60.0001L112.1 67.3001C111.6 67.6001 114 71.2001 114.5 70.9001L125.4 63.1001C125.8 62.8001 126.1 62.4001 126.2 61.8001C126.6 58.2001 127.5 43.7001 123.2 44.8001Z" fill="#0D8C9C"/>
</svg>
