<svg width="132" height="137" viewBox="0 0 132 137" fill="none" xmlns="http://www.w3.org/2000/svg">
<path d="M78.9802 80.216C79.0151 81.4028 78.1424 82.8688 77.1302 83.4622L26.3075 112.818C25.784 113.097 25.2953 113.132 24.9462 112.923L18.7679 109.327C18.4189 109.118 18.2094 108.699 18.2094 108.106L18 34.8735C18 33.6518 18.8377 32.1858 19.8849 31.5924L70.6726 2.27163C71.1962 1.95748 71.6849 1.92257 72.034 2.13201L78.2472 5.7622C78.5613 5.93673 78.7707 6.35559 78.8057 6.94899L78.9802 80.216Z" fill="#AA6256"/>
<path d="M78.2437 5.75191C77.8946 5.54946 77.4199 5.58436 76.8998 5.87757L26.0946 35.2158C25.0579 35.8092 24.2097 37.2717 24.2097 38.4655L24.4226 111.722C24.4226 112.315 24.6321 112.738 24.9741 112.93L18.7609 109.324C18.4224 109.125 18.2094 108.71 18.2094 108.12L18 34.8632C18 33.666 18.8447 32.1964 19.8814 31.603L70.6761 2.27531C71.2067 1.96814 71.6814 1.93673 72.02 2.13569L78.2437 5.75191Z" fill="#DBA660"/>
<path d="M76.9 5.88433C77.9402 5.28396 78.7849 5.76566 78.7884 6.95943L78.9978 80.2194C78.9978 81.4132 78.1601 82.8722 77.1199 83.4726L26.3147 112.804C25.2815 113.401 24.4298 112.923 24.4228 111.725L24.2134 38.4688C24.2134 37.275 25.0616 35.8124 26.0948 35.2156L76.9 5.88433Z" fill="#AA6256"/>
<path d="M75.3991 10.293L75.5981 80.8024L27.8122 108.392L27.6133 37.8824L75.3991 10.293Z" fill="white"/>
<path d="M38.0919 26.971L62.4735 12.7993L62.4701 14.1746L38.085 28.3463L38.0919 26.971Z" fill="#A4A5A5"/>
<path d="M63.7617 19.2359C63.7617 21.9586 61.8418 25.2397 59.5032 26.601L43.5513 35.8161C42.8881 36.2001 42.2249 36.4095 41.6664 36.4095C41.2475 36.4095 40.8286 36.3048 40.5145 36.0954L39.0484 35.2576C38.2805 34.8038 37.7918 33.8614 37.7918 32.5001V28.1718L31.7183 24.6812V23.285L56.1173 9.11328L62.2258 12.6737L62.4702 12.8133L63.7267 13.5114V13.5463L63.7617 19.2359Z" fill="#AEB6CD"/>
<path d="M38.0919 26.971L38.0849 28.3428L31.7251 24.6707V23.2954L38.0919 26.971Z" fill="#AEB6CD"/>
<path d="M40.5318 36.1092L39.0379 35.2435C38.2769 34.7967 37.8022 33.8473 37.8022 32.4999L37.7812 26.7754L39.2717 27.648L39.2927 33.3691C39.2927 34.7129 39.7674 35.6659 40.5318 36.1092Z" fill="#AEB6CD"/>
<path d="M63.7265 13.5251L39.2856 27.6549L38.0883 26.9637L37.7881 26.7822L31.7285 23.3021L56.1031 9.12695L62.2326 12.6734L62.4629 12.813L63.7265 13.5251Z" fill="#E2E5EF"/>
<path d="M63.7303 13.5322L63.7443 19.2533C63.7547 21.9619 61.8559 25.2501 59.4962 26.6114L43.5618 35.809C41.2126 37.1703 39.3033 36.0778 39.2928 33.3691L39.2754 27.6481L63.7303 13.5322Z" fill="#C8CDE0"/>
<path d="M66.0931 70.861C68.4981 69.4752 70.4528 70.5887 70.4563 73.3498C70.4668 76.1108 68.526 79.4757 66.121 80.8649C63.7195 82.2507 61.7648 81.1372 61.7578 78.3762C61.7509 75.6116 63.6916 72.2467 66.0931 70.861Z" fill="#64AFA7"/>
<path d="M67.8315 76.6486L66.4806 76.3902L66.5923 78.1704L65.6394 78.7219L65.7406 76.7952L64.4037 78.6103L63.915 77.9505L65.3671 76.282L63.9185 76.31L64.3898 75.0778L65.7232 75.3291L65.6289 73.5524L66.5749 73.0044L66.4946 74.8788L67.821 73.1231L68.2922 73.7828L66.8506 75.4268L68.2992 75.4234L67.8315 76.6486Z" fill="white"/>
<path d="M70.659 28.3183C71.6783 27.7319 72.8686 27.7005 73.4934 28.6848C73.9821 29.4527 74.2159 30.9677 72.6347 33.8509C69.8667 38.8982 68.2715 40.2177 68.1842 40.2875C68.1005 40.3154 66.5018 40.839 63.7163 39.0029C62.1211 37.9523 62.3445 36.1756 62.8297 34.8457C63.444 33.1527 64.6239 31.8054 65.6536 31.2085C67.1859 30.3254 68.1109 31.1457 68.1598 31.1876C68.2087 31.0898 69.1267 29.2049 70.659 28.3183Z" fill="#DF3260"/>
<path d="M67.7475 37.5788L67.5171 34.8248L67.4717 35.3204C67.4228 35.8545 66.8225 36.1477 66.6444 35.7742L66.2361 34.9539L65.9847 35.5089C65.9243 35.6503 65.822 35.7697 65.6915 35.851L63.674 37.0169C63.6379 37.0328 63.5972 37.0348 63.5596 37.0226C63.5221 37.0104 63.4904 36.9848 63.4705 36.9507C63.4507 36.9166 63.4441 36.8764 63.452 36.8377C63.4599 36.7991 63.4818 36.7647 63.5134 36.7411L65.5344 35.5753C65.6061 35.5274 65.662 35.4594 65.695 35.3798L66.0825 34.5176C66.1069 34.4618 66.1732 34.4199 66.2256 34.4234C66.2884 34.4234 66.3408 34.4583 66.3687 34.5106L66.9272 35.6276L66.997 35.5892C67.085 35.5133 67.1422 35.4077 67.1576 35.2925L67.367 32.9608C67.367 32.9192 67.3835 32.8792 67.413 32.8497C67.4425 32.8203 67.4824 32.8037 67.5241 32.8037C67.5657 32.8037 67.6057 32.8203 67.6351 32.8497C67.6646 32.8792 67.6811 32.9192 67.6811 32.9608L68.0651 37.5509C68.0581 37.5684 68.0791 37.5684 68.1175 37.5509C68.2013 37.4874 68.2615 37.3977 68.2885 37.2961L69.6917 32.0986C69.7003 32.0674 69.7183 32.0395 69.7433 32.0189C69.7683 31.9983 69.799 31.9859 69.8313 31.9835C69.8638 31.9799 69.8965 31.9869 69.9247 32.0032C69.9529 32.0195 69.9753 32.0444 69.9884 32.0742L70.3165 32.7863L70.3549 32.7688L72.6587 31.4424C72.6948 31.4216 72.7377 31.416 72.778 31.4268C72.8182 31.4376 72.8525 31.4639 72.8734 31.5C72.8942 31.5361 72.8998 31.579 72.889 31.6193C72.8782 31.6595 72.8519 31.6939 72.8158 31.7147L70.512 33.0411C70.4686 33.0694 70.4199 33.0883 70.3688 33.0967C70.3177 33.1051 70.2654 33.1028 70.2153 33.09C70.1752 33.0769 70.1383 33.0555 70.1071 33.0273C70.0758 32.999 70.0508 32.9645 70.0338 32.9259L69.8837 32.6048L68.5922 37.3799C68.4316 37.9803 67.7859 38.0431 67.7475 37.5788Z" fill="white"/>
<path d="M59.9709 32.0498L31.9521 48.2111V50.1484L59.9709 33.9766V32.0498ZM59.9709 37.8686L31.9521 54.0299V55.9637L59.9709 39.7954V37.8686ZM59.9709 43.6839L31.9521 59.8452V61.7824L59.9709 45.6141V43.6839ZM72.0657 42.525L31.9521 65.6605V67.5977L72.0657 44.4483V42.525ZM72.0657 48.3438L31.9521 71.4827V73.4165L72.0657 50.2706V48.3438ZM72.0657 54.159L31.9521 77.3015V79.2353L72.0657 56.0893V54.159ZM72.0657 59.9778L31.9521 83.1133V85.0505L72.0657 61.9011V59.9778ZM59.9709 72.7742L31.9521 88.9356V90.8693L59.9709 74.701V72.7742ZM59.9709 78.5895L31.9521 94.7508V96.6881L59.9709 80.5198V78.5895Z" fill="#E3E7F0"/>
<path d="M89.5169 38.6434V37.6184L88.6359 37.2724C88.3575 37.1645 88.1214 36.9695 87.9629 36.7164C87.5429 36.0384 86.6299 34.7004 85.9989 34.7544C84.9709 34.8444 85.9229 36.2704 85.9229 36.2704C85.9229 36.2704 82.5719 33.8704 81.8089 34.6714C81.0499 35.4764 83.6479 36.8554 83.6479 36.8554C83.6479 36.8554 82.6519 37.4634 82.9149 38.9184C83.2029 40.5104 85.2739 40.5424 86.0429 40.4984C86.2415 40.4884 86.438 40.5432 86.6029 40.6544L87.7749 41.4344L90.2429 38.6434H89.5169Z" fill="#AC7159"/>
<path d="M86.8311 40.8582C87.2061 41.1202 89.6011 37.6902 89.2251 37.4282L89.9491 37.8482C90.3251 38.1102 87.9311 41.5412 87.5551 41.2782L86.8311 40.8582Z" fill="#DEDFFB"/>
<path d="M111.717 46.6V46.08H111.893L111.613 46.023C103.763 44.431 95.3457 41.087 89.9267 37.65C89.8527 37.6 89.7717 37.644 89.7527 37.727C89.6627 38.205 88.9497 39.331 88.2917 40.187C87.9217 40.662 87.5707 41.044 87.3367 41.195C87.2667 41.239 87.2477 41.342 87.3217 41.392C88.7557 42.417 98.0947 48.775 101.15 48.98L110.82 48.01L111.931 46.6H111.717Z" fill="#1C93A1"/>
<path d="M111.779 45.8192L111.283 46.4462L101.613 47.4162C98.817 47.2262 90.611 41.8182 88.292 40.1862C88.95 39.3312 89.663 38.2062 89.753 37.7272C89.772 37.6442 89.851 37.6042 89.927 37.6502C95.345 40.9912 103.131 43.3972 111.779 45.8192Z" fill="#25B3C6"/>
<path d="M112.447 122.356C112.534 123.163 112.677 124.426 112.752 125.234C112.768 125.41 112.785 125.586 112.777 125.752C112.786 125.976 112.771 126.19 112.695 126.398C112.602 126.667 112.422 126.884 112.228 127.08C111.923 127.37 111.562 127.596 111.168 127.742C110.773 127.889 110.352 127.954 109.932 127.933C109.349 127.893 108.786 127.686 108.245 127.465C105.694 125.837 103.362 123.785 101.211 121.387C100.931 121.07 100.733 120.69 100.633 120.279C100.533 119.869 100.534 119.44 100.636 119.03C100.67 118.885 100.716 118.74 100.785 118.603C100.968 118.164 101.268 117.783 101.652 117.501C102.036 117.219 102.489 117.048 102.963 117.004C103.374 116.968 103.788 117.026 104.173 117.174L112.185 120.324C112.482 120.84 112.392 121.77 112.447 122.356Z" fill="#B0B8CF"/>
<path d="M112.447 122.356C112.534 123.163 112.677 124.426 112.752 125.234C112.768 125.41 112.785 125.586 112.777 125.752C112.685 125.902 112.567 126.043 112.438 126.174C112.133 126.464 111.773 126.69 111.378 126.836C110.984 126.983 110.563 127.048 110.143 127.027C109.56 126.987 108.997 126.78 108.456 126.559C105.904 124.93 103.573 122.879 101.422 120.481C101.195 120.227 101.021 119.93 100.912 119.607C100.803 119.284 100.759 118.943 100.785 118.603C100.969 118.164 101.268 117.783 101.652 117.501C102.036 117.219 102.489 117.048 102.963 117.004C103.374 116.968 103.788 117.026 104.173 117.174L112.185 120.324C112.482 120.84 112.392 121.77 112.447 122.356Z" fill="#E3E7F0"/>
<path d="M102.549 133.962C102.534 134.132 102.507 134.3 102.467 134.466C102.386 134.786 102.236 135.086 101.97 135.27C101.82 135.372 101.65 135.433 101.473 135.48C100.693 135.699 99.8848 135.8 99.075 135.78C97.325 135.726 95.642 135.092 93.933 134.731C93.166 134.576 92.4087 134.376 91.665 134.132C91.3467 134.035 91.0386 133.908 90.745 133.751C89.845 133.247 89.158 132.45 88.995 131.435C88.9649 131.215 88.9761 130.991 89.028 130.774C89.069 130.624 89.165 130.488 89.267 130.372C89.5214 130.077 89.8542 129.859 90.227 129.745C91.269 129.398 92.305 129.63 93.347 129.698C93.98 129.732 94.607 129.711 95.241 129.684C95.745 129.671 96.249 129.65 96.739 129.541C97.639 129.351 98.456 128.881 99.293 128.499C99.763 128.288 100.253 128.104 100.758 128.015C101.098 127.955 101.664 127.859 101.984 128.049C102.311 128.247 102.29 128.826 102.331 129.153C102.351 129.343 102.386 129.521 102.399 129.711L102.563 132.45C102.599 132.954 102.595 133.459 102.549 133.962Z" fill="#B0B8CF"/>
<path d="M102.549 133.962C102.534 134.132 102.507 134.3 102.467 134.466C102.461 134.473 102.447 134.479 102.44 134.486C102.29 134.588 102.12 134.643 101.943 134.691C101.164 134.917 100.355 135.018 99.5446 134.991C97.7946 134.936 96.1116 134.302 94.4026 133.941C93.6362 133.785 92.8788 133.587 92.1336 133.349C91.8156 133.249 91.5079 133.119 91.2146 132.96C90.3146 132.456 89.6276 131.66 89.4576 130.645C89.4394 130.489 89.4414 130.331 89.4636 130.175C89.6816 129.977 89.9476 129.834 90.2266 129.745C91.2686 129.398 92.3046 129.63 93.3466 129.698C93.9796 129.732 94.6066 129.711 95.2406 129.684C95.7446 129.671 96.2486 129.65 96.7386 129.541C97.6386 129.351 98.4556 128.881 99.2926 128.499C99.7626 128.288 100.253 128.104 100.758 128.015C101.098 127.955 101.664 127.859 101.984 128.049C102.311 128.247 102.29 128.826 102.331 129.153C102.351 129.343 102.386 129.521 102.399 129.711L102.563 132.45C102.599 132.954 102.594 133.459 102.549 133.962Z" fill="#E3E7F0"/>
<path d="M94.757 84.9834V85.9904H92.999C94.477 98.4614 95.5 117.128 96.029 129.331C96.029 130.203 97.859 130.381 99.543 130.109C100.976 129.878 102.303 129.316 102.303 128.573L102.766 104.514V85.8114L94.757 84.9834Z" fill="#455368"/>
<path d="M102.765 88.1642V104.514L102.303 128.574C102.303 129.316 100.976 129.878 99.543 130.109C98.974 117.95 97.936 99.6032 96.459 87.5122L102.765 88.1642Z" fill="#4C5C75"/>
<path d="M109.668 83.2273V80.3003L105.07 81.8163V100.406C105.07 100.824 105.086 101.24 105.115 101.656L105.97 120.837C105.75 121.737 107.976 123.39 109.752 123.693C111.088 123.919 112.332 123.816 112.498 123.142C112.628 111.539 113.078 95.3383 113.811 83.2273H109.668Z" fill="#455368"/>
<path d="M112.65 83.2271L108.613 84.5571V103.149C108.613 103.565 108.628 103.982 108.658 104.396L109.752 123.693C111.088 123.919 112.332 123.816 112.498 123.142C112.628 111.539 113.078 95.3381 113.811 83.2271H112.65Z" fill="#4C5C75"/>
<path d="M97.3848 31.9991C97.3848 31.9991 94.9598 38.7371 97.0248 43.9521C97.3208 44.7021 98.0778 45.1661 98.8768 45.0521L100.577 44.8091C100.64 44.7993 100.705 44.803 100.766 44.82C100.828 44.8369 100.886 44.8667 100.935 44.9074C100.984 44.9481 101.024 44.9988 101.053 45.0561C101.081 45.1135 101.097 45.1762 101.1 45.2401C101.13 46.4231 101.031 47.7671 100.864 49.1961L109.488 46.0601L108.288 43.5501L103.931 37.3271L100.329 31.3711L97.3848 31.9991Z" fill="#AC7159"/>
<path d="M112.708 46.5293C115.278 48.6863 115.143 53.1653 114.108 56.6963C113.462 58.9033 113.071 61.1783 113.184 63.4763L114.538 86.8153C115.665 94.3083 93.1778 102.119 92.2568 95.4823C92.3108 90.3463 93.6838 53.7643 93.6838 53.7643C93.6803 53.733 93.6834 53.7013 93.6931 53.6713C93.7028 53.6413 93.7187 53.6137 93.7398 53.5903C94.3398 52.9303 99.3658 47.9503 110.922 45.6733C111.635 45.6083 112.138 45.9533 112.708 46.5293Z" fill="#25B3C6"/>
<path d="M101.05 47.2213C100.86 48.5113 99.2649 49.6543 98.5649 50.0413C103.417 50.7983 106.595 49.9653 110.012 47.7093C110.135 47.6266 110.226 47.5045 110.27 47.3631C110.315 47.2217 110.31 47.0694 110.256 46.9313C110.008 46.2833 109.646 45.7973 109.189 45.4453C106.883 47.0333 104.382 47.4393 101.05 47.2213Z" fill="#0D8C9C"/>
<path d="M105.615 43.1474C104.918 39.7844 102.813 38.4514 100.527 38.8534C100.06 38.9364 99.667 38.5394 99.784 38.0794C100.113 36.7914 100.141 35.5194 99.742 34.2694C99.602 33.8334 99.24 33.4924 98.787 33.4224C96.591 33.0874 95.867 32.1814 95.977 30.9524C96.018 30.4814 96.39 29.8904 96.807 29.6664C99.294 28.3304 102.183 27.7994 105.472 28.0674C107.216 28.2104 109.586 29.3514 110.552 30.8104C111.387 32.0704 111.761 33.6304 111.595 35.5454C111.477 36.9054 111.05 38.2204 110.473 39.4564L108.431 43.8314L106.936 44.0684C106.64 44.114 106.337 44.0437 106.091 43.8723C105.845 43.7008 105.675 43.4412 105.615 43.1474Z" fill="#594650"/>
<path d="M77.474 69.0711C77.474 69.0711 76.559 66.5431 75.544 66.5611C74.312 66.5821 75.242 68.2341 75.242 68.2341C75.242 68.2341 72.341 66.8151 71.292 68.8641C69.442 72.4821 76.989 72.2691 76.989 72.2691L77.474 69.0711Z" fill="#AC7159"/>
<path d="M79.2021 68.096L77.4751 68.036C76.2301 67.945 75.8991 72.415 77.1431 72.506L80.1411 72.809L79.2021 68.096Z" fill="#DEDFFB"/>
<path d="M99.0758 57.9613C99.0295 58.1437 98.9727 58.3234 98.9058 58.4993L94.7028 72.2983L94.6228 72.4923C94.4119 73.0357 94.0322 73.4971 93.5395 73.8085C93.0468 74.1199 92.4671 74.265 91.8858 74.2223L77.6708 72.7223C77.0278 72.6733 76.7758 71.5583 76.8438 70.4083C76.8918 69.1643 77.3278 67.8813 78.0188 67.9313L88.6328 68.3113C88.7858 68.3125 88.9345 68.2609 89.054 68.1653C89.1735 68.0697 89.2564 67.9358 89.2888 67.7863L91.5908 56.2433C91.8195 55.2514 92.4324 54.3907 93.295 53.8502C94.1576 53.3097 95.1994 53.1335 96.1918 53.3603C96.5218 53.4323 96.8318 53.5483 97.1218 53.7083C97.8702 54.1033 98.4674 54.7342 98.8207 55.5031C99.174 56.2721 99.2636 57.1362 99.0758 57.9613Z" fill="#1C93A1"/>
<path d="M97.1217 53.7083C97.2647 54.2823 97.2898 54.8993 97.1468 55.5203C97.1005 55.7027 97.0437 55.8824 96.9768 56.0583L92.7738 69.8583L92.6938 70.0513C92.4831 70.5949 92.1034 71.0564 91.6107 71.3681C91.118 71.6797 90.5382 71.8249 89.9568 71.7823L76.8438 70.4083C76.8918 69.1643 77.3278 67.8813 78.0188 67.9313L88.6328 68.3113C88.7858 68.3124 88.9345 68.2609 89.054 68.1653C89.1735 68.0697 89.2564 67.9358 89.2887 67.7863L91.5908 56.2433C91.8192 55.2511 92.432 54.3902 93.2947 53.8495C94.1573 53.3088 95.1992 53.1325 96.1917 53.3593C96.5217 53.4323 96.8317 53.5483 97.1217 53.7083Z" fill="#23A8BA"/>
</svg>
