<svg id="Layer_1" height="512" viewBox="0 0 512 512" width="512" xmlns="http://www.w3.org/2000/svg"><g><g><path d="m464 448h-416c-17.673 0-32-14.327-32-32v-304h480v304c0 17.673-14.327 32-32 32z" fill="#463c4b"/></g><g><path d="m432 448h-384c-17.673 0-32-14.327-32-32v-304h448v304c0 17.673-14.327 32-32 32z" fill="#555a6e"/></g><g><path d="m272 448h-224c-17.673 0-32-14.327-32-32v-304h256z" fill="#463c4b"/></g><g><path d="m464 64h-416c-17.673 0-32 14.327-32 32v16h480v-16c0-17.673-14.327-32-32-32z" fill="#804b8f"/></g><g><path d="m432 64h-384c-17.673 0-32 14.327-32 32v16h448v-16c0-17.673-14.327-32-32-32z" fill="#9b5faa"/></g><g><circle cx="56" cy="88" fill="#91c83c" r="8"/></g><g><circle cx="88" cy="88" fill="#91c83c" r="8"/></g><g><circle cx="120" cy="88" fill="#91c83c" r="8"/></g><g><g><path d="m229.579 208c-4.326 0-8.193-2.676-9.733-6.718-.45-1.18-.933-2.343-1.45-3.489-1.785-3.959-.958-8.604 2.113-11.675l.004-.004c4.07-4.07 4.07-10.668 0-14.738l-7.889-7.889c-2.035-2.035-4.702-3.052-7.369-3.052h-27.335c-1.219-1.72-1.919-3.806-1.919-6.013 0-5.756-4.666-10.422-10.421-10.422h-43.157c-5.755 0-10.421 4.666-10.421 10.422 0 2.207-.7 4.293-1.919 6.013h-27.338c-2.667 0-5.334 1.017-7.369 3.052l-7.889 7.889c-4.07 4.07-4.07 10.668 0 14.738l.004.004c3.071 3.071 3.898 7.716 2.113 11.675-.517 1.145-1 2.309-1.45 3.489-1.541 4.042-5.407 6.718-9.733 6.718-5.755 0-10.421 4.666-10.421 10.422v11.157c0 5.755 4.666 10.421 10.421 10.421 4.325 0 8.192 2.676 9.733 6.718.45 1.18.933 2.343 1.45 3.489 1.785 3.959.958 8.604-2.113 11.675l-.004.004c-4.07 4.07-4.07 10.668 0 14.738l7.889 7.889c2.035 2.035 4.702 3.052 7.369 3.052h27.335c1.219 1.72 1.919 3.806 1.919 6.013 0 5.756 4.666 10.422 10.421 10.422h43.157c5.755 0 10.421-4.666 10.421-10.422 0-2.207.7-4.293 1.919-6.013h27.335c2.667 0 5.334-1.017 7.369-3.052l7.889-7.889c4.07-4.07 4.07-10.668 0-14.738l-.004-.004c-3.071-3.071-3.898-7.716-2.113-11.675.517-1.145 1-2.309 1.45-3.489 1.541-4.042 5.407-6.718 9.733-6.718 5.755 0 10.421-4.666 10.421-10.422v-11.157c.003-5.755-4.663-10.421-10.418-10.421zm-93.502 17.948c-.62-7.867 2.556-15.014 7.891-19.807 4.468 4.002 7.46 9.627 7.955 15.911.62 7.867-2.556 15.014-7.891 19.807-4.468-4.002-7.459-9.627-7.955-15.911z" fill="#5faa46"/></g><g><g><path d="m208 229.578v-11.157c0-5.756-4.666-10.422-10.422-10.422-4.326 0-8.193-2.676-9.733-6.718-.45-1.18-.933-2.343-1.45-3.489-1.785-3.959-.958-8.604 2.113-11.675l.004-.004c4.07-4.07 4.07-10.668 0-14.738l-7.889-7.889c-4.07-4.07-10.668-4.07-14.738 0l-.004.004c-3.071 3.071-7.715 3.898-11.674 2.113-1.145-.516-2.309-1-3.489-1.45-4.042-1.54-6.718-5.407-6.718-9.733 0-5.756-4.666-10.422-10.422-10.422h-11.157c-5.756 0-10.422 4.666-10.422 10.422 0 4.326-2.676 8.193-6.718 9.733-1.18.45-2.343.933-3.489 1.45-3.959 1.785-8.604.958-11.674-2.113l-.004-.004c-4.07-4.07-10.668-4.07-14.738 0l-7.889 7.889c-4.07 4.07-4.07 10.668 0 14.738l.004.004c3.071 3.071 3.898 7.716 2.113 11.675-.516 1.145-1 2.309-1.45 3.489-1.54 4.042-5.407 6.718-9.733 6.718-5.755.001-10.421 4.667-10.421 10.423v11.157c0 5.755 4.666 10.421 10.422 10.421 4.326 0 8.193 2.676 9.733 6.718.45 1.18.933 2.343 1.45 3.489 1.785 3.959.958 8.604-2.113 11.675l-.004.004c-4.07 4.07-4.07 10.668 0 14.738l7.889 7.889c4.07 4.07 10.668 4.07 14.738 0l.004-.004c3.071-3.071 7.715-3.898 11.674-2.113 1.145.516 2.309 1 3.489 1.45 4.042 1.54 6.718 5.407 6.718 9.733 0 5.756 4.666 10.422 10.422 10.422h11.157c5.756 0 10.422-4.666 10.422-10.422 0-4.326 2.676-8.193 6.718-9.733 1.18-.45 2.343-.933 3.489-1.45 3.959-1.785 8.604-.957 11.674 2.113l.004.004c4.07 4.07 10.668 4.07 14.738 0l7.889-7.889c4.07-4.07 4.07-10.668 0-14.738l-.004-.004c-3.071-3.071-3.898-7.716-2.113-11.675.516-1.145 1-2.309 1.45-3.489 1.54-4.042 5.407-6.718 9.733-6.718 5.755 0 10.421-4.666 10.421-10.422zm-56.077-7.526c1.166 14.788-11.082 27.037-25.87 25.871-11.633-.917-21.058-10.342-21.976-21.975-1.166-14.788 11.082-27.037 25.87-25.871 11.634.917 21.059 10.342 21.976 21.975z" fill="#91c83c"/></g></g></g><g><g><path d="m104 408c-2.047 0-4.095-.781-5.657-2.343l-32-32c-3.125-3.124-3.125-8.189 0-11.313l32-32c3.124-3.124 8.189-3.124 11.313 0 3.125 3.124 3.125 8.189 0 11.313l-26.342 26.343 26.343 26.343c3.125 3.124 3.125 8.189 0 11.313-1.562 1.563-3.61 2.344-5.657 2.344z" fill="#a5c3dc"/></g><g><path d="m184 408c-2.047 0-4.095-.781-5.657-2.343-3.125-3.124-3.125-8.189 0-11.313l26.343-26.344-26.343-26.343c-3.125-3.124-3.125-8.189 0-11.313 3.124-3.124 8.189-3.124 11.313 0l32 32c3.125 3.124 3.125 8.189 0 11.313l-32 32c-1.561 1.562-3.609 2.343-5.656 2.343z" fill="#a5c3dc"/></g><g><path d="m127.994 408.002c-1.202 0-2.423-.272-3.571-.847-3.952-1.976-5.554-6.781-3.578-10.733l32-64c1.976-3.952 6.781-5.554 10.733-3.578s5.554 6.781 3.578 10.733l-32 64c-1.402 2.804-4.228 4.425-7.162 4.425z" fill="#a5c3dc"/></g></g><g><g><path d="m344 192h-48c-4.418 0-8-3.582-8-8 0-4.418 3.582-8 8-8h48c4.418 0 8 3.582 8 8 0 4.418-3.582 8-8 8z" fill="#91c83c"/></g><g><path d="m360 352h-64c-4.418 0-8-3.582-8-8 0-4.418 3.582-8 8-8h64c4.418 0 8 3.582 8 8 0 4.418-3.582 8-8 8z" fill="#463c4b"/></g><g><path d="m408 384h-112c-4.418 0-8-3.582-8-8 0-4.418 3.582-8 8-8h112c4.418 0 8 3.582 8 8 0 4.418-3.582 8-8 8z" fill="#463c4b"/></g><g><path d="m440 352h-48c-4.418 0-8-3.582-8-8 0-4.418 3.582-8 8-8h48c4.418 0 8 3.582 8 8 0 4.418-3.582 8-8 8z" fill="#463c4b"/></g><g><path d="m360 224h-48c-4.418 0-8-3.582-8-8 0-4.418 3.582-8 8-8h48c4.418 0 8 3.582 8 8 0 4.418-3.582 8-8 8z" fill="#91c83c"/></g><g><path d="m440 224h-48c-4.418 0-8-3.582-8-8 0-4.418 3.582-8 8-8h48c4.418 0 8 3.582 8 8 0 4.418-3.582 8-8 8z" fill="#d7e6f0"/></g><g><path d="m360 256h-48c-4.418 0-8-3.582-8-8 0-4.418 3.582-8 8-8h48c4.418 0 8 3.582 8 8 0 4.418-3.582 8-8 8z" fill="#91c83c"/></g><g><path d="m440 256h-48c-4.418 0-8-3.582-8-8 0-4.418 3.582-8 8-8h48c4.418 0 8 3.582 8 8 0 4.418-3.582 8-8 8z" fill="#d7e6f0"/></g><g><path d="m360 288h-48c-4.418 0-8-3.582-8-8 0-4.418 3.582-8 8-8h48c4.418 0 8 3.582 8 8 0 4.418-3.582 8-8 8z" fill="#91c83c"/></g><g><path d="m440 288h-48c-4.418 0-8-3.582-8-8 0-4.418 3.582-8 8-8h48c4.418 0 8 3.582 8 8 0 4.418-3.582 8-8 8z" fill="#d7e6f0"/></g></g></g></svg>