<svg width="20" height="20" viewBox="0 0 20 20" fill="none" xmlns="http://www.w3.org/2000/svg">
<g opacity="0.4" clip-path="url(#clip0_1680_388)">
<path d="M4.34194 14.9788C4.2485 15.056 4.15913 15.1372 4.07381 15.2185C4.03319 15.2591 3.99256 15.2997 3.95194 15.3363L3.91537 15.3729L3.89912 15.3851L3.89506 15.3891L3.88287 15.4054L3.81381 15.4826C3.76506 15.5394 3.72443 15.5963 3.68787 15.6491C3.66756 15.6288 3.64724 15.6044 3.62693 15.5841C3.49693 15.4622 3.40349 15.3119 3.28974 15.1738C3.18411 15.0316 3.06223 14.9016 2.9688 14.7513C2.78598 14.4507 2.57066 14.1622 2.42441 13.8372C2.34722 13.6788 2.25785 13.5244 2.18472 13.3619L1.98972 12.8663C1.3844 11.3631 1.31127 9.9534 0.909076 10.0753C0.742511 10.1322 0.612509 10.4775 0.53532 11.0584C0.527195 11.3469 0.527195 11.6922 0.559696 12.0822C0.592196 12.2731 0.628759 12.4763 0.673447 12.6916C0.697823 12.7972 0.714073 12.9069 0.746574 13.0166C0.783137 13.1263 0.8197 13.236 0.856263 13.3497C1.10408 14.1703 1.5144 14.93 1.96941 15.6572C2.22128 16.0066 2.45691 16.3682 2.75754 16.681L2.97286 16.9248C3.04192 17.006 3.11505 17.0873 3.1963 17.1604L3.66756 17.6032C4.32569 18.1638 5.03664 18.6717 5.82884 19.0373C6.21072 19.2445 6.62917 19.3786 7.03542 19.5289C7.23855 19.602 7.45387 19.6426 7.66106 19.7036C7.87231 19.7564 8.07544 19.8214 8.30294 19.8457L8.8392 19.9229L9.10733 19.9595L9.35108 19.9717L9.83859 19.992L9.96047 19.9961L10.0214 20.0001H10.1189L10.3789 19.9879C10.7283 19.9636 11.0777 19.9676 11.4189 19.8986C11.7642 19.8417 12.1096 19.8011 12.4427 19.6954C13.7955 19.3542 15.0671 18.7204 16.1518 17.8592C17.2365 16.9979 18.1465 15.9132 18.7722 14.6822L18.9915 14.215C19.0606 14.0566 19.1459 13.9063 19.1947 13.7397L19.4506 13.0085C19.475 12.9272 19.4912 12.8419 19.5156 12.7566L19.6375 12.2569C19.6578 12.1716 19.6822 12.0903 19.6944 12.005L19.7309 11.7409C19.7756 11.3916 19.8447 11.03 19.8406 10.7172C19.9828 9.51058 19.8853 8.23088 19.5359 7.02836C19.1906 5.81771 18.5934 4.67207 17.7972 3.6808C17.0131 2.6936 16.0218 1.85265 14.8965 1.23108L14.0312 0.808572C13.7305 0.690758 13.4299 0.581069 13.1293 0.471379C12.8205 0.382003 12.5077 0.304814 12.1989 0.223563C11.878 0.158562 11.5408 0.117936 11.2117 0.0651231L11.0858 0.0488728L10.9761 0.0407477L10.7527 0.02856L10.3098 0.0082472L10.2002 0.00418463L10.1433 0.00012207H10.0417L9.08295 0.0488728C9.0017 0.056998 8.92451 0.0732482 8.84326 0.0813733L8.36794 0.154499C8.047 0.191063 7.73825 0.288564 7.42543 0.365753C6.18635 0.707008 5.01227 1.29202 3.99662 2.07609C2.97692 2.86017 2.10753 3.83518 1.4494 4.93614C1.36815 5.07426 1.27471 5.20833 1.20564 5.35052L0.99439 5.78521C0.925326 5.93146 0.848138 6.07365 0.791262 6.21991L0.620634 6.67085C0.567821 6.82117 0.506882 6.97148 0.458132 7.1218L0.214378 8.05619L0.133126 8.55182C0.0315623 9.05558 0.165627 9.68934 0.250941 9.90871C0.433756 10.3272 0.612509 9.80309 0.803449 9.01089C1.16096 7.70681 1.77034 6.39053 2.66004 5.20833C2.7616 5.05395 2.89567 4.92395 3.01348 4.7777L3.28161 4.46082L3.38318 4.35925C3.51724 4.22925 3.64724 4.09519 3.78131 3.96112L3.88287 3.85956L3.99256 3.77018L4.21194 3.58737C4.49226 3.33142 4.8132 3.12423 5.12195 2.90486C5.27633 2.7911 5.45102 2.70985 5.61352 2.61235C5.78009 2.51891 5.93853 2.41328 6.11728 2.34016C6.93386 1.91765 7.83168 1.66577 8.73357 1.53577C8.96108 1.5114 9.18452 1.45858 9.41608 1.46264L9.75734 1.45046L9.92797 1.44639L10.0133 1.44233H10.0864L10.8014 1.49108L10.9842 1.50327C11.0452 1.50733 11.0939 1.51952 11.1508 1.53171L11.4758 1.58858L11.8008 1.6414C11.9105 1.66171 12.0202 1.69827 12.1299 1.72671L12.4589 1.81609C12.5686 1.84453 12.6783 1.87296 12.7839 1.91765L13.4177 2.16141C13.6208 2.25891 13.824 2.36453 14.0271 2.46204C14.8234 2.89267 15.5506 3.44518 16.1803 4.09112C16.8099 4.74113 17.3178 5.49677 17.7159 6.30116L17.8622 6.60585L17.9353 6.75617L18.2197 7.54837L18.3862 8.20244C18.3984 8.25525 18.4147 8.31213 18.4269 8.36494L18.5 8.86464L18.5528 9.19777L18.5934 10.0428V10.0956L18.5569 10.9244C18.5325 11.1519 18.4919 11.355 18.4634 11.5703C18.3131 12.4397 18.0287 13.3213 17.6143 14.1257C17.1918 14.861 16.6596 15.5272 16.0543 16.1122C16.0178 16.0066 15.9609 15.901 15.8837 15.8076C15.7659 15.6572 15.6481 15.5029 15.514 15.3566C15.2499 15.056 14.9534 14.7675 14.6324 14.4913C14.3115 14.215 13.9662 13.955 13.6046 13.7072C13.4218 13.5853 13.239 13.4635 13.048 13.3497L12.7596 13.1791L12.7352 13.1669L12.7433 12.8947L12.7636 12.2488L12.7921 11.2697C12.9424 11.1275 13.0683 10.9609 13.1618 10.774C13.2349 10.6278 13.2877 10.4693 13.3161 10.3068C13.3324 10.2256 13.3405 10.1443 13.3446 10.0631L13.3486 9.88434L13.4096 7.53618V7.45899L13.4055 7.34524L13.4015 7.1868C13.3974 7.1218 13.3852 7.03648 13.373 6.95929C13.3568 6.79679 13.3161 6.67898 13.2836 6.54085C13.1983 6.27678 13.0886 6.01678 12.9383 5.78521C12.6377 5.31802 12.2152 4.92801 11.7074 4.68426C11.4596 4.55832 11.1874 4.473 10.9111 4.42425C10.6389 4.37144 10.3261 4.3755 10.1473 4.3755L9.83453 4.37957H9.75734L9.71671 4.38363L9.63953 4.38769C9.58671 4.39175 9.54202 4.39175 9.45265 4.40394L9.22108 4.4405C9.14795 4.45675 9.08295 4.473 9.01389 4.49332C8.87576 4.52582 8.74982 4.58269 8.61982 4.63144C8.112 4.85895 7.66512 5.22458 7.35636 5.68365C7.14917 5.9599 6.99073 6.26866 6.88511 6.59773C6.86073 6.68304 6.83636 6.76429 6.81604 6.8496L6.77136 7.10555C6.75104 7.27211 6.74292 7.47118 6.74292 7.58087L6.71042 9.36027L6.70635 9.80309V10.1118L6.71448 10.2256C6.7226 10.2987 6.73073 10.3556 6.74698 10.4165C6.81604 10.7537 6.98261 11.0706 7.21011 11.3225V12.5575L7.21417 13.0166L7.05573 13.1019C6.09697 13.6503 5.18696 14.2678 4.34194 14.9788ZM12.4874 13.045C12.4793 13.041 12.463 13.0328 12.4874 13.045ZM7.28324 14.6254C7.47012 14.5278 7.65699 14.4303 7.84387 14.3369L8.12419 14.1988L8.19325 14.1663L8.22982 14.15L8.25013 14.1419L8.25825 14.1378C8.27857 14.1257 8.29888 14.1175 8.31919 14.1053C8.47763 14.0078 8.59951 13.8535 8.65639 13.6788C8.67264 13.6341 8.68076 13.5935 8.68889 13.5406C8.69295 13.5122 8.69701 13.4594 8.69295 13.4716V13.3985C8.70107 12.9638 8.70107 12.5291 8.70107 12.0984C8.69701 11.7247 8.69295 11.3509 8.69295 10.9812V10.9569C8.68889 10.7497 8.58326 10.5465 8.39638 10.4287C8.28669 10.3597 8.20544 10.2459 8.177 10.12C8.16888 10.0712 8.16888 10.1078 8.16481 10.0022L8.16075 9.79496L8.15263 9.33996L8.11606 7.52805C8.112 7.44274 8.11606 7.40211 8.11606 7.34117C8.112 7.2843 8.12419 7.23149 8.13231 7.17461C8.14856 7.06492 8.17294 6.95523 8.2095 6.8496C8.28263 6.63835 8.40044 6.43929 8.55482 6.26866C8.70514 6.09803 8.89608 5.95584 9.10327 5.85834C9.20889 5.80959 9.31452 5.76896 9.42827 5.74052C9.48515 5.72427 9.52577 5.72021 9.57859 5.70802C9.5989 5.6999 9.63546 5.6999 9.67609 5.69584L9.78984 5.68771L10.253 5.72834L10.3748 5.74052L10.4683 5.75677C10.5292 5.7649 10.5902 5.77709 10.647 5.79334C10.8827 5.85428 11.098 5.96397 11.2808 6.11022C11.4636 6.25647 11.6139 6.43929 11.7196 6.63835C11.748 6.6871 11.7724 6.73991 11.7927 6.79273C11.8171 6.84148 11.8333 6.89836 11.8496 6.95117C11.8821 7.0568 11.8983 7.17461 11.9064 7.24774C11.9105 7.25992 11.9105 7.30867 11.9105 7.3493L11.9146 7.47118L11.9105 7.67837L11.8983 8.174L11.8821 9.16527L11.878 9.6609V10.0225C11.878 10.0347 11.878 10.0468 11.8739 10.059C11.8617 10.1565 11.8049 10.2459 11.7196 10.3028L11.7074 10.3109C11.4961 10.4572 11.358 10.7009 11.358 10.9772L11.3621 12.7931L11.3661 13.2481V13.4513C11.3661 13.5244 11.3783 13.6016 11.3946 13.6747C11.4311 13.821 11.5083 13.9591 11.6139 14.0688C11.6708 14.1257 11.7155 14.1663 11.7967 14.2191L11.8496 14.2475L11.8821 14.2638L11.8942 14.2678L11.9877 14.3125C12.2436 14.4385 12.4996 14.5766 12.7555 14.7188C13.2633 15.0032 13.759 15.3119 14.2343 15.6451C14.4699 15.8116 14.7096 15.9822 14.929 16.1569C15.0346 16.2382 15.1524 16.3357 15.2702 16.4332L15.3556 16.5063C15.3596 16.5144 15.3718 16.5226 15.3799 16.5307C15.3962 16.551 15.4124 16.5673 15.4246 16.5916C15.4368 16.6079 15.4571 16.6241 15.4856 16.6404C13.4421 18.2938 10.6308 18.9195 8.09575 18.2776L7.58387 18.1476L6.84042 17.8795C6.75917 17.847 6.68198 17.8063 6.60073 17.7698L6.12135 17.5463C5.52415 17.2091 4.93508 16.8394 4.42726 16.3723C4.48413 16.3316 4.54507 16.2951 4.59788 16.2707C4.75226 16.1894 4.9432 16.0594 5.13414 15.9335C5.80853 15.4501 6.53979 15.0194 7.28324 14.6254Z" fill="#626972"/>
</g>
<defs>
<clipPath id="clip0_1680_388">
<rect width="20" height="20" fill="white"/>
</clipPath>
</defs>
</svg>
