<svg id="Layer_1" enable-background="new 0 0 503.596 503.596" height="512" viewBox="0 0 503.596 503.596" width="512" xmlns="http://www.w3.org/2000/svg"><g><path d="m410.503 105h-317.41l-69.454 121.545 228.159 277.051 228.159-277.051zm-103.752 135-54.953 186.839-54.953-186.839zm-100.806-30 45.853-64.192 45.851 64.192zm75-75h91.704l-45.852 64.192zm-104.147 64.192-45.853-64.192h91.704zm-29.149 10.808h-80.003l35.558-62.226zm17.926 30 51.105 173.763-143.098-173.763zm172.446 0h91.992l-143.098 173.763zm17.924-30 44.447-62.226 35.558 62.226z"/><path d="m236.798 0h30v60h-30z"/><path d="m155.585 8.786h30v60h-30z" transform="matrix(.707 -.707 .707 .707 22.537 131.982)"/><path d="m305.584 23.787h60v30h-60z" transform="matrix(.707 -.707 .707 .707 70.864 248.654)"/></g></svg>